<svg enable-background="new 0 0 84 66" viewBox="0 0 84 66" xmlns="http://www.w3.org/2000/svg"><g fill="#aa0f0a"><path d="m63.09 26.02-2.05.36 1.45-3.78-.88-4.97-2.03.36 1.44-3.76-.63-3.57c-.14-.77-.87-1.29-1.64-1.15l-2.14.38-3.55 9.26-4.66.82 3.55-9.26-6.52 1.15-3.55 9.26-4.66.82 3.55-9.26-6.52 1.15-3.55 9.26-4.66.82 3.55-9.27-6.52 1.15-3.55 9.27-4.66.82 3.55-9.27-6.52 1.15-3.56 9.27-4.66.82 3.56-9.27-4.38.77c-.79.14-1.31.87-1.17 1.65l1.23 6.99.27-.05-.28.05 5.67 32.15c.68 3.85 4.37 6.44 8.22 5.76l44.73-7.89c3.85-.68 6.44-4.37 5.76-8.22zm-53.31 9.4-4.66.82 3.55-9.27 4.66-.82zm6.52-1.15 3.55-9.27 4.66-.82-3.55 9.27zm11.19-1.97 3.55-9.27 4.66-.82-3.55 9.26zm11.18-1.97 3.55-9.26 4.66-.82-3.55 9.26zm11.18-1.97 3.55-9.26 4.66-.82-3.55 9.26z"/><path d="m74.12.21c-1.93 3.77-3.5 5.34-7.27 7.27 3.77 1.93 5.34 3.5 7.27 7.27 1.93-3.77 3.5-5.34 7.27-7.27-3.77-1.93-5.34-3.5-7.27-7.27z"/><path d="m80.79 14.21c-.75 1.47-1.36 2.08-2.83 2.83 1.47.75 2.08 1.36 2.83 2.83.75-1.47 1.36-2.08 2.83-2.83-1.47-.75-2.08-1.36-2.83-2.83z"/></g></svg>