<svg enable-background="new 0 0 90 110" viewBox="0 0 90 110" xmlns="http://www.w3.org/2000/svg"><g fill="#9b7855"><path d="m45.87 108.76 10.51-18.21c.38-.67-.1-1.5-.87-1.5h-21.02c-.77 0-1.25.83-.87 1.5l10.51 18.21c.39.67 1.35.67 1.74 0z"/><path d="m45.87 81.49 10.51-18.21c.38-.67-.1-1.5-.87-1.5h-21.02c-.77 0-1.25.83-.87 1.5l10.51 18.21c.39.67 1.35.67 1.74 0z"/><path d="m45.87 54.22 10.51-18.21c.38-.67-.1-1.5-.87-1.5h-21.02c-.77 0-1.25.83-.87 1.5l10.51 18.21c.39.66 1.35.66 1.74 0z"/><path d="m2.14.8h11.04c.37 0 .69.13.96.38.25.27.38.58.38.96 0 .24-.05.46-.16.66l-2.75 4.52 5.54 5.24h-3.93l-3.17-2.99c-.57.72-1.16 1.3-1.75 1.75-1.02.77-2.01 1.18-2.97 1.24h-3.11v-2.68h2.91c.5-.02 1.03-.22 1.57-.58s1-.77 1.36-1.23.7-.96 1.02-1.5l1.85-3.11h-8.79z"/><path d="m24.56.8h8.47c.37 0 .69.13.96.38.28.29.41.61.38.96l-.64 4.68c-.13.94-.38 1.83-.74 2.67-.39.84-.92 1.54-1.6 2.12s-1.49.89-2.42.95h-2.87v-2.68h2.55c.5-.03.95-.22 1.33-.58s.64-.77.79-1.23.25-.96.32-1.5l.36-2.61c.04-.32-.07-.48-.34-.5h-5.62c-.13.57-.31 1.12-.54 1.63-.39.84-.92 1.54-1.6 2.12s-1.49.89-2.42.95h-1.47v-2.66h1.16c.5-.03.95-.22 1.33-.58s.64-.77.79-1.23.25-.96.32-1.5v-.1c.07-.37.25-.68.54-.94.25-.23.58-.35.96-.35z"/><path d="m49.24.8c.68.01 1.28.23 1.81.64s.96.9 1.29 1.47.57 1.18.73 1.81.24 1.29.24 1.95c0 .88-.14 1.74-.41 2.58s-.72 1.59-1.34 2.24-1.39 1-2.32 1.06h-6.36c-.93-.04-1.71-.39-2.33-1.04s-1.07-1.4-1.33-2.25-.39-1.71-.39-2.59.13-1.74.4-2.58.71-1.59 1.33-2.25 1.39-1.01 2.32-1.05h.38 5.6.38zm-.67 9.08c.5-.03.93-.22 1.27-.57s.58-.76.73-1.23c.15-.46.22-.94.22-1.41s-.08-.95-.23-1.4c-.15-.46-.4-.87-.73-1.23s-.75-.55-1.26-.58h-5.07c-.5.03-.92.22-1.25.58s-.58.77-.73 1.23-.23.93-.23 1.4.07.95.22 1.41c.15.47.39.87.73 1.23s.76.55 1.26.57z"/><path d="m57.83 5.26h12.24v2.67h-12.24z"/><path d="m77.62.74v8.17c-.01 1.12-.32 2.34-.92 3.69h-2.87c.73-1.51 1.1-2.72 1.1-3.61v-8.25zm4.5 0v8.66c0 .2.08.39.24.56.23.23.58.25 1.06.06s1.96-1.37 4.44-3.57v3.43l-2.31 2.07c-.68.54-1.43.88-2.27 1.01s-1.69-.06-2.55-.56-1.29-1.46-1.29-2.9v-8.76z"/></g></svg>