<svg enable-background="new 0 0 50 50" viewBox="0 0 50 50" width="50" height="50" xmlns="http://www.w3.org/2000/svg"><path d="m.01.02h49.97v49.95h-49.97z" fill="#ddccb2"/><g fill="#dbcab0"><path d="m7.13 49.98v.02c0-.01 0-.02 0-.02"/><path d="m5.14 46.8c-.01.01-.01.02-.02.02 1.2 1.28 1.98 1.47 2 3.15-.01-1.71-.77-1.89-1.98-3.17"/><path d="m42.87 49.98v.02c0-.01 0-.02 0-.02"/><path d="m44.86 46.81c-1.2 1.27-1.97 1.46-1.98 3.16.03-1.67.8-1.86 2-3.14-.01 0-.02-.01-.02-.02"/><path d="m50 36.25s-.01 0-.01.01v.01s.01 0 .01-.01z"/><path d="m49.99 36.26c-2.81 1.37-5.64 6.39-3.1 8.62.01 0 .01-.01.02-.01-2.51-2.23.3-7.21 3.09-8.59v-.02"/><path d="m49.99 13.73v.02s.01 0 .01.01v-.02s-.01-.01-.01-.01"/><path d="m46.88 5.12c-2.54 2.24.3 7.26 3.11 8.63v-.02c-2.79-1.39-5.59-6.36-3.09-8.6-.01 0-.01 0-.02-.01"/><path d="m3.98 27.95c-.26 0-.51.1-.71.29-.39.39-.39 1.02 0 1.41l16.64 16.65c.2.19.45.29.71.29s.51-.1.71-.29c.39-.39.39-1.02 0-1.42l-16.64-16.63c-.2-.2-.45-.3-.71-.3"/><path d="m45.83 28.2c-.26 0-.51.1-.71.29l-16.64 16.65c-.39.39-.39 1.02 0 1.41.2.2.45.29.71.29s.51-.1.71-.29l16.64-16.64c.39-.39.39-1.02 0-1.41-.2-.2-.46-.3-.71-.3"/><path d="m20.78 3.16c-.26 0-.51.1-.71.29l-16.63 16.64c-.39.39-.39 1.02 0 1.42.2.19.45.29.71.29s.51-.1.71-.29l16.63-16.64c.39-.39.39-1.02 0-1.41-.19-.2-.45-.3-.71-.3"/><path d="m28.98 2.95c-.26 0-.51.1-.71.29-.39.39-.39 1.02 0 1.42l16.64 16.64c.2.2.45.29.71.29s.51-.1.71-.29c.39-.39.39-1.02 0-1.41l-16.64-16.65c-.2-.19-.45-.29-.71-.29"/><path d="m25 10.9c-2.85 1.28-5.81 6.41-3.23 8.68 1.3-1.22 1.47-2 3.23-2s1.93.78 3.23 2c2.58-2.26-.38-7.4-3.23-8.68"/><path d="m17.25 20.78c-2.43 0-5.42 2.14-6.35 4.22.93 2.08 3.92 4.22 6.35 4.22.9 0 1.72-.29 2.33-.99-1.23-1.3-2-1.47-2-3.23s.78-1.93 2-3.23c-.61-.7-1.43-.99-2.33-.99"/><path d="m28.23 30.42c-1.3 1.23-1.47 2-3.23 2s-1.93-.78-3.23-2c-2.58 2.27.38 7.41 3.23 8.69 2.85-1.28 5.81-6.43 3.23-8.69"/><path d="m32.75 20.78c-.9 0-1.72.29-2.33.99 1.22 1.3 2 1.47 2 3.23s-.78 1.93-2 3.23c.61.7 1.43.99 2.33.99 2.43 0 5.42-2.14 6.35-4.22-.93-2.08-3.92-4.22-6.35-4.22"/><path d="m.01 36.24s-.01 0-.01.01v.01s.01 0 .01-.01z"/><path d="m.14 42.88h-.01c1.75 0 1.92.78 3.22 2 .01 0 .01-.01.02-.01-1.3-1.22-1.47-1.99-3.23-1.99m-.02-6.68c-.03.02-.07.03-.1.05v.01c.04-.02.08-.04.12-.06-.01 0-.02 0-.02 0"/><path d="m13.79 49.98h-6.66v.02h6.67c-.01-.01-.01-.02-.01-.02"/><path d="m7.45 45.79c-.9 0-1.72.29-2.33.99.01.01.01.01.02.02 1.2 1.27 1.97 1.46 1.98 3.17h6.66c-.94-2.06-3.91-4.18-6.33-4.18"/><path d="m3.34 5.12c-1.3 1.22-1.47 2-3.22 2.01h.02c1.75 0 1.93-.77 3.22-1.99 0-.01-.01-.01-.02-.02"/><path d="m0 13.74v.02s.01 0 .01.01v-.02c0-.01-.01-.01-.01-.01"/><path d="m.01 13.74v.02c.03.02.07.03.1.05.01 0 .01 0 .02-.01-.04-.02-.08-.04-.12-.06"/><path d="m7.13 0v.02-.01z"/><path d="m13.79.04c-.94 2.07-3.92 4.2-6.34 4.2-.89 0-1.7-.29-2.31-.97 0 .01-.01.01-.02.02.61.7 1.43.99 2.33.99 2.43 0 5.42-2.14 6.35-4.22 0-.01 0-.02-.01-.02m-6.66-.02v.01s0 0 0-.01"/><path d="m50 36.26s-.01 0-.01.01v6.61h.01z"/><path d="m49.99 36.27c-2.79 1.39-5.59 6.36-3.09 8.59.01 0 .01.01.02.01 1.26-1.19 1.46-1.95 3.07-2z"/><path d="m42.87 49.98h-6.66c0 .01-.01.02-.01.02h6.67c0-.01 0-.02 0-.02"/><path d="m42.55 45.81c-2.41 0-5.37 2.1-6.33 4.17h6.66c.01-1.7.78-1.89 1.98-3.16.01-.01.01-.01.02-.02-.61-.7-1.43-.99-2.33-.99"/><path d="m49.99 7.12v6.61s.01 0 .01.01v-6.62z"/><path d="m46.91 5.12c-.01.01-.01.01-.02.02-2.5 2.23.3 7.21 3.09 8.6v-6.62c-1.61-.04-1.81-.81-3.07-2"/><path d="m42.87 0v.02s0-.01 0-.02"/><path d="m36.2.05c0 .01-.01.01-.01.02.93 2.08 3.92 4.22 6.35 4.22.9 0 1.72-.29 2.33-.99-.01-.01-.01-.02-.02-.02-.61.68-1.42.97-2.31.97-2.42 0-5.4-2.13-6.34-4.2m6.67-.03v.02s0-.01 0-.02"/><path d="m25 23.75c-.33 0-.65.13-.88.37-.23.23-.37.55-.37.88s.13.65.37.88c.23.23.55.37.88.37s.65-.13.88-.37c.23-.23.37-.56.37-.88 0-.33-.13-.65-.37-.88-.23-.24-.55-.37-.88-.37"/><path d="m50 48.75h-.01v1.23h-1.24v.02h1.25z"/><path d="m49.99 48.75c-.33 0-.64.14-.87.36-.23.23-.36.54-.37.86h1.24z"/><path d="m26.35 49.98h-2.7v.02h2.7c0-.01 0-.02 0-.02"/><path d="m25 48.58c-.36 0-.7.14-.96.4-.25.25-.4.6-.4.95v.05h2.7c0-.02 0-.03 0-.05 0-.36-.14-.7-.4-.95-.24-.26-.59-.4-.94-.4"/><path d="m50 23.58h-.01v2.7h.01z"/><path d="m49.99 23.58c-.35 0-.69.15-.94.4s-.4.6-.4.95c0 .36.14.7.4.96.25.25.58.39.94.4z"/><path d="m.01 36.26s-.01 0-.01.01v6.61h.01z"/><path d="m.14 36.2s-.01 0-.01.01c-.04.02-.08.04-.12.06v6.62h.12.01c1.75 0 1.93.77 3.22 1.99 0 0 .01.01.01.01 2.59-2.28-.37-7.42-3.23-8.69"/><path d="m0 7.12v6.61s.01 0 .01.01v-6.61c0-.01-.01-.01-.01-.01"/><path d="m3.38 5.12c-.01.01-.01.01-.02.02-1.29 1.21-1.46 1.99-3.22 1.99-.01 0-.01 0-.02 0-.04 0-.08 0-.12 0v6.62c.04.02.08.04.12.05.01 0 .01 0 .02.01 2.86-1.28 5.82-6.42 3.24-8.69"/><path d="m0 48.75v1.25h1.25c0-.01 0-.02 0-.02h-1.24v-1.23z"/><path d="m.01 48.75v1.23h1.24c-.01-.32-.14-.63-.37-.86s-.54-.37-.87-.37"/><path d="m0 23.58v2.7h.01v-2.7z"/><path d="m.01 23.58v2.7c.36 0 .69-.14.94-.4.26-.25.4-.59.4-.96 0-.36-.14-.7-.39-.95s-.6-.39-.95-.39"/><path d="m13.8 0h-6.67v.01.01h6.68s0 0 0-.01c-.01 0-.01 0-.01-.01"/><path d="m13.8.02h-6.67v.01c-.01 1.74-.79 1.91-2 3.21.01.01.01.02.02.02.61.68 1.42.97 2.31.97 2.42 0 5.4-2.13 6.34-4.2 0 0 0 0 0-.01"/><path d="m42.87 0h-6.67c0 .01-.01.02-.01.02h6.68s0-.01 0-.02"/><path d="m42.87.02h-6.68c0 .01.01.01.01.02.94 2.07 3.92 4.2 6.34 4.2.89 0 1.7-.29 2.31-.97.01-.01.01-.02.02-.02-1.22-1.3-2-1.47-2-3.21 0 0 0-.01 0-.02z"/><path d="m50 0h-1.25v.02h1.24v1.23h.01z"/><path d="m49.99.02h-1.24c.01.32.14.63.37.86s.54.36.87.37z"/><path d="m26.35 0h-2.7v.02h2.69c.01 0 .01-.01.01-.02"/><path d="m26.35.02h-2.69c.02.32.16.63.39.86.25.26.59.4.95.4s.7-.14.95-.39c.24-.24.37-.54.4-.87"/><path d="m1.25 0h-1.25v1.25h.01v-1.23h1.24s0-.01 0-.02"/><path d="m1.25.02h-1.24v1.23c.32 0 .64-.14.87-.37.23-.22.36-.54.37-.86"/></g><path d="m7.13 49.98v.02c0-.01 0-.02 0-.02" fill="#d9c6aa" opacity=".051"/><path d="m5.14 46.8c-.01.01-.01.02-.02.02 1.2 1.28 1.98 1.47 2 3.15-.01-1.71-.77-1.89-1.98-3.17" fill="#dbcab0"/><path d="m42.87 49.98v.02c0-.01 0-.02 0-.02" fill="#d9c6aa" opacity=".051"/><path d="m44.86 46.81c-1.2 1.27-1.97 1.46-1.98 3.16.03-1.67.8-1.86 2-3.14-.01 0-.02-.01-.02-.02" fill="#dbcab0"/><path d="m50 36.25s-.01 0-.01.01v.01s.01 0 .01-.01z" fill="#d9c6aa" opacity=".051"/><path d="m49.99 36.26c-2.81 1.37-5.64 6.39-3.1 8.62.01 0 .01-.01.02-.01-2.51-2.23.3-7.21 3.09-8.59v-.02" fill="#dbcab0"/><path d="m49.99 13.73v.02s.01 0 .01.01v-.02s-.01-.01-.01-.01" fill="#d9c6aa" opacity=".051"/><path d="m46.88 5.12c-2.54 2.24.3 7.26 3.11 8.63v-.02c-2.79-1.39-5.59-6.36-3.09-8.6-.01 0-.01 0-.02-.01" fill="#dbcab0"/><path d="m3.98 27.95c-.26 0-.51.1-.71.29-.39.39-.39 1.02 0 1.41l16.64 16.65c.2.19.45.29.71.29s.51-.1.71-.29c.39-.39.39-1.02 0-1.42l-16.64-16.63c-.2-.2-.45-.3-.71-.3" fill="#dbcab0"/><path d="m45.83 28.2c-.26 0-.51.1-.71.29l-16.64 16.65c-.39.39-.39 1.02 0 1.41.2.2.45.29.71.29s.51-.1.71-.29l16.64-16.64c.39-.39.39-1.02 0-1.41-.2-.2-.46-.3-.71-.3" fill="#dbcab0"/><path d="m20.78 3.16c-.26 0-.51.1-.71.29l-16.63 16.64c-.39.39-.39 1.02 0 1.42.2.19.45.29.71.29s.51-.1.71-.29l16.63-16.64c.39-.39.39-1.02 0-1.41-.19-.2-.45-.3-.71-.3" fill="#dbcab0"/><path d="m28.98 2.95c-.26 0-.51.1-.71.29-.39.39-.39 1.02 0 1.42l16.64 16.64c.2.2.45.29.71.29s.51-.1.71-.29c.39-.39.39-1.02 0-1.41l-16.64-16.65c-.2-.19-.45-.29-.71-.29" fill="#dbcab0"/><path d="m25 10.9c-2.85 1.28-5.81 6.41-3.23 8.68 1.3-1.22 1.47-2 3.23-2s1.93.78 3.23 2c2.58-2.26-.38-7.4-3.23-8.68" fill="#dbcab0"/><path d="m17.25 20.78c-2.43 0-5.42 2.14-6.35 4.22.93 2.08 3.92 4.22 6.35 4.22.9 0 1.72-.29 2.33-.99-1.23-1.3-2-1.47-2-3.23s.78-1.93 2-3.23c-.61-.7-1.43-.99-2.33-.99" fill="#dbcab0"/><path d="m28.23 30.42c-1.3 1.23-1.47 2-3.23 2s-1.93-.78-3.23-2c-2.58 2.27.38 7.41 3.23 8.69 2.85-1.28 5.81-6.43 3.23-8.69" fill="#dbcab0"/><path d="m32.75 20.78c-.9 0-1.72.29-2.33.99 1.22 1.3 2 1.47 2 3.23s-.78 1.93-2 3.23c.61.7 1.43.99 2.33.99 2.43 0 5.42-2.14 6.35-4.22-.93-2.08-3.92-4.22-6.35-4.22" fill="#dbcab0"/><path d="m.01 36.24s-.01 0-.01.01v.01s.01 0 .01-.01z" fill="#d9c6aa" opacity=".051"/><path d="m.14 42.88h-.01c1.75 0 1.92.78 3.22 2 .01 0 .01-.01.02-.01-1.3-1.22-1.47-1.99-3.23-1.99m-.02-6.68c-.03.02-.07.03-.1.05v.01c.04-.02.08-.04.12-.06-.01 0-.02 0-.02 0" fill="#dbcab0"/><path d="m13.79 49.98h-6.66v.02h6.67c-.01-.01-.01-.02-.01-.02" fill="#d9c6aa" opacity=".051"/><path d="m7.45 45.79c-.9 0-1.72.29-2.33.99.01.01.01.01.02.02 1.2 1.27 1.97 1.46 1.98 3.17h6.66c-.94-2.06-3.91-4.18-6.33-4.18" fill="#dbcab0"/><path d="m3.34 5.12c-1.3 1.22-1.47 2-3.22 2.01h.02c1.75 0 1.93-.77 3.22-1.99 0-.01-.01-.01-.02-.02" fill="#dbcab0"/><path d="m0 13.74v.02s.01 0 .01.01v-.02c0-.01-.01-.01-.01-.01" fill="#d9c6aa" opacity=".051"/><path d="m.01 13.74v.02c.03.02.07.03.1.05.01 0 .01 0 .02-.01-.04-.02-.08-.04-.12-.06" fill="#dbcab0"/><path d="m7.13 0v.02-.01z" fill="#d9c6aa" opacity=".051"/><path d="m13.79.04c-.94 2.07-3.92 4.2-6.34 4.2-.89 0-1.7-.29-2.31-.97 0 .01-.01.01-.02.02.61.7 1.43.99 2.33.99 2.43 0 5.42-2.14 6.35-4.22 0-.01 0-.02-.01-.02m-6.66-.02v.01s0 0 0-.01" fill="#dbcab0"/><path d="m50 36.26s-.01 0-.01.01v6.61h.01z" fill="#d9c6aa" opacity=".051"/><path d="m49.99 36.27c-2.79 1.39-5.59 6.36-3.09 8.59.01 0 .01.01.02.01 1.26-1.19 1.46-1.95 3.07-2z" fill="#dbcab0"/><path d="m42.87 49.98h-6.66c0 .01-.01.02-.01.02h6.67c0-.01 0-.02 0-.02" fill="#d9c6aa" opacity=".051"/><path d="m42.55 45.81c-2.41 0-5.37 2.1-6.33 4.17h6.66c.01-1.7.78-1.89 1.98-3.16.01-.01.01-.01.02-.02-.61-.7-1.43-.99-2.33-.99" fill="#dbcab0"/><path d="m49.99 7.12v6.61s.01 0 .01.01v-6.62z" fill="#d9c6aa" opacity=".051"/><path d="m46.91 5.12c-.01.01-.01.01-.02.02-2.5 2.23.3 7.21 3.09 8.6v-6.62c-1.61-.04-1.81-.81-3.07-2" fill="#dbcab0"/><path d="m42.87 0v.02s0-.01 0-.02" fill="#d9c6aa" opacity=".051"/><path d="m36.2.05c0 .01-.01.01-.01.02.93 2.08 3.92 4.22 6.35 4.22.9 0 1.72-.29 2.33-.99-.01-.01-.01-.02-.02-.02-.61.68-1.42.97-2.31.97-2.42 0-5.4-2.13-6.34-4.2m6.67-.03v.02s0-.01 0-.02" fill="#dbcab0"/><path d="m25 23.75c-.33 0-.65.13-.88.37-.23.23-.37.55-.37.88s.13.65.37.88c.23.23.55.37.88.37s.65-.13.88-.37c.23-.23.37-.56.37-.88 0-.33-.13-.65-.37-.88-.23-.24-.55-.37-.88-.37" fill="#dbcab0"/><path d="m50 48.75h-.01v1.23h-1.24v.02h1.25z" fill="#d9c6aa" opacity=".051"/><path d="m49.99 48.75c-.33 0-.64.14-.87.36-.23.23-.36.54-.37.86h1.24z" fill="#dbcab0"/><path d="m26.35 49.98h-2.7v.02h2.7c0-.01 0-.02 0-.02" fill="#d9c6aa" opacity=".051"/><path d="m25 48.58c-.36 0-.7.14-.96.4-.25.25-.4.6-.4.95v.05h2.7c0-.02 0-.03 0-.05 0-.36-.14-.7-.4-.95-.24-.26-.59-.4-.94-.4" fill="#dbcab0"/><path d="m50 23.58h-.01v2.7h.01z" fill="#d9c6aa" opacity=".051"/><path d="m49.99 23.58c-.35 0-.69.15-.94.4s-.4.6-.4.95c0 .36.14.7.4.96.25.25.58.39.94.4z" fill="#dbcab0"/><path d="m.01 36.26s-.01 0-.01.01v6.61h.01z" fill="#d9c6aa" opacity=".051"/><path d="m.14 36.2s-.01 0-.01.01c-.04.02-.08.04-.12.06v6.62h.12.01c1.75 0 1.93.77 3.22 1.99 0 0 .01.01.01.01 2.59-2.28-.37-7.42-3.23-8.69" fill="#dbcab0"/><path d="m0 7.12v6.61s.01 0 .01.01v-6.61c0-.01-.01-.01-.01-.01" fill="#d9c6aa" opacity=".051"/><path d="m3.38 5.12c-.01.01-.01.01-.02.02-1.29 1.21-1.46 1.99-3.22 1.99-.01 0-.01 0-.02 0-.04 0-.08 0-.12 0v6.62c.04.02.08.04.12.05.01 0 .01 0 .02.01 2.86-1.28 5.82-6.42 3.24-8.69" fill="#dbcab0"/><path d="m0 48.75v1.25h1.25c0-.01 0-.02 0-.02h-1.24v-1.23z" fill="#d9c6aa" opacity=".051"/><path d="m.01 48.75v1.23h1.24c-.01-.32-.14-.63-.37-.86s-.54-.37-.87-.37" fill="#dbcab0"/><path d="m0 23.58v2.7h.01v-2.7z" fill="#d9c6aa" opacity=".051"/><path d="m.01 23.58v2.7c.36 0 .69-.14.94-.4.26-.25.4-.59.4-.96 0-.36-.14-.7-.39-.95s-.6-.39-.95-.39" fill="#dbcab0"/><path d="m13.8 0h-6.67v.01.01h6.68s0 0 0-.01c-.01 0-.01 0-.01-.01" fill="#d9c6aa" opacity=".051"/><path d="m13.8.02h-6.67v.01c-.01 1.74-.79 1.91-2 3.21.01.01.01.02.02.02.61.68 1.42.97 2.31.97 2.42 0 5.4-2.13 6.34-4.2 0 0 0 0 0-.01" fill="#dbcab0"/><path d="m42.87 0h-6.67c0 .01-.01.02-.01.02h6.68s0-.01 0-.02" fill="#d9c6aa" opacity=".051"/><path d="m42.87.02h-6.68c0 .01.01.01.01.02.94 2.07 3.92 4.2 6.34 4.2.89 0 1.7-.29 2.31-.97.01-.01.01-.02.02-.02-1.22-1.3-2-1.47-2-3.21 0 0 0-.01 0-.02z" fill="#dbcab0"/><path d="m50 0h-1.25v.02h1.24v1.23h.01z" fill="#d9c6aa" opacity=".051"/><path d="m49.99.02h-1.24c.01.32.14.63.37.86s.54.36.87.37z" fill="#dbcab0"/><path d="m26.35 0h-2.7v.02h2.69c.01 0 .01-.01.01-.02" fill="#d9c6aa" opacity=".051"/><path d="m26.35.02h-2.69c.02.32.16.63.39.86.25.26.59.4.95.4s.7-.14.95-.39c.24-.24.37-.54.4-.87" fill="#dbcab0"/><path d="m1.25 0h-1.25v1.25h.01v-1.23h1.24s0-.01 0-.02" fill="#d9c6aa" opacity=".051"/><path d="m1.25.02h-1.24v1.23c.32 0 .64-.14.87-.37.23-.22.36-.54.37-.86" fill="#dbcab0"/></svg>
