<svg enable-background="new 0 0 50 50" viewBox="0 0 50 50" xmlns="http://www.w3.org/2000/svg"><path d="m.01.02h49.97v49.95h-49.97z" fill="#ddccb2"/><g fill="#d9c8ae"><path d="m7.91 43.6c-.01.01-.01.01-.02.02 1.04 1.11 1.71 1.26 1.71 2.74 0-.01 0-.01 0-.02 0-1.49-.65-1.64-1.69-2.74"/><path d="m10.43 49.95h-.46c-.03 0-.06 0-.09 0s-.06 0-.09 0h-.41c.17.03.34.04.51.04s.36-.01.54-.04"/><path d="m7.91 49.13c-.01.01-.01.01-.02.02.41.46.92.71 1.48.81h.43c-.73-.03-1.39-.28-1.89-.83m7.4-2.77c-.79 1.75-3.28 3.54-5.33 3.59h.46c1.96-.27 4.16-1.94 4.89-3.57-.02-.01-.02-.01-.02-.02"/><path d="m41.87 43.61c-1.04 1.1-1.7 1.25-1.7 2.74v.02c.01-1.49.67-1.64 1.71-2.74 0-.01 0-.01-.01-.02"/><path d="m40.46 49.95h-.29c-.09.01-.18.01-.28.01-.09 0-.19 0-.29-.01h-.33c.21.03.41.05.61.05.21 0 .4-.02.58-.05"/><path d="m41.87 49.14c-.46.51-1.05.76-1.7.81h.29c.54-.1 1.03-.35 1.43-.8-.01 0-.01-.01-.02-.01m-7.4-2.77c0 .01-.01.01-.01.02.72 1.61 2.88 3.26 4.82 3.56h.33c-2.02-.15-4.37-1.89-5.14-3.58"/><path d="m46.39 40.24h-.01c1.49 0 1.64.67 2.75 1.71 0 0 .01-.01.01-.01-1.1-1.04-1.25-1.7-2.75-1.7m-.02-5.71c-2.44 1.09-4.97 5.48-2.77 7.42 0 0 .01-.01.01-.01-2.18-1.94.34-6.31 2.76-7.4.01 0 0 0 0-.01"/><path d="m43.6 7.97c-2.2 1.94.33 6.33 2.77 7.42 0 0 .01 0 .01-.01-2.43-1.1-4.94-5.46-2.76-7.4-.01 0-.02 0-.02-.01m5.53 0c-1.11 1.04-1.26 1.71-2.75 1.71h.01c1.5 0 1.65-.66 2.75-1.7 0 0-.01 0-.01-.01"/><path d="m6.92 27.34c-.26 0-.52.1-.71.3-.39.39-.39 1.03 0 1.42l14.23 14.22c.2.2.45.3.71.3s.51-.1.71-.3c.39-.39.39-1.03 0-1.42l-14.23-14.23c-.2-.2-.46-.29-.71-.29"/><path d="m42.7 27.55c-.26 0-.51.1-.71.29l-14.23 14.23c-.39.39-.39 1.03 0 1.42.2.2.45.29.71.29s.52-.1.71-.29l14.23-14.22c.39-.39.39-1.03 0-1.42-.19-.2-.45-.3-.71-.3"/><path d="m21.29 6.15c-.26 0-.52.1-.71.29l-14.23 14.22c-.39.39-.39 1.03 0 1.42.2.2.45.29.71.29s.52-.1.71-.29l14.23-14.22c.39-.39.39-1.03 0-1.42-.2-.2-.46-.29-.71-.29"/><path d="m28.29 5.97c-.26 0-.52.1-.71.3-.39.39-.39 1.03 0 1.42l14.23 14.21c.2.2.45.3.71.3s.51-.1.71-.3c.39-.39.39-1.03 0-1.42l-14.22-14.22c-.2-.19-.46-.29-.72-.29"/><path d="m24.89 12.91c-2.44 1.09-4.97 5.48-2.77 7.42 1.11-1.05 1.26-1.71 2.77-1.71s1.65.67 2.76 1.71c2.21-1.93-.32-6.33-2.76-7.42"/><path d="m18.27 21.36c-2.08 0-4.64 1.83-5.43 3.61.79 1.78 3.35 3.61 5.43 3.61.77 0 1.47-.25 1.99-.85-1.05-1.11-1.71-1.26-1.71-2.76s.67-1.65 1.71-2.76c-.52-.6-1.23-.85-1.99-.85"/><path d="m27.65 29.59c-1.11 1.05-1.26 1.71-2.76 1.71-1.51 0-1.65-.67-2.77-1.71-2.2 1.94.33 6.34 2.77 7.43 2.44-1.09 4.97-5.49 2.76-7.43"/><path d="m31.51 21.36c-.77 0-1.47.25-1.99.84 1.05 1.11 1.71 1.26 1.71 2.76s-.67 1.65-1.71 2.76c.52.59 1.23.85 2 .85 2.08 0 4.64-1.83 5.43-3.61-.8-1.77-3.36-3.6-5.44-3.6"/><path d="m3.64 40.24h-.01c1.49 0 1.64.67 2.75 1.71 0 0 .01-.01.01-.01-1.1-1.04-1.25-1.7-2.75-1.7m-.03-5.71c-2.44 1.09-4.97 5.48-2.76 7.42 0 0 .01-.01.01-.01-2.18-1.94.34-6.31 2.76-7.4 0 0 0 0-.01-.01"/><path d="m9.97 49.95h-.17.09z"/><path d="m9.88 42.74c-.77 0-1.47.25-1.99.84.01.01.01.01.02.02 1.04 1.1 1.69 1.25 1.69 2.74v.02c0 1.49-.66 1.64-1.71 2.75.01.01.01.01.02.02.5.56 1.16.81 1.89.82h.17c2.05-.05 4.54-1.84 5.33-3.59 0-.01.01-.01.01-.02-.79-1.77-3.35-3.6-5.43-3.6"/><path d="m.85 7.97c-2.2 1.94.33 6.33 2.76 7.42 0 0 .01 0 .01-.01-2.43-1.1-4.94-5.46-2.76-7.4-.01 0-.01 0-.01-.01m5.52 0c-1.11 1.05-1.25 1.71-2.75 1.72h.01c1.5 0 1.65-.66 2.75-1.7 0-.01 0-.01-.01-.02"/><path d="m15.31 3.63c-.8 1.77-3.35 3.59-5.42 3.59-.76 0-1.46-.24-1.98-.82-.01 0-.01 0-.02.01.53.59 1.23.84 2 .84 2.08 0 4.64-1.83 5.43-3.61-.01 0-.01-.01-.01-.01m-7.4-2.77c-.01.01-.01.02-.02.02 1.05 1.11 1.71 1.26 1.71 2.75 0-.01 0-.01 0-.02 0-1.5-.65-1.65-1.69-2.75"/><path d="m49.97 39.51v.87c.04-.28.04-.57 0-.87"/><path d="m46.39 34.53s-.01 0-.01.01c-2.43 1.1-4.94 5.46-2.76 7.4 0 0 .01.01.01.01 1.11-1.04 1.26-1.71 2.75-1.71h.01c1.5 0 1.65.66 2.75 1.7 0 0 .01.01.01.01.48-.43.74-.97.82-1.57v-.87c-.23-1.98-1.93-4.24-3.58-4.98"/><path d="m40.17 49.95h-.56c.1.01.19.01.29.01.09 0 .18 0 .27-.01"/><path d="m39.89 42.75c-2.08 0-4.64 1.83-5.43 3.61 0 .01.01.01.01.02.77 1.69 3.12 3.42 5.14 3.58h.56c.65-.05 1.24-.3 1.7-.81.01-.01.01-.01.02-.02-1.04-1.11-1.71-1.26-1.71-2.74 0-.01 0-.01 0-.02 0-1.5.66-1.65 1.7-2.74.01-.01.01-.01.02-.02-.54-.61-1.24-.86-2.01-.86"/><path d="m49.97 9.54v.87c.04-.29.04-.59 0-.87"/><path d="m49.15 7.97s-.01.01-.01.01c-1.1 1.04-1.25 1.7-2.75 1.7h-.01c-1.49 0-1.64-.67-2.75-1.71 0 0-.01.01-.01.01-2.18 1.94.34 6.3 2.76 7.4 0 0 .01 0 .01.01 1.65-.74 3.35-3 3.58-4.98v-.87c-.08-.6-.33-1.14-.82-1.57"/><path d="m34.47 3.64c0 .01-.01.01-.01.02.8 1.78 3.36 3.61 5.43 3.61.77 0 1.47-.25 1.99-.84-.01-.01-.01-.01-.02-.02-.52.58-1.22.82-1.98.82-2.06-.01-4.61-1.82-5.41-3.59m7.4-2.77c-1.04 1.1-1.7 1.25-1.7 2.74v.02c.01-1.49.67-1.63 1.71-2.74 0 0 0-.01-.01-.02"/><path d="m24.89 23.71c-.33 0-.66.13-.89.37-.23.23-.37.56-.37.89s.13.65.37.89c.23.23.56.37.89.37s.65-.13.89-.37c.23-.23.37-.56.37-.89s-.13-.65-.37-.89-.56-.37-.89-.37"/><path d="m46.27 45.07c-.33 0-.66.13-.89.37-.23.23-.37.56-.37.89 0 .33.13.65.37.89.23.23.56.37.89.37s.65-.13.89-.37c.23-.23.37-.56.37-.89 0-.33-.13-.65-.37-.89-.24-.23-.56-.37-.89-.37"/><path d="m24.89 44.91c-.36 0-.71.15-.96.4s-.4.6-.4.96c0 .36.14.7.4.96s.6.4.96.4.7-.14.96-.4.4-.6.4-.96c0-.36-.14-.71-.4-.96-.25-.25-.6-.4-.96-.4"/><path d="m46.27 23.54c-.36 0-.71.15-.96.4s-.4.6-.4.96c0 .36.14.7.4.96s.6.4.96.4.7-.14.96-.4.4-.6.4-.96c0-.36-.15-.71-.4-.96-.26-.25-.6-.4-.96-.4"/><path d="m3.64 34.53s-.01 0-.01.01c-2.43 1.1-4.94 5.46-2.76 7.4 0 0 .01.01.01.01 1.11-1.04 1.26-1.71 2.75-1.71h.01c1.5 0 1.65.66 2.75 1.7 0 0 .01.01.01.01 2.2-1.93-.33-6.33-2.76-7.42"/><path d="m6.4 7.97s-.01.01-.01.01c-1.1 1.04-1.25 1.7-2.75 1.7h-.01c-1.49 0-1.64-.67-2.75-1.71 0 0-.01.01-.01.01-2.18 1.94.34 6.3 2.76 7.4 0 0 .01 0 .01.01 2.43-1.09 4.96-5.48 2.76-7.42"/><path d="m3.51 45.07c-.33 0-.66.13-.89.37s-.36.56-.36.89c0 .33.13.65.37.89.23.23.56.37.89.37s.66-.13.89-.37c.23-.23.37-.56.37-.89 0-.33-.13-.65-.37-.89-.24-.23-.57-.37-.9-.37"/><path d="m3.51 23.54c-.36 0-.71.15-.96.4s-.4.6-.4.96c0 .36.14.7.4.96s.6.4.96.4.7-.14.96-.4.4-.6.4-.96c0-.36-.14-.71-.4-.96-.25-.25-.6-.4-.96-.4"/><path d="m9.88 0c-.76 0-1.46.25-1.99.84.01.01.01.02.02.02 1.04 1.1 1.69 1.25 1.69 2.75v.02c0 1.48-.66 1.63-1.71 2.74l.02.02c.52.58 1.22.82 1.98.82 2.07 0 4.62-1.82 5.42-3.59 0-.01.01-.01.01-.02-.8-1.77-3.36-3.6-5.44-3.6"/><path d="m39.89.01c-2.08 0-4.64 1.83-5.43 3.61 0 .01.01.01.01.02.8 1.77 3.35 3.59 5.42 3.59.76 0 1.46-.24 1.98-.82.01-.01.01-.01.02-.02-1.04-1.11-1.71-1.26-1.71-2.74 0-.01 0-.01 0-.02 0-1.5.66-1.65 1.7-2.74.01-.01.01-.01.02-.02-.54-.61-1.24-.86-2.01-.86"/><path d="m46.27 2.34c-.33 0-.66.13-.89.37-.23.23-.37.56-.37.89 0 .33.13.65.37.89.23.23.56.37.89.37s.65-.13.89-.37c.23-.23.37-.56.37-.89 0-.33-.13-.65-.37-.89s-.56-.37-.89-.37"/><path d="m24.89 2.17c-.36 0-.71.15-.96.4s-.4.6-.4.96c0 .36.14.7.4.96s.6.4.96.4.7-.14.96-.4.4-.6.4-.96c0-.36-.14-.71-.4-.96-.25-.25-.6-.4-.96-.4"/><path d="m3.51 2.34c-.33 0-.66.13-.89.37-.23.23-.36.55-.36.89 0 .33.13.65.37.89.23.23.56.37.89.37s.66-.13.89-.37.36-.56.36-.89c0-.33-.13-.65-.37-.89-.23-.24-.56-.37-.89-.37"/></g><path d="m7.91 43.6c-.01.01-.01.01-.02.02 1.04 1.11 1.71 1.26 1.71 2.74 0-.01 0-.01 0-.02 0-1.49-.65-1.64-1.69-2.74" fill="#dbcab0"/><path d="m10.43 49.95h-.46c-.03 0-.06 0-.09 0s-.06 0-.09 0h-.41c.17.03.34.04.51.04s.36-.01.54-.04" fill="#d9c6aa" opacity=".051"/><path d="m7.91 49.13c-.01.01-.01.01-.02.02.41.46.92.71 1.48.81h.43c-.73-.03-1.39-.28-1.89-.83m7.4-2.77c-.79 1.75-3.28 3.54-5.33 3.59h.46c1.96-.27 4.16-1.94 4.89-3.57-.02-.01-.02-.01-.02-.02" fill="#dbcab0"/><path d="m41.87 43.61c-1.04 1.1-1.7 1.25-1.7 2.74v.02c.01-1.49.67-1.64 1.71-2.74 0-.01 0-.01-.01-.02" fill="#dbcab0"/><path d="m40.46 49.95h-.29c-.09.01-.18.01-.28.01-.09 0-.19 0-.29-.01h-.33c.21.03.41.05.61.05.21 0 .4-.02.58-.05" fill="#d9c6aa" opacity=".051"/><path d="m41.87 49.14c-.46.51-1.05.76-1.7.81h.29c.54-.1 1.03-.35 1.43-.8-.01 0-.01-.01-.02-.01m-7.4-2.77c0 .01-.01.01-.01.02.72 1.61 2.88 3.26 4.82 3.56h.33c-2.02-.15-4.37-1.89-5.14-3.58" fill="#dbcab0"/><path d="m46.39 40.24h-.01c1.49 0 1.64.67 2.75 1.71 0 0 .01-.01.01-.01-1.1-1.04-1.25-1.7-2.75-1.7m-.02-5.71c-2.44 1.09-4.97 5.48-2.77 7.42 0 0 .01-.01.01-.01-2.18-1.94.34-6.31 2.76-7.4.01 0 0 0 0-.01" fill="#dbcab0"/><path d="m43.6 7.97c-2.2 1.94.33 6.33 2.77 7.42 0 0 .01 0 .01-.01-2.43-1.1-4.94-5.46-2.76-7.4-.01 0-.02 0-.02-.01m5.53 0c-1.11 1.04-1.26 1.71-2.75 1.71h.01c1.5 0 1.65-.66 2.75-1.7 0 0-.01 0-.01-.01" fill="#dbcab0"/><path d="m6.92 27.34c-.26 0-.52.1-.71.3-.39.39-.39 1.03 0 1.42l14.23 14.22c.2.2.45.3.71.3s.51-.1.71-.3c.39-.39.39-1.03 0-1.42l-14.23-14.23c-.2-.2-.46-.29-.71-.29" fill="#dbcab0"/><path d="m42.7 27.55c-.26 0-.51.1-.71.29l-14.23 14.23c-.39.39-.39 1.03 0 1.42.2.2.45.29.71.29s.52-.1.71-.29l14.23-14.22c.39-.39.39-1.03 0-1.42-.19-.2-.45-.3-.71-.3" fill="#dbcab0"/><path d="m21.29 6.15c-.26 0-.52.1-.71.29l-14.23 14.22c-.39.39-.39 1.03 0 1.42.2.2.45.29.71.29s.52-.1.71-.29l14.23-14.22c.39-.39.39-1.03 0-1.42-.2-.2-.46-.29-.71-.29" fill="#dbcab0"/><path d="m28.29 5.97c-.26 0-.52.1-.71.3-.39.39-.39 1.03 0 1.42l14.23 14.21c.2.2.45.3.71.3s.51-.1.71-.3c.39-.39.39-1.03 0-1.42l-14.22-14.22c-.2-.19-.46-.29-.72-.29" fill="#dbcab0"/><path d="m24.89 12.91c-2.44 1.09-4.97 5.48-2.77 7.42 1.11-1.05 1.26-1.71 2.77-1.71s1.65.67 2.76 1.71c2.21-1.93-.32-6.33-2.76-7.42" fill="#dbcab0"/><path d="m18.27 21.36c-2.08 0-4.64 1.83-5.43 3.61.79 1.78 3.35 3.61 5.43 3.61.77 0 1.47-.25 1.99-.85-1.05-1.11-1.71-1.26-1.71-2.76s.67-1.65 1.71-2.76c-.52-.6-1.23-.85-1.99-.85" fill="#dbcab0"/><path d="m27.65 29.59c-1.11 1.05-1.26 1.71-2.76 1.71-1.51 0-1.65-.67-2.77-1.71-2.2 1.94.33 6.34 2.77 7.43 2.44-1.09 4.97-5.49 2.76-7.43" fill="#dbcab0"/><path d="m31.51 21.36c-.77 0-1.47.25-1.99.84 1.05 1.11 1.71 1.26 1.71 2.76s-.67 1.65-1.71 2.76c.52.59 1.23.85 2 .85 2.08 0 4.64-1.83 5.43-3.61-.8-1.77-3.36-3.6-5.44-3.6" fill="#dbcab0"/><path d="m3.64 40.24h-.01c1.49 0 1.64.67 2.75 1.71 0 0 .01-.01.01-.01-1.1-1.04-1.25-1.7-2.75-1.7m-.03-5.71c-2.44 1.09-4.97 5.48-2.76 7.42 0 0 .01-.01.01-.01-2.18-1.94.34-6.31 2.76-7.4 0 0 0 0-.01-.01" fill="#dbcab0"/><path d="m9.97 49.95h-.17.09z" fill="#d9c6aa" opacity=".051"/><path d="m9.88 42.74c-.77 0-1.47.25-1.99.84.01.01.01.01.02.02 1.04 1.1 1.69 1.25 1.69 2.74v.02c0 1.49-.66 1.64-1.71 2.75.01.01.01.01.02.02.5.56 1.16.81 1.89.82h.17c2.05-.05 4.54-1.84 5.33-3.59 0-.01.01-.01.01-.02-.79-1.77-3.35-3.6-5.43-3.6" fill="#dbcab0"/><path d="m.85 7.97c-2.2 1.94.33 6.33 2.76 7.42 0 0 .01 0 .01-.01-2.43-1.1-4.94-5.46-2.76-7.4-.01 0-.01 0-.01-.01m5.52 0c-1.11 1.05-1.25 1.71-2.75 1.72h.01c1.5 0 1.65-.66 2.75-1.7 0-.01 0-.01-.01-.02" fill="#dbcab0"/><path d="m15.31 3.63c-.8 1.77-3.35 3.59-5.42 3.59-.76 0-1.46-.24-1.98-.82-.01 0-.01 0-.02.01.53.59 1.23.84 2 .84 2.08 0 4.64-1.83 5.43-3.61-.01 0-.01-.01-.01-.01m-7.4-2.77c-.01.01-.01.02-.02.02 1.05 1.11 1.71 1.26 1.71 2.75 0-.01 0-.01 0-.02 0-1.5-.65-1.65-1.69-2.75" fill="#dbcab0"/><path d="m49.97 39.51v.87c.04-.28.04-.57 0-.87" fill="#d9c6aa" opacity=".051"/><path d="m46.39 34.53s-.01 0-.01.01c-2.43 1.1-4.94 5.46-2.76 7.4 0 0 .01.01.01.01 1.11-1.04 1.26-1.71 2.75-1.71h.01c1.5 0 1.65.66 2.75 1.7 0 0 .01.01.01.01.48-.43.74-.97.82-1.57v-.87c-.23-1.98-1.93-4.24-3.58-4.98" fill="#dbcab0"/><path d="m40.17 49.95h-.56c.1.01.19.01.29.01.09 0 .18 0 .27-.01" fill="#d9c6aa" opacity=".051"/><path d="m39.89 42.75c-2.08 0-4.64 1.83-5.43 3.61 0 .01.01.01.01.02.77 1.69 3.12 3.42 5.14 3.58h.56c.65-.05 1.24-.3 1.7-.81.01-.01.01-.01.02-.02-1.04-1.11-1.71-1.26-1.71-2.74 0-.01 0-.01 0-.02 0-1.5.66-1.65 1.7-2.74.01-.01.01-.01.02-.02-.54-.61-1.24-.86-2.01-.86" fill="#dbcab0"/><path d="m49.97 9.54v.87c.04-.29.04-.59 0-.87" fill="#d9c6aa" opacity=".051"/><path d="m49.15 7.97s-.01.01-.01.01c-1.1 1.04-1.25 1.7-2.75 1.7h-.01c-1.49 0-1.64-.67-2.75-1.71 0 0-.01.01-.01.01-2.18 1.94.34 6.3 2.76 7.4 0 0 .01 0 .01.01 1.65-.74 3.35-3 3.58-4.98v-.87c-.08-.6-.33-1.14-.82-1.57" fill="#dbcab0"/><path d="m34.47 3.64c0 .01-.01.01-.01.02.8 1.78 3.36 3.61 5.43 3.61.77 0 1.47-.25 1.99-.84-.01-.01-.01-.01-.02-.02-.52.58-1.22.82-1.98.82-2.06-.01-4.61-1.82-5.41-3.59m7.4-2.77c-1.04 1.1-1.7 1.25-1.7 2.74v.02c.01-1.49.67-1.63 1.71-2.74 0 0 0-.01-.01-.02" fill="#dbcab0"/><path d="m24.89 23.71c-.33 0-.66.13-.89.37-.23.23-.37.56-.37.89s.13.65.37.89c.23.23.56.37.89.37s.65-.13.89-.37c.23-.23.37-.56.37-.89s-.13-.65-.37-.89-.56-.37-.89-.37" fill="#dbcab0"/><path d="m46.27 45.07c-.33 0-.66.13-.89.37-.23.23-.37.56-.37.89 0 .33.13.65.37.89.23.23.56.37.89.37s.65-.13.89-.37c.23-.23.37-.56.37-.89 0-.33-.13-.65-.37-.89-.24-.23-.56-.37-.89-.37" fill="#dbcab0"/><path d="m24.89 44.91c-.36 0-.71.15-.96.4s-.4.6-.4.96c0 .36.14.7.4.96s.6.4.96.4.7-.14.96-.4.4-.6.4-.96c0-.36-.14-.71-.4-.96-.25-.25-.6-.4-.96-.4" fill="#dbcab0"/><path d="m46.27 23.54c-.36 0-.71.15-.96.4s-.4.6-.4.96c0 .36.14.7.4.96s.6.4.96.4.7-.14.96-.4.4-.6.4-.96c0-.36-.15-.71-.4-.96-.26-.25-.6-.4-.96-.4" fill="#dbcab0"/><path d="m3.64 34.53s-.01 0-.01.01c-2.43 1.1-4.94 5.46-2.76 7.4 0 0 .01.01.01.01 1.11-1.04 1.26-1.71 2.75-1.71h.01c1.5 0 1.65.66 2.75 1.7 0 0 .01.01.01.01 2.2-1.93-.33-6.33-2.76-7.42" fill="#dbcab0"/><path d="m6.4 7.97s-.01.01-.01.01c-1.1 1.04-1.25 1.7-2.75 1.7h-.01c-1.49 0-1.64-.67-2.75-1.71 0 0-.01.01-.01.01-2.18 1.94.34 6.3 2.76 7.4 0 0 .01 0 .01.01 2.43-1.09 4.96-5.48 2.76-7.42" fill="#dbcab0"/><path d="m3.51 45.07c-.33 0-.66.13-.89.37s-.36.56-.36.89c0 .33.13.65.37.89.23.23.56.37.89.37s.66-.13.89-.37c.23-.23.37-.56.37-.89 0-.33-.13-.65-.37-.89-.24-.23-.57-.37-.9-.37" fill="#dbcab0"/><path d="m3.51 23.54c-.36 0-.71.15-.96.4s-.4.6-.4.96c0 .36.14.7.4.96s.6.4.96.4.7-.14.96-.4.4-.6.4-.96c0-.36-.14-.71-.4-.96-.25-.25-.6-.4-.96-.4" fill="#dbcab0"/><path d="m9.88 0c-.76 0-1.46.25-1.99.84.01.01.01.02.02.02 1.04 1.1 1.69 1.25 1.69 2.75v.02c0 1.48-.66 1.63-1.71 2.74l.02.02c.52.58 1.22.82 1.98.82 2.07 0 4.62-1.82 5.42-3.59 0-.01.01-.01.01-.02-.8-1.77-3.36-3.6-5.44-3.6" fill="#dbcab0"/><path d="m39.89.01c-2.08 0-4.64 1.83-5.43 3.61 0 .01.01.01.01.02.8 1.77 3.35 3.59 5.42 3.59.76 0 1.46-.24 1.98-.82.01-.01.01-.01.02-.02-1.04-1.11-1.71-1.26-1.71-2.74 0-.01 0-.01 0-.02 0-1.5.66-1.65 1.7-2.74.01-.01.01-.01.02-.02-.54-.61-1.24-.86-2.01-.86" fill="#dbcab0"/><path d="m46.27 2.34c-.33 0-.66.13-.89.37-.23.23-.37.56-.37.89 0 .33.13.65.37.89.23.23.56.37.89.37s.65-.13.89-.37c.23-.23.37-.56.37-.89 0-.33-.13-.65-.37-.89s-.56-.37-.89-.37" fill="#dbcab0"/><path d="m24.89 2.17c-.36 0-.71.15-.96.4s-.4.6-.4.96c0 .36.14.7.4.96s.6.4.96.4.7-.14.96-.4.4-.6.4-.96c0-.36-.14-.71-.4-.96-.25-.25-.6-.4-.96-.4" fill="#dbcab0"/><path d="m3.51 2.34c-.33 0-.66.13-.89.37-.23.23-.36.55-.36.89 0 .33.13.65.37.89.23.23.56.37.89.37s.66-.13.89-.37.36-.56.36-.89c0-.33-.13-.65-.37-.89-.23-.24-.56-.37-.89-.37" fill="#dbcab0"/></svg>
