<svg enable-background="new 0 0 70 90" viewBox="0 0 70 90" xmlns="http://www.w3.org/2000/svg"><path d="m62 70h-54c-4.42 0-8-3.58-8-8v-54c0-4.42 3.58-8 8-8h54c4.42 0 8 3.58 8 8v54c0 4.42-3.58 8-8 8z" fill="#aa0f0a"/><path d="m27.17 82.31-.2 1.93c-.13.94-.38 1.83-.74 2.67-.39.84-.92 1.54-1.6 2.12s-1.49.89-2.42.95h-2.51v-2.67h2.19c.5-.03.95-.22 1.33-.58s.64-.77.79-1.23.25-.96.32-1.5l.16-1.69zm-7.43-3.41h8.33v-1h2.69v1h2.05v2.67h-2.05v8.43h-2.69v-8.43h-8.33z" fill="#aa0f0a"/><path d="m37.05 78.23h11.92c.37 0 .69.13.96.38.28.29.41.61.38.96l-.64 4.68c-.13.94-.38 1.83-.74 2.67-.39.84-.92 1.54-1.6 2.12s-1.49.89-2.42.95h-4.78v-2.67h4.46c.5-.03.95-.22 1.33-.58s.64-.77.79-1.23.25-.96.32-1.5l.36-2.61c.04-.32-.07-.48-.34-.5h-9.98v-2.67z" fill="#aa0f0a"/><g fill="#d9c6aa"><path d="m47.99 52.12c.29 0 .58.11.8.33l3.44 3.45c.08.08.14.12.28.12 1.22-.01 2.13-.53 2.5-1.43.32-.78.14-1.67-.46-2.26l-37.68-37.76c-.82-.82-2.12-.82-2.97 0-.81.81-.81 2.13 0 2.94l9.01 9.02c.14.14.15.38 0 .53l-.71.74c-.07.07-.17.11-.27.11h-7.7c-.98 0-1.77.79-1.77 1.77v10.49c0 .98.8 1.77 1.77 1.77h7.38c.31 0 .59.12.81.34l10.2 10.21c.21.21.51.27.79.16.28-.12.45-.37.45-.67v-11.7c0-.47.27-.88.71-1.06s.91-.08 1.25.25l8.33 8.34c.24.24.36.58.33.92-.03.33-.21.63-.48.82-1.05.72-2.15 1.31-3.27 1.75-.71.3-1.19 1.07-1.19 1.92 0 .7.33 1.32.9 1.7.59.39 1.34.47 2 .19 1.74-.72 3.38-1.65 4.85-2.77.21-.14.46-.22.7-.22z"/><path d="m53.7 43.42c.09.1.23.14.37.11.13-.02.23-.1.27-.22 1.11-2.67 1.68-5.48 1.68-8.37 0-8.98-5.62-17.16-13.98-20.35-.21-.08-.43-.12-.65-.12-.35 0-.7.11-1.01.32-.52.36-.83.94-.83 1.57v.47c0 .76.5 1.45 1.26 1.75 6.71 2.72 11.04 9.14 11.04 16.37 0 1.83-.29 3.66-.88 5.44-.05.14-.01.3.09.4z"/><path d="m30.24 20.31 2.77 2.77c.22.23.51.22.7.14s.4-.28.4-.6v-4.81c0-.39-.22-.73-.59-.88-.12-.05-.25-.07-.37-.07-.25 0-.48.1-.67.28l-2.25 2.25c-.24.26-.24.67.01.92z"/><path d="m40.81 26.17c-.17-.13-.36-.19-.56-.19-.14 0-.29.03-.43.1-.33.17-.53.48-.53.85v2.16c0 .17.07.33.19.46l4.52 4.53c.24.24.54.22.74.12s.4-.33.36-.67c-.37-2.94-1.9-5.55-4.29-7.36z"/></g></svg>