<svg enable-background="new 0 0 70 90" viewBox="0 0 70 90" xmlns="http://www.w3.org/2000/svg"><g fill="#aa0f0a"><path d="m62 70h-54c-4.42 0-8-3.58-8-8v-54c0-4.42 3.58-8 8-8h54c4.42 0 8 3.58 8 8v54c0 4.42-3.58 8-8 8z"/><path d="m6.18 78.4v6.3h-2.69v-6.3zm10.76-.09-2.23 7.01c-.53 1.51-1.2 2.66-1.99 3.43-.8.77-1.67 1.18-2.61 1.24h-2.64v-2.67h1.95c.5-.03.98-.22 1.42-.58s.78-.77 1.01-1.23.42-.96.58-1.5l1.71-5.7zm-6.78.09v6.3h-2.69v-6.3z"/><path d="m33.12 80.7c-.64 1.57-1.36 2.74-2.15 3.51-.62.6-1.29.96-1.99 1.08v4.71h-2.69v-4.64h-5.7v-2.67h7.09c.5-.03.98-.22 1.42-.58.45-.36.78-.77 1.01-1.23s.43-.95.62-1.46l.52-1.35h2.87z"/><path d="m37.66 82.69h12.24v2.67h-12.24z"/><path d="m57.41 78.17v4.52h9.11v2.67h-9.11v4.64h-2.69v-11.83z"/></g><path d="m49.74 13.7-1.35-2.52-2.46 1.04z" fill="#d9c6aa"/><path d="m48.2 11.1-4.59 1.28 2.09-.25z" fill="#d9c6aa"/><path d="m51.37 15.39-2.79-4.14 1.39 2.54z" fill="#d9c6aa"/><path d="m58.29 29.87c-.04-.24.34-.61.24-.83s-.63-.17-.79-.36-.01-.7-.21-.84-.63.17-.86.08c-.22-.08-.35-.6-.6-.62-.18-.02-.36.25-.53.4-.28-1.14-.66-2.18-1.09-3.12.14.03.28.04.36-.03.2-.16.02-.67.16-.87.15-.21.68-.21.77-.44s-.32-.59-.3-.83c.02-.25.49-.52.45-.76s-.57-.34-.67-.57c-.1-.22.17-.69.01-.89s-.67-.02-.87-.16c-.21-.15-.21-.68-.44-.77s-.59.32-.83.3-.52-.49-.76-.45c-.21.04-.32.41-.49.59-.14-.4-.27-.75-.34-1.07-.08-.37-.32-.84-.66-1.33l.55-1.67-1.48-1.64-.55 1.65c-.07-.06-.13-.13-.2-.18l.52-1.56-3.81-1.48-.49 1.49c-.09-.01-.17-.02-.25-.03l.51-1.55-2.17.22-.42 1.28c-.39.06-.74.18-1.01.38l-1.88 1.6c-.11-.04-.24-.07-.39-.09-1.41-.24-4.27-.04-5.2.98-.03.4 1.82.82 2.88 1.04s3.22 1.75 3.44 2.44c.21.69.57 1.26.27 1.64s-4.6 1.91-5.98 2.34-.18.53.5.45-5.39 3.33-6.14 4.21c-.74.88.8.07.8.07s-2.66 2.88-4.08 3.71-4.07 1.96-5.23 2.94-1.15 1.27-2.48 2.36c-3.18 2.57-2.62 2.35-.41 1.72 1.19-.34.94.08.22.56-.71.48-3.6 2.8-4.45 3.41-.86.6-2.73 2.07-2.19 2.11s1.66-.54 1.66-.54-3.97 2.37-3.45 2.68c.51.31 4.3-1.53 4.3-1.53s-1.44 1.81-2.24 2.64c-1.92 2-.54 1.71.02 1.35.57-.36 1.42-.83 1.42-.83s-4.33 3.55-3.67 3.74 3.24-1.75 3.24-1.75-.81 1.69-.4 1.58c.41-.1 2.73-2.07 2.73-2.07s-1.81 2.41-.25 1.46 3.7-2.39 3.86-2.78c.17-.39-.07.8.94.08 1-.73 3.93-3.59 3.93-3.59s1.44.52 2.17-.23c.53-.54 1.8-.81 2.47-.91.05.45.13.9.08 1.44-.06.77.43.61.43.61l.26-.85s.29 2.34.62 3.04c.22.47.69.53.99.52.4 1.88 1.31 5.94 1.35 6.28.05.44.05.58-.38.56s-1.94-.22-2.24-.02-.5.48-.35.85c.15-.14.1-.14.47-.27s.33.16.98.18c.24.01 1.04-.05 1.4-.18.37-.13 1.08.14 1.29.22s.98.69.98.69.61.51.77.49c.09.05.18.3.18.3s.11.15.12-.07-.03-.39-.03-.39.08-.19-.2-.44-.96-.69-.96-.69.47-.11.62-.15c0 .07.02.15.05.23.11-.1.11-.13.25-.2.33.08.86.23 1.02.19.22-.06.29.01.36.13s.14.01.05-.19c-.02-.03-.04-.05-.05-.08.33-.03.91-.11 1.21-.22.36-.14 1.08.1 1.3.17s1.01.65 1.01.65.62.48.79.46c.1.05.19.29.19.29s.12.15.12-.07-.05-.39-.05-.39.07-.19-.21-.43c-.29-.24-.98-.65-.98-.65s.53-.14.65-.19 1.08.25 1.3.18.29 0 .36.12.14 0 .05-.19c-.1-.19-.22-.29-.34-.29s-.26-.31-.51-.31c-.24 0-1.39.02-1.83-.03-.43-.05-.72-.12-.91-.36-.17-.22-1.3-4.84-1.73-6.52.03 0 .07-.02.11-.08.32-.36.19-2.3.19-2.3s.21.98.37.22c.15-.72.16-1.84.16-1.97 2.2-.5 4.43-1.27 5.82-2.37 2.6-2.08 8.36-11.57 8.34-16.29.15-.62.27-1.2.34-1.72.11-.07.23-.13.32-.12.25.02.52.49.76.45.08-.01.15-.09.21-.18.35.79.67 1.65.92 2.57-.16.15-.15.6-.32.74-.19.15-.7.01-.84.21s.17.63.08.86c-.08.22-.6.35-.63.6-.02.25.46.47.5.71s-.34.62-.24.83c.1.22.63.17.79.36.15.19.01.7.21.84s.63-.17.86-.08c.22.08.35.6.6.62s.47-.46.71-.5.61.34.83.24.17-.63.36-.79c.19-.15.7-.01.84-.21s-.17-.63-.08-.86c.08-.22.6-.35.63-.6.04-.27-.44-.49-.48-.73zm-21.48 18.84s-.01.08-.01.18c-.01-.03-.02-.06-.03-.09zm1 7.11c.07.44.07.58-.36.58s-1.95-.15-2.24.06c-.06.04-.1.09-.15.13-.41-.02-.88-.04-1.13-.07-.43-.07-.72-.15-.9-.4s-1.33-5.9-1.59-7c-.01-.06-.03-.11-.05-.17l.12-.26s-.08.96.24.6.19-2.3.19-2.3.21.98.37.22c.07-.34.11-.78.13-1.17h.24c.33-.02.7-.06 1.1-.1.01.17.04.32.03.5-.06.77.43.61.43.61l.26-.85s.29 2.34.62 3.04c.27.56.9.54 1.14.5.49 1.92 1.49 5.75 1.55 6.08z" fill="#d9c6aa"/></svg>