<svg enable-background="new 0 0 70 90" viewBox="0 0 70 90" xmlns="http://www.w3.org/2000/svg"><path d="m62 70h-54c-4.42 0-8-3.58-8-8v-54c0-4.42 3.58-8 8-8h54c4.42 0 8 3.58 8 8v54c0 4.42-3.58 8-8 8z" fill="#aa0f0a"/><g fill="#710100"><path d="m41.26 14.62c-.35 0-.69.11-.99.31-.51.35-.82.93-.82 1.55v.49c0 .75.49 1.44 1.24 1.74 6.7 2.67 11.03 9.07 11.03 16.29s-4.33 13.62-11.03 16.29c-.75.29-1.24.97-1.24 1.74v.49c0 .62.29 1.17.8 1.52.31.22.67.33 1.03.33.21 0 .43-.04.63-.12 8.35-3.18 13.96-11.32 13.96-20.25 0-8.94-5.61-17.08-13.96-20.25-.21-.09-.43-.13-.65-.13"/><path d="m40.16 26.34c-.11 0-.22.03-.32.08-.24.12-.39.35-.39.63v15.89c0 .27.14.5.39.63.1.05.21.08.32.08.15 0 .3-.05.43-.15 2.7-2.02 4.25-5.12 4.25-8.5 0-3.37-1.55-6.47-4.25-8.51-.13-.1-.28-.15-.43-.15"/><path d="m33.09 17.23c-.18 0-.35.07-.48.21l-10.44 10.46c-.07.07-.17.11-.26.11h-7.67c-.98 0-1.77.79-1.77 1.77v10.42c0 .98.8 1.77 1.77 1.77h7.67c.1 0 .19.04.26.11l10.43 10.44c.14.14.31.21.49.21.09 0 .18-.02.27-.06.27-.11.43-.35.43-.65v-34.08c0-.29-.16-.53-.43-.65-.09-.04-.18-.06-.27-.06"/></g><path d="m27.49 82.31-.2 1.93c-.13.94-.38 1.83-.74 2.67-.39.84-.92 1.54-1.6 2.12s-1.49.89-2.42.95h-2.51v-2.67h2.19c.5-.03.95-.22 1.33-.58s.64-.77.79-1.23.25-.96.32-1.5l.16-1.69zm-7.44-3.41h8.33v-1h2.69v1h2.05v2.67h-2.05v8.43h-2.69v-8.43h-8.33z" fill="#aa0f0a"/><path d="m37.05 78.23h7.37v2.67h-7.37zm13.57 0-2.31 7.09c-.53 1.51-1.2 2.66-1.99 3.43-.8.77-1.67 1.18-2.61 1.24h-4.78v-2.67h4.11c.5-.03.98-.22 1.42-.58s.78-.77 1.01-1.23.42-.96.58-1.5l1.79-5.78z" fill="#aa0f0a"/></svg>