<svg enable-background="new 0 0 56 66" viewBox="0 0 56 66" xmlns="http://www.w3.org/2000/svg"><path d="m55.41 2.5c0-1.36-1.22-2.76-2.46-2.46l-34.37 8.75c-1.28.43-2.46 1.35-2.46 2.71v30.31c0 .89-.39 1.74-1.06 2.32-.56.49-1.28.76-2.02.76-.14 0-.28-.01-.42-.03-.48-.07-.97-.1-1.45-.1-5.86 0-10.62 4.76-10.62 10.62s3.35 10.62 9.21 10.62 10.62-4.76 10.62-10.62l-.03-27.98 30.85-7.32v15.28c0 .89-.39 1.74-1.06 2.32-.56.49-1.28.75-2.02.75-.14 0-.29-.01-.43-.03-.49-.07-.99-.1-1.48-.1-5.86 0-10.62 4.76-10.62 10.62s3.36 10.62 9.21 10.62c2.77 0 5.4-1.06 7.4-2.99 1.98-1.91 3.13-4.47 3.24-7.21 0-.03 0-.07 0-.1zm-35.06 21.82v-2c0-.82.16-1.82.9-2.18.97-.46 1.41-.6 2.18-.9l24.7-5.63c1.26-.5 3.08.16 3.08 3.08v.3z" fill="#25283c"/></svg>