<svg enable-background="new 0 0 347 74" viewBox="0 0 347 74" xmlns="http://www.w3.org/2000/svg"><g fill="#d9c6aa"><path d="m132.63 40.83h11.92v11.99h-11.92z"/><path d="m115.71 40.83h11.92v11.99h-11.92z"/><path d="m87.5 28.73v8.04h16.13v-35.37h-16.13v8.26h-9.9v1.82h8.07l-8.07 6.64v18.65h.12z"/><path d="m123.57 35.49h4.85v1.28h16.13v-35.37h-16.13v1.44h-4.85v-1.44h-16.13v35.37h16.13zm0-30.83h4.85v4.99h-4.85zm0 6.82h4.85v4.99h-4.85zm0 6.81h4.85v15.38h-4.85z"/><path d="m78 40.83h-.4c-.35 1.9-.46 3.84-.34 5.81.48 7.7 4.58 14.78 11.54 19.94 1.15.85 2.14 1.63 3.25 2.34v-28.09h-13.66z"/><path d="m143.91 56.05h-15.49v5.89 3.56c-4.31 1.9-9.18 3.07-14.37 3.29-.57.02-1.12.04-1.66.05v-4.84-.43-1.64-21.1h-16.13v29.4c-.04.23.03.46 0 .69 5.29 2.52 9.77 3.09 15.98 3.09.61 0 1.23-.01 1.85-.04 14-.59 25.67-7.9 30.66-17.91h-.84c0-.01 0-.01 0-.01zm-15.49 12.95c-4.31 1.9-9.18 3.07-14.37 3.29-.57.02-1.12.04-1.66.05v-1.86c.57 0 1.14-.01 1.71-.04 5.17-.22 10.02-1.37 14.33-3.23v1.79z"/><path d="m.31 19.68v3.46 10.61 3.46h16.38l-12.42 9.04-3.96 2.87v3.46 10.55 3.46h27.1v-1.52h-25.03l1.9-1.38h23.13v-.56-.96-.56h-20.26l1.9-1.38h18.36v-1.52h-16.27l12.31-8.95 3.96-2.87v-3.46-10.53-.1-3.36-.1h-16.36l12.39-9.01 3.96-2.87v-3.46-10.54-3.46l-23.13 16.81zm18.47 16.02h-16.49l1.98-1.43v.05h16.41zm-9.82-4.84h16.49l-2 1.45v-.07h-16.39z"/><path d="m52.79 8.52h-13.79v1.73h13.79v51.79.59 3.6.5c-.64.06-1.28.09-1.94.09-.74 0-1.47-.05-2.19-.12v-.47-3.6-.59-17.48h-17.04v10.45c.03 8.37 6.66 15.33 15.44 16.91.01 0 .02 0 .03.01.2.04.41.07.61.1.14.02.29.04.43.06h.03.01c.87.11 1.77.17 2.67.17.65 0 1.3-.03 1.94-.09 8.7-.78 15.69-6.8 17.05-14.5v-49.15h-4.98zm0 60.07v1.76c-.64.06-1.28.1-1.94.1-.74 0-1.47-.05-2.19-.12v-1.77c.72.08 1.45.13 2.19.13.66-.02 1.3-.05 1.94-.1z"/><path d="m282.19 48.47-18.85-8.59 16.84-5.77v-20.39h-19.52v-7.31h-21.4v7.31h-20.53v5.43h39.31v16.57l-40.72 13.75v6.24l21.54-7.38-.07 20.66h21.4l-.07-24.35 2.22 1.09v23.26h1.79v-22.38l18.13 8.9z"/><path d="m151.8 18.15h31.46v5.37h-31.46z"/><path d="m151.8 7.41h31.46v5.37h-31.46z"/><path d="m151.93 62.02v5.97h26.9l.81-.75 32.53-30.18.07-27.43-55.55 52.32z"/><path d="m184.7 67.99 27.49-25.5v-2.44l-30.12 27.94z"/><path d="m285.04 12.91h39.04l-9.45 18.32h-19.93l18.18 36.76h22.61l-16.17-31.26h3l16.43 31.26h2.01l-16.42-31.26h9.74l12.61-24.69v-4.63h-61.65z"/></g></svg>