<svg enable-background="new 0 0 442 74" viewBox="0 0 442 74" xmlns="http://www.w3.org/2000/svg"><path d="m361.09 21.17-1.94 10.04-.73.27-2.5-6.87c-.06-.17-.09-.34-.09-.5 0 .17.03.34.09.5l2.5 6.87.73-.27z" fill="#d9c6aa"/><g fill="#d5c1a3"><path d="m144.68 40.83h-11.93v11.99h11.93z"/><path d="m127.77 40.83h-11.93v11.99h11.93z"/><path d="m103.76 1.4h-16.13v8.25h-9.9v1.83h8.07l-8.07 6.64v18.65h.12l9.78-8.04v8.04h16.13z"/><path d="m123.7 18.29h4.85v15.38h-4.85zm0-6.81h4.85v4.99h-4.85zm0-6.82h4.85v4.99h-4.85zm20.98-3.26h-16.13v1.44h-4.85v-1.44h-16.13v35.37h16.13v-1.28h4.85v1.28h16.13z"/><path d="m92.17 40.83h-13.65-.39-.4c-.26 1.43-.39 2.88-.39 4.34 0 .49.02.98.05 1.47.48 7.7 4.58 14.77 11.54 19.94 1.15.85 2.14 1.63 3.25 2.34v-28.09"/><path d="m112.52 70.48c.57 0 1.14-.01 1.71-.04 5.17-.22 10.01-1.37 14.33-3.23v1.79c-4.31 1.9-9.18 3.06-14.37 3.29-.57.02-1.12.04-1.66.05v-1.86zm0-29.65h-16.13v29.4c-.01.05-.01.1-.01.15 0 .14.02.27.02.41 0 .04 0 .09-.01.13 5.29 2.52 9.77 3.09 15.98 3.09.62 0 1.23-.01 1.85-.04 14-.59 25.67-7.9 30.66-17.92h-.84-15.49v5.89 3.56c-4.31 1.9-9.18 3.06-14.37 3.29-.57.02-1.12.04-1.66.05v-4.84-.43-1.64z"/><path d="m2.42 35.7 1.98-1.43v.05h16.4l-1.9 1.38zm4.77-3.46 1.9-1.38h16.49l-2 1.45v-.07zm20.34-32.24-23.13 16.81-3.96 2.87v3.46 10.61 3.46h16.37l-12.41 9.04-3.96 2.87v3.46 10.55 3.46h27.1v-1.52h-25.03l1.9-1.38h23.13v-.56-.96-.56h-20.26l1.9-1.38h18.36v-1.52h-16.27l12.31-8.95 3.96-2.87v-3.46-10.53-.1-3.36-.1h-16.36l12.39-9.01 3.96-2.87v-3.46-10.54z"/><path d="m48.8 68.54c.72.08 1.45.13 2.19.13.65 0 1.3-.03 1.94-.09v1.76c-.64.06-1.28.1-1.94.1-.74 0-1.47-.05-2.19-.12zm21.17-60.02h-4.98-12.07-13.79v1.73h13.79v51.79.59 3.6.5c-.64.06-1.28.09-1.94.09-.74 0-1.47-.04-2.19-.12v-.47-3.6-.59-17.48h-17.04v10.45c.03 8.37 6.66 15.33 15.44 16.91h.03c.2.04.4.07.61.1.15.02.29.04.43.06h.03.01c.87.11 1.77.17 2.67.17.65 0 1.3-.03 1.94-.09 8.7-.78 15.69-6.79 17.05-14.49v-49.15"/><path d="m260.79 6.41h-21.4v7.31h-20.53v5.43h39.31v16.57l-40.72 13.75v6.24l21.54-7.38-.07 20.66h21.4l-.07-24.35 2.22 1.09v23.26h1.79v-22.38l18.13 8.9-.07-7.04-18.85-8.59 16.84-5.77v-20.39h-19.52z"/><path d="m183.39 18.15h-31.46v5.36h31.46z"/><path d="m183.39 7.41h-31.46v5.37h31.46z"/><path d="m212.37 9.63-55.55 52.32-4.76.07v5.97h26.9l.81-.75 32.53-30.18z"/><path d="m212.32 40.05-30.12 27.94h2.63l27.49-25.5z"/><path d="m346.82 7.41h-61.65v5.5h39.04l-9.45 18.32h-19.93l18.18 36.76h22.61l-16.17-31.26h3.01l16.41 31.26h2.02l-16.42-31.26h9.74l12.61-24.69z"/><path d="m394.07 9.17-6.41 2.33-1.95 10.05 6.41-2.34z"/><path d="m412.25 2.65c-.17 0-.33.03-.5.09l-2.11.77-1.94 10.04 6.41-2.33.79-4.1-1.28-3.51c-.21-.6-.77-.96-1.37-.96"/><path d="m383.08 13.17-6.41 2.33-1.95 10.05 6.41-2.34z"/><path d="m405.06 5.17-6.41 2.33-1.94 10.04 6.4-2.33z"/><path d="m418.89 20.82-3.65.64-3.66 9.55-4.8.85 3.66-9.55-6.72 1.18-3.66 9.55-4.8.85 3.66-9.55-6.72 1.19-3.66 9.55-4.8.85 3.66-9.55-6.72 1.18-3.66 9.55-4.8.85 3.66-9.55-6.72 1.18-3.66 9.55-4.8.85 3.66-9.55-5.95 1.05 5.84 33.12c.63 3.54 3.72 6.04 7.2 6.04.42 0 .84-.04 1.27-.11l46.08-8.13c3.54-.62 6.03-3.7 6.04-7.17 0-.43-.04-.86-.11-1.29l-4.32-24.48-2.11.37 1.49-3.9z"/><path d="m361.09 21.17-4.3 1.57c-.59.22-.96.78-.96 1.37 0 .17.03.34.09.5l2.5 6.87.73-.27z"/><path d="m372.09 17.17-6.41 2.33-1.95 10.05 6.41-2.34z"/><path d="m431.78 2.87c-1.99 3.88-3.61 5.5-7.49 7.49 3.88 1.99 5.5 3.61 7.49 7.49 1.99-3.88 3.61-5.5 7.49-7.49-3.88-1.99-5.5-3.61-7.49-7.49"/><path d="m438.65 17.29c-.78 1.51-1.4 2.14-2.91 2.91 1.51.77 2.14 1.4 2.91 2.91.77-1.51 1.4-2.14 2.91-2.91-1.51-.77-2.13-1.4-2.91-2.91"/></g></svg>