<svg enable-background="new 0 0 384 80" viewBox="0 0 384 80" xmlns="http://www.w3.org/2000/svg"><g fill="#d9c6aa"><path d="m33.37 26.23c2.99.09 5.65.61 8.16 1.56 8.67 3.3 13.43 11.73 12.02 22.93-2.41 18.77-17.78 30.49-34.4 28.58 16.07-5.56 23.75-17.37 25.05-27.97 1.09-8.95-3.11-15.03-12.71-15.81-2.31 7.56-7.92 15.03-12.48 18.33l2.98-16.42c-4.25 2-7.57 5.21-9.76 8.86-3.57 5.99-4.05 12.86-1.61 17.89l21.57-19.72 1.01-5.3 8.82 11.2-4.8.52-29.22 26.77c-1.47-.87-6.11-6.78-7.42-13.12-1.55-7.3.11-15.37 4.31-22.15 4.24-7.04 11.1-12.77 18.97-15.11l1.01-5.73h-14.12l-3.78 3.47 2.85-16.15 2.55 3.47h14.12l1.16-6.6-2.55-3.47h15.66l-3.78 3.47-1.16 6.6h17.93l3.77-2.95-2.76 15.64-2.63-3.47h-17.93z"/><path d="m98.47 50.99c-3.33 14.77-1.17 21.8 4.86 29.01-10.17.17-19.33-9.99-15.33-29.01l-2.37-3.13h16.23zm34.43-13.03h-7.14c.13 1.13.17 2.26.15 3.3 0 0-.27 11.2-6.61 19.54l-3.76-22.84h-25.64l-3.47 3.13 2.73-15.46 2.37 3.13h22.48l-1.15-7.3h-20.14l-3.47 3.13 2.74-15.55 2.37 3.13h16.96l-1.01-5.3-3.41-1.39 15.33-5.48-2.04 3.3 1.52 8.86h15.74l3.47-3.13-2.74 15.55-2.37-3.13h-12.58l1.15 7.3h10.14l3.47-3.13-2.73 15.46z"/><path d="m215.54 42.39h-5.44c-4.83 26.93-16.69 36.22-27.7 37.44 11.33-8.08 15.78-23.71 18.29-37.44h-11.44l-4.43 25.1h-15.74c-13.87-10.16-3.98-29.45 12.29-33.79l2.8-15.9h-10.47l-3.47 3.13 2.88-16.33 2.37 3.13h19.88l-4.41 25.02h11.44l2.82-15.98-2.29-3.13h15.17l-3.47 3.13-2.82 15.98h5.44l3.47-3.13-2.8 15.9zm-35.96 1.47c-6.69 2.52-10.04 9.99-6.12 13.98h3.65z"/><path d="m264.24 75.48-3.47 3.13 2.9-16.42 2.37 3.13h8.28l5.9-33.44h-9.17c-6.04 23.19-16.55 40.48-35.08 48.03 11.78-12.51 20.29-28.58 25.1-48.03h-10.3l-3.5 3.12 2.86-16.24 2.37 3.13h11.2c2.57-11.81 2.34-11.9 2.99-14.68l-2.37-3.13h15.82l-3.47 3.13c-.1 1.04-1.33 7.56-2.91 14.68l17.43.09-9.43 53.51h-17.52zm39.17-64.8s1.6 14.42 1.61 15.72c.94 7.99-1.92 16.42-7.11 21.89l-4.06-34.48-3.43-1.74 15.51-5.12z"/><path d="m347.41 37.78c-5.81 18.24-13.48 33.18-28.02 40.65 16.06-22.5 20.9-49.94 24.82-72.18l-2.37-3.13h15.74l-3.47 3.13c-1.24 7.04-2.5 14.16-4.08 21.28-.73 3.22-1.46 6.43-2.62 10.25zm33.05 5.82-5.59 31.7h-27.67l1.3-7.38c3.79-21.02 6.36-29.62 1.97-36.48 14.07 3.04 11.33 18.59 8.49 34.22h8.28l3.89-22.06-2.7-3.13h15.5z"/></g></svg>