<svg enable-background="new 0 0 418 80" viewBox="0 0 418 80" xmlns="http://www.w3.org/2000/svg"><g fill="#d9c6aa"><path d="m134.02 19.8c-2.59 5.72-4.61 12.73-6.08 21.03-1.46 8.3-1.89 15.37-1.29 21.21.61 5.84 2.52 10.89 5.73 15.14l-2.3 1.82c-4.36-3.95-7.44-9.29-9.24-16.01s-1.99-14.12-.56-22.21 4.22-15.48 8.39-22.17 9.12-11.98 14.86-15.87l1.35 2.1c-4.65 4.25-8.27 9.24-10.86 14.96z"/><path d="m178.53 35.12c-1.05 5.97-2.26 12.37-2.52 17.92-.77 14.25 2.72 19.2 5.94 22.1-8.65 0-15.73-6.14-15.94-20.3-.07-6.83 1.35-13.05 2.52-19.71l3.61-20.48-2.31-3.07h15.63l-3.32 3.07zm23.99 25.43 3.4-3.07 2.36-13.39c3.13-17.74 2.15-24.31-2.85-30.2 9.57 1.54 16.26 10.84 12.84 30.2l-2.36 13.39 2.55 3.07z"/><path d="m292.8 23.27h-25.78l-2.43 14.25c11.18-1.79 17.51.6 20.03 2.9 5.26 4.35 5.23 12.2 2.16 19.71-5.88 14.41-22.78 18.93-35.97 16.37 8.94-2.56 21.39-6.57 26.06-17.32 3.32-7.59 2.5-18.68-24.47-8.79l4.7-27.13h-8.49l-3.4 3.07 2.74-15.53 2.31 3.07h8.49l1.73-9.81-2.31-3.06h15.55l-3.32 3.07-1.73 9.81h25.78l3.48-3.07-2.74 15.53z"/><path d="m368.45 41.44h-5.32c-4.74 26.45-16.35 35.58-27.11 36.77 11.08-7.93 15.45-23.29 17.91-36.77h-11.19l-4.35 24.66h-15.39c-13.55-9.98-3.87-28.92 12.04-33.19l2.75-15.61h-10.23l-3.4 3.07 2.84-16.04 2.31 3.07h19.44l-4.33 24.57h11.19l2.77-15.7-2.24-3.07h14.83l-3.4 3.07-2.77 15.7h5.32l3.4-3.07-2.75 15.61zm-35.16 1.45c-6.54 2.47-9.82 9.81-5.99 13.74h3.57z"/><path d="m416.09 18.61c1.81 6.69 2 14.08.57 22.17s-4.23 15.49-8.4 22.21-9.13 12.06-14.88 16.01l-1.66-1.82c4.71-4.26 8.4-9.3 11.07-15.14s4.73-12.91 6.2-21.21c1.46-8.3 1.91-15.31 1.34-21.03s-2.44-10.7-5.59-14.96l2.09-2.1c4.37 3.89 7.46 9.18 9.26 15.87z"/><path d="m77.75 19.7c1.31-6.77-2.29-9.89-6.92-10.03-4.52-.14-7.73 2.74-10.08 4.53l-3.51 6.55-1.69-13c8.83-3.18 15.86-4.78 21.1-4.78s8.28.89 11.14 3.64c3.08 2.97 3.52 5.79 2.4 11.71-.9 4.73-2.49 7.32-6.25 10.92-3.42 3.26-5.85 5.3-10.12 6.57 5.02 0 8.23 1.95 10.79 5.56 2.1 2.96 4.38 9.01 2.84 15.06-1.67 6.61-4.43 11.06-9.12 14.24-5.86 3.97-11.6 5.75-18.03 5.75-6.42 0-13.6-.72-20.5-4.15l6.5-15.67s1.07 8.74 1.12 9.11c2.2 1.19 7.8 2.77 11.03 2.77s7.51-1.1 10.54-3.19c1.92-1.32 4.24-5.29 5.02-9.27 1.14-5.89-.16-9.73-2.73-11.76s-6.59-3.05-12.06-3.05l1.25-5.26c3.66-.88 7.27-2.81 10.81-5.79 3.54-3 5.7-6.48 6.47-10.46z"/><path d="m27.86 3.7-21.56 8.21c8.34.95 8.71 4.41 8.71 4.41l-9.8 53.91-5.21 3.94h20.1l-3.72-4.04z"/></g></svg>