<svg enable-background="new 0 0 24 153.47" viewBox="0 0 24 153.47" xmlns="http://www.w3.org/2000/svg"><g fill="#d9c6aa"><path d="m6.32 15.3c-.03.35-.7 1.64-1.37 2.63-.51.77-.66.9-.97.93-.39.03-.71-.25-.68-.64.02-.19.06-.27.33-.63.42-.58.9-1.36 1.44-2.36.16-.31.38-.49.62-.51.37-.03.66.24.63.58zm3.16-2.35c-.06.76-.49 1.19-1.25 1.25l-2.75.24c-.74.06-1.08-.29-1.02-1.05l.79-9.3c.07-.8.46-1.2 1.23-1.27l2.73-.24c.77-.07 1.12.27 1.05 1.05zm-3.59-2.08-.16 1.86c-.02.23.11.36.33.34l1.82-.16c.24-.02.39-.17.41-.42l.16-1.84zm2.85-3.57-2.56.22-.18 2.11 2.56-.22zm.25-3.03c.02-.23-.08-.33-.33-.3l-1.84.16c-.24.02-.37.14-.39.38l-.15 1.76 2.56-.22zm-.02 11.48c.45.91.69 1.54.67 1.77-.03.35-.38.68-.76.72-.33.03-.45-.08-.63-.58-.17-.44-.59-1.44-.84-1.93-.12-.22-.14-.34-.13-.52.03-.34.33-.63.7-.66.35-.03.44.07.99 1.2zm2.62 1.91c-.03.35-.32.61-.72.64s-.63-.17-.6-.53l.21-2.53-.51.05c-.31.03-.51-.2-.48-.56.03-.35.27-.62.58-.65l.52-.05.27-3.22c.07-.87.52-1.33 1.4-1.41l2.33-.2.08-.97-4.08.37c-.28.02-.48-.22-.45-.56s.24-.57.55-.61l2.11-.18.09-1.06-1.65.14c-.28.02-.46-.19-.43-.52.03-.34.24-.57.53-.61l1.65-.14.08-.97-1.89.17c-.26.02-.44-.21-.42-.54.03-.34.24-.58.51-.62l1.89-.17.08-.94c.03-.35.34-.63.74-.66.38-.03.63.19.6.54l-.08.92 2.59-.23.08-.92c.03-.35.35-.65.72-.68.38-.03.65.21.62.56l-.08.92 1.86-.16c.26-.02.43.21.4.55s-.24.6-.5.62l-1.85.16-.08.97 1.63-.14c.26-.02.42.21.4.53-.03.32-.24.58-.49.61l-1.63.14-.09 1.06 2.01-.18c.28-.02.46.21.43.52-.03.34-.27.62-.53.64l-3.99.36-.09.98 2.37-.21c.86-.08 1.27.33 1.19 1.2l-.27 3.2.52-.05c.27-.02.46.22.43.56s-.26.62-.53.64l-.51.05-.11 1.31c-.11 1.29-.58 1.69-2.27 1.83-1.58.14-2.05 0-1.99-.6.04-.46.32-.75.77-.79.07-.01.09-.01.24 0 .22.03 1.02.02 1.3-.01.48-.04.63-.2.67-.66l.08-.97-5.98.52zm2.75-5.12-2.34.2-.1 1.19 2.34-.2zm.19-2.2-1.91.17c-.29.03-.44.18-.47.46l-.06.67 2.34-.2zm-.3-4.28-.09 1.06 2.59-.23.09-1.06zm.18-2.1-.08.97 2.59-.23.08-.97zm3.47 9.45.1-1.19-2.39.21-.1 1.19zm.2-2.29.06-.67c.02-.28-.12-.41-.41-.39l-1.94.17-.09 1.1z"/><path d="m3.92 19.11c-.24 0-.46-.09-.62-.25-.18-.17-.26-.41-.24-.67.02-.28.11-.4.38-.76.41-.56.88-1.33 1.42-2.33.09-.17.2-.31.32-.42-.28-.02-.51-.12-.67-.28-.23-.23-.33-.58-.29-1.04l.79-9.3c.08-.91.57-1.42 1.46-1.5l2.73-.23c.46-.04.81.05 1.04.28.21.21.31.53.29.94.08-.39.35-.68.71-.73l1.69-.15.07-.72c.04-.47.45-.84.97-.89.26-.02.51.05.67.21.15.15.22.36.2.6l-.05.64 2.09-.18.06-.71c.04-.47.45-.86.95-.91.26-.02.51.06.68.22.16.16.23.37.21.61l-.05.63 1.56-.14c.17-.02.34.04.47.17.15.15.22.38.2.65-.06.46-.36.82-.74.85l-1.64.14-.04.47 1.34-.12c.17-.02.34.04.47.17.15.15.22.38.2.63-.04.45-.34.8-.72.83l-1.42.12-.05.56 1.71-.15c.2-.02.37.05.5.18.15.15.22.37.2.62-.05.46-.38.84-.77.87l-3.77.33-.04.47 2.07-.18c.5-.04.89.06 1.14.32.26.25.36.64.32 1.15l-.25 2.91.23-.02c.19-.02.36.05.49.18.16.16.23.39.21.65-.04.46-.37.84-.76.87l-.3.03-.09 1.1c-.12 1.42-.7 1.9-2.5 2.06-1.24.11-1.79.05-2.07-.24-.15-.15-.22-.36-.19-.63.05-.58.43-.97.99-1.02.07-.01.09-.01.27 0 .21.03.99.02 1.27-.01.35-.03.41-.09.44-.43l.06-.68-5.47.48-.2 2.32c-.04.47-.43.83-.95.87-.36.03-.57-.1-.68-.21-.15-.15-.22-.35-.2-.59l.19-2.24-.22.02c-.21.02-.41-.05-.55-.19-.15-.15-.23-.38-.2-.64.04-.47.38-.84.81-.88l.31-.03.26-3.01c.08-1 .63-1.55 1.63-1.63l2.12-.19.04-.47-3.79.33c-.19.02-.37-.05-.5-.18l-.37 4.31c-.07.81-.52 1.32-1.28 1.45.22.17.41.54.75 1.22.73 1.47.7 1.8.69 1.9-.04.48-.48.9-.99.94s-.7-.23-.89-.74c-.17-.45-.59-1.44-.83-1.9-.13-.24-.17-.41-.15-.65.02-.27.17-.51.38-.67l-1.16.1c.03.02.06.05.09.08.16.16.24.39.22.62-.04.44-.77 1.8-1.41 2.75-.49.74-.7 1-1.15 1.04-.04.02-.07.02-.1.02zm1.84-4.14c-.01 0-.02 0-.04 0-.15.01-.3.15-.42.38-.56 1.03-1.04 1.81-1.46 2.39-.27.35-.27.38-.28.5-.01.14.04.22.09.27.08.08.18.11.31.1.18-.02.27-.05.78-.82.67-1 1.3-2.24 1.33-2.52.01-.08-.02-.16-.08-.22-.06-.05-.14-.08-.23-.08zm4.72.03c.07 0 .13.03.18.07.05.05.08.12.07.2l-.21 2.53c-.01.09.01.15.05.19.05.05.15.08.28.06.28-.02.47-.19.49-.41l.22-2.53c.01-.12.11-.22.23-.23l5.98-.52c.07-.01.15.02.2.07s.08.12.07.2l-.08.97c-.05.58-.3.83-.9.88-.25.02-1.09.05-1.36.01-.1 0-.12 0-.18.01-.41.04-.52.32-.54.56-.01.17.03.22.05.24.22.22 1.28.13 1.67.09 1.66-.15 1.95-.51 2.04-1.61l.11-1.31c.01-.12.11-.22.23-.23l.51-.05c.15-.01.29-.2.3-.42.01-.13-.03-.22-.07-.26-.02-.02-.05-.03-.09-.03l-.52.05c-.07.01-.15-.02-.2-.07s-.08-.12-.07-.2l.27-3.2c.03-.35-.03-.61-.18-.75s-.39-.2-.75-.17l-2.37.21c-.07.01-.15-.02-.2-.07s-.08-.12-.07-.2l.08-.97c.01-.12.11-.22.23-.23l3.98-.35c.12-.01.29-.2.3-.42.01-.1-.01-.18-.06-.22-.03-.03-.05-.04-.11-.03l-2.01.18c-.07.01-.15-.02-.2-.07s-.08-.12-.07-.2l.09-1.06c.01-.12.11-.22.23-.23l1.63-.14c.13-.01.25-.18.27-.38.01-.12-.02-.2-.06-.23-.01-.01-.03-.03-.07-.02l-1.63.14c-.07.01-.15-.02-.2-.07s-.08-.12-.07-.2l.08-.97c.01-.12.11-.22.23-.23l1.85-.16c.12-.01.25-.16.27-.4.01-.13-.02-.22-.06-.25-.01-.01-.03-.03-.07-.02l-1.86.16c-.08.01-.15-.02-.2-.07s-.08-.12-.07-.2l.08-.92c0-.06 0-.15-.07-.21-.06-.06-.16-.09-.28-.08-.26.02-.48.22-.5.45l-.08.92c-.01.12-.11.22-.23.23l-2.59.23c-.08.01-.15-.02-.2-.07s-.08-.12-.07-.2l.08-.94c.01-.09-.01-.16-.06-.2 0-.08-.09-.11-.22-.1-.28.02-.49.21-.51.44l-.08.94c-.01.12-.11.22-.23.23l-1.88.16c-.15.02-.27.18-.29.4-.01.11.01.2.06.24.02.02.04.03.08.03l1.89-.17c.07-.01.15.02.2.07s.08.12.07.2l-.08.97c-.01.13-.1.23-.23.24l-1.65.14c-.17.03-.28.16-.3.38-.01.1.01.18.05.22.01.01.02.04.11.03l1.65-.14c.07-.01.15.02.2.07s.08.12.07.2l-.09 1.06c-.01.12-.11.22-.23.23l-2.11.18c-.25.04-.31.26-.32.38-.01.1.02.2.07.25.03.03.06.04.11.04l4.09-.36c.07-.01.15.02.2.07s.08.12.07.2l-.08.97c-.01.12-.11.22-.23.23l-2.33.2c-.75.07-1.11.43-1.17 1.18l-.27 3.22c-.01.12-.11.22-.23.23l-.52.05c-.19.02-.34.19-.36.42-.01.11.01.2.06.24.04.03.09.05.15.04l.52-.03zm-2.42-.2c-.02 0-.03 0-.05 0-.25.02-.46.21-.48.43-.01.12 0 .19.1.38.25.49.68 1.49.86 1.96.16.44.21.43.38.42.26-.02.51-.26.53-.49.01-.11-.12-.57-.64-1.64-.48-.96-.57-1.06-.7-1.06zm1.35-11.98c-.05 0-.1 0-.16.01l-2.74.24c-.65.06-.95.37-1 1.04l-.79 9.3c-.03.31.02.53.14.65s.32.16.6.14l2.75-.24c.63-.06.97-.39 1.02-1.02l.79-9.31c.03-.33-.02-.54-.13-.66-.1-.1-.26-.15-.48-.15zm1.1.98-.3 3.57c.12-.1.27-.17.44-.19l1.92-.17.05-.56-1.35.12c-.2.02-.38-.04-.51-.18-.15-.15-.22-.37-.2-.62.04-.45.33-.77.74-.83l1.45-.13.04-.47-1.59.15c-.18.02-.35-.05-.48-.17-.13-.13-.2-.31-.21-.52zm1.4 10.38c-.07 0-.13-.03-.18-.07-.05-.05-.08-.12-.07-.2l.1-1.19c.01-.12.11-.22.23-.23l2.34-.2c.07-.01.15.02.2.07s.08.12.07.2l-.1 1.19c-.01.12-.11.22-.23.23l-2.34.2c-.01 0-.02 0-.02 0zm.33-1.21-.06.68 1.83-.16.06-.68zm3.26.89c-.07 0-.13-.03-.18-.07-.05-.05-.08-.12-.07-.2l.1-1.19c.01-.12.11-.22.23-.23l2.39-.21c.08-.01.15.02.2.07s.08.12.07.2l-.1 1.19c-.01.12-.11.22-.23.23l-2.39.21c-.01 0-.02 0-.02 0zm.33-1.2-.06.68 1.88-.16.06-.68zm-9.81.66c-.19 0-.32-.08-.39-.15-.08-.08-.17-.22-.15-.47l.16-1.86c.01-.12.11-.22.23-.23l2.56-.22c.07-.01.15.02.2.07s.08.12.07.2l-.16 1.84c-.03.37-.27.62-.64.65l-1.82.16c-.02.01-.04.01-.06.01zm.1-2.22-.14 1.65c0 .05.01.07.01.07l1.87-.16c.12-.01.17-.07.18-.19l.13-1.55zm5.98.79c-.07 0-.13-.03-.18-.07-.05-.05-.08-.12-.07-.2l.06-.67c.04-.41.28-.65.69-.69l1.91-.17c.07-.01.15.02.2.07s.08.12.07.2l-.09 1.1c-.01.12-.11.22-.23.23l-2.34.2c-.01 0-.01 0-.02 0zm2.15-1.27-1.61.14c-.17.01-.22.07-.24.24l-.03.38 1.83-.16zm1.44.96c-.07 0-.13-.03-.18-.07-.05-.05-.08-.12-.07-.2l.09-1.1c.01-.12.11-.22.23-.23l1.94-.17c.22-.02.4.03.53.15.12.12.17.29.15.5l-.06.67c-.01.12-.11.22-.23.23l-2.39.21c0 .01 0 .01-.01.01zm.32-1.12-.05.59 1.88-.16.04-.46c.01-.08-.01-.11-.01-.11-.01 0-.05-.02-.13-.01zm-10.01-.58c-.07 0-.13-.03-.18-.07-.05-.05-.08-.12-.07-.2l.18-2.11c.01-.12.11-.22.23-.23l2.56-.22c.08-.01.15.02.2.07s.08.12.07.2l-.18 2.11c-.01.12-.11.22-.23.23l-2.56.22c-.01 0-.02 0-.02 0zm.41-2.13-.14 1.6 2.05-.18.14-1.6zm7.73-.37c-.07 0-.13-.03-.18-.07-.05-.05-.08-.12-.07-.2l.09-1.06c.01-.12.11-.22.23-.23l2.59-.23c.07-.01.15.02.2.07s.08.12.07.2l-.09 1.06c-.01.12-.11.22-.23.23l-2.59.23c-.01 0-.02 0-.02 0zm.32-1.09-.05.56 2.09-.18.05-.56zm-8.18.23c-.07 0-.13-.03-.18-.07-.05-.05-.08-.12-.07-.2l.15-1.75c.03-.37.25-.59.62-.62l1.84-.16c.2-.02.36.02.47.13.1.1.15.25.13.44l-.15 1.77c-.01.12-.1.22-.23.23l-2.56.23s-.01 0-.02 0zm2.46-2.31c-.01 0-.03 0-.06 0l-1.84.17c-.13.01-.15.04-.16.15l-.12 1.46 2.05-.18.13-1.56c0-.02.01-.03 0-.04zm5.58.97c-.07 0-.13-.03-.18-.07-.05-.05-.08-.12-.07-.2l.08-.97c.01-.12.11-.22.23-.23l2.59-.23c.07-.01.15.02.2.07s.08.12.07.2l-.08.97c-.01.12-.11.22-.23.23l-2.59.23s-.01 0-.02 0zm.32-.99-.04.47 2.09-.18.04-.48z"/><path d="m12.41 21.7c1-.09 1.34.23 1.26 1.24-.34 4.65 1.47 8.57 5.42 11.67.34.27.46.47.43.79-.04.5-.49.96-.96 1-.33.03-.51-.04-.97-.39-1.44-1.07-3.01-3.11-3.93-5.12-.53-1.15-.9-2.42-1.13-3.79-.83 2.92-2.01 5.17-3.81 7.31-1.48 1.75-3.37 3.34-4.02 3.39-.48.05-.86-.33-.82-.8.03-.41.11-.5.89-1.06 4.2-3.3 6.37-7.11 7.18-12.63l-4.14.36c-.4.03-.66-.28-.62-.74.04-.44.36-.8.75-.84z"/><path d="m4.63 38.06c-.27 0-.53-.1-.71-.29-.21-.2-.31-.49-.28-.79.04-.52.2-.68 1-1.24 4.07-3.2 6.19-6.85 7.03-12.15l-3.82.33c-.24.02-.48-.06-.64-.22-.21-.2-.29-.47-.27-.79.05-.56.47-1.02.98-1.07l4.46-.39c.6-.05.99.04 1.24.29s.34.64.29 1.23c-.34 4.56 1.46 8.41 5.33 11.45.34.27.56.55.52 1.01-.05.61-.59 1.17-1.18 1.23-.42.04-.67-.08-1.14-.44-1.46-1.08-3.08-3.18-4.01-5.22-.4-.86-.72-1.82-.96-2.86-.81 2.48-1.93 4.5-3.56 6.44-1.38 1.62-3.39 3.41-4.19 3.48-.03 0-.06 0-.09 0zm7.32-15.01c.07 0 .13.03.18.08.05.06.08.13.07.21-.82 5.61-3 9.43-7.27 12.79-.77.55-.77.59-.8.89-.01.15.04.3.14.4s.25.15.41.14c.53-.05 2.32-1.5 3.85-3.3 1.79-2.13 2.95-4.35 3.76-7.22.03-.11.17-.19.25-.18.12.01.21.09.23.21.23 1.37.6 2.63 1.11 3.72.9 1.97 2.45 3.99 3.85 5.03.46.34.57.36.8.34.35-.03.7-.4.73-.77.02-.2-.03-.33-.33-.57-4.01-3.15-5.86-7.14-5.51-11.88.04-.43-.01-.7-.15-.83-.13-.13-.4-.18-.84-.14l-4.46.39c-.27.02-.5.29-.53.61-.01.17.02.31.1.39.06.06.13.09.24.08l4.14-.36c.02-.03.02-.03.03-.03z"/><path d="m16.89 48.24c.93-.08 1.34.32 1.26 1.26l-.42 4.9c-.08.96-.59 1.47-1.51 1.56l-7.66.67c-.94.08-1.37-.34-1.29-1.29l.37-4.3c-1.8 1.07-2.87 1.64-3.19 1.67-.38.03-.67-.31-.64-.72.02-.27.18-.51.41-.65.07-.04.07-.04.67-.32 2.1-1.01 4.65-2.55 6.78-4.13l-6.82.6c-.34.03-.58-.25-.54-.64.04-.41.32-.71.66-.74l6.03-.53.17-1.95-4.45.39c-.34.03-.56-.23-.52-.64.03-.41.3-.71.64-.74l4.45-.39.12-1.38c.03-.39.38-.7.83-.74.41-.04.71.24.68.61l-.12 1.38 3.21-.28c.28-.02.47.14.53.45.67-.81.99-1.23 1.38-1.81.23-.32.41-.44.69-.46.43-.04.76.27.73.66-.02.21-.1.36-.42.79-.98 1.3-2.09 2.54-3.3 3.72l4.31-.38c.34-.03.58.25.54.66-.03.39-.31.7-.66.73l-5.91.52c-.6.49-1.35 1.05-2.76 2.05zm-8.07 6.6c-.02.25.11.36.36.34l6.67-.58c.26-.02.39-.16.41-.4l.13-1.51-7.44.65zm7.68-3.51.12-1.36c.02-.23-.09-.33-.33-.3l-6.72.59c-.24.02-.37.14-.39.35l-.12 1.38zm-2.92-5.98c.78-.72 1.52-1.45 2.12-2.12l-3.02.26-.16 1.95z"/><path d="m8.34 56.89c-.43 0-.76-.11-.99-.34-.27-.27-.38-.68-.33-1.24l.32-3.82c-2.1 1.24-2.64 1.43-2.88 1.45-.23.04-.46-.05-.64-.22-.19-.19-.29-.47-.26-.75.03-.34.23-.66.53-.84.08-.05.08-.05.7-.34 1.89-.91 4.08-2.22 6-3.57l-5.92.52c-.21.02-.43-.05-.58-.2-.17-.17-.25-.42-.23-.7.04-.52.42-.93.89-.97l5.82-.51.12-1.44-4.15.36c-.22.02-.43-.05-.57-.2-.17-.18-.25-.43-.23-.72.04-.53.4-.93.87-.97l4.24-.37.1-1.17c.04-.51.49-.92 1.06-.97.28-.02.55.06.73.24.17.17.25.39.22.64l-.09 1.08 2.92-.26c.25-.02.46.06.6.23.51-.63.79-.99 1.12-1.48.24-.32.47-.54.88-.57.29-.03.56.07.76.26.18.18.26.41.24.67-.02.28-.14.48-.47.92-.83 1.1-1.78 2.19-2.83 3.26l3.62-.32c.22-.02.43.05.58.2.17.17.26.43.23.72-.04.51-.41.91-.88.95l-5.83.51c-.5.4-1.08.84-1.97 1.48l4.86-.42c.54-.05.94.06 1.2.32s.37.66.32 1.21l-.42 4.9c-.09 1.08-.69 1.69-1.74 1.78l-7.66.67c-.1.02-.18.02-.26.02zm-.7-6.1c.05 0 .09.01.13.04.08.05.12.14.12.23l-.37 4.3c-.03.4.03.68.19.84s.43.22.83.18l7.66-.67c.81-.07 1.21-.49 1.29-1.33l.42-4.9c.03-.39-.03-.66-.18-.82-.15-.15-.42-.21-.81-.18l-5.77.5c-.1.01-.22-.06-.26-.16-.04-.11 0-.22.09-.29 1.36-.96 2.13-1.53 2.75-2.04.04-.03.09-.05.14-.06l5.91-.52c.22-.02.41-.23.43-.5.01-.14-.02-.26-.09-.33-.05-.05-.11-.07-.18-.06l-4.31.38c-.1.01-.21-.05-.25-.14-.04-.1-.02-.21.05-.28 1.23-1.2 2.34-2.44 3.27-3.69.33-.43.36-.53.38-.66.01-.13-.05-.22-.1-.27-.09-.09-.21-.13-.36-.12-.18.02-.3.07-.51.36-.39.58-.73 1.01-1.39 1.82-.06.08-.16.11-.25.08-.09-.02-.17-.1-.18-.2-.05-.26-.19-.25-.26-.24l-3.21.28c-.07.01-.15-.02-.2-.07s-.08-.12-.07-.2l.12-1.38c.01-.1-.02-.18-.08-.24-.07-.07-.2-.11-.33-.1-.33.03-.58.24-.6.51l-.12 1.38c-.01.12-.11.22-.23.23l-4.45.39c-.22.02-.39.23-.41.51-.01.14.02.26.08.32.04.04.1.06.18.05l4.45-.39c.07-.01.15.02.2.07s.08.12.07.2l-.17 1.95c-.01.12-.11.22-.23.23l-6.03.53c-.23.02-.41.24-.43.52-.02.15.01.26.08.33.05.05.11.07.19.06l6.82-.6c.11-.01.22.06.25.16.04.1 0 .22-.08.29-2.11 1.55-4.66 3.11-6.83 4.15-.59.27-.59.27-.66.31-.16.1-.27.27-.29.46-.01.14.03.27.12.36.05.05.13.1.25.09.19-.02.87-.31 3.09-1.63.04-.03.08-.04.13-.04zm1.48 4.64c-.17 0-.31-.05-.41-.15-.08-.08-.16-.22-.14-.46l.13-1.5c.01-.12.11-.22.23-.23l7.44-.65c.07-.01.15.02.2.07s.08.12.07.2l-.13 1.51c-.03.37-.26.6-.64.63l-6.67.57c-.03 0-.06.01-.08.01zm-.05-.51h.09l6.67-.58c.13-.01.17-.05.18-.18l.1-1.21-6.93.61-.11 1.3c-.01.04 0 .06 0 .06zm-.01-2.69c-.07 0-.13-.03-.18-.07-.05-.05-.08-.12-.07-.2l.12-1.38c.03-.34.25-.55.62-.58l6.72-.59c.19-.02.36.03.47.14.11.1.15.25.13.44l-.12 1.36c-.01.12-.11.22-.23.23l-7.44.65c-.01 0-.01 0-.02 0zm7.27-2.32c-.01 0-.02 0-.03 0l-6.72.59c-.15.01-.16.06-.16.12l-.09 1.09 6.93-.61.1-1.15c.02-.03.01-.04-.03-.04zm-3.82-4.22c-.07 0-.13-.03-.18-.07-.05-.05-.08-.12-.07-.2l.16-1.95c.01-.12.11-.22.23-.23l3.02-.26c.09-.01.2.05.25.14s.03.2-.04.28c-.57.63-1.29 1.35-2.14 2.14-.04.04-.09.06-.15.07l-1.06.09c0-.01-.01-.01-.02-.01zm.4-1.96-.12 1.44.68-.06c.61-.56 1.14-1.09 1.61-1.57z"/><path d="m7.61 63.67.27-3.19c.03-.37.35-.68.76-.72s.7.22.67.59l-.27 3.19 1.53-.13c.33-.03.54.23.51.62-.03.41-.3.71-.62.74l-1.53.13-.29 3.43c.54-.29.64-.35 1.15-.64.14-.08.27-.13.39-.14.34-.03.61.26.58.63-.04.44-.29.62-2.24 1.69l-.53 6.03c-.03.34-.34.61-.77.65s-.68-.17-.65-.52l.46-5.38c-1.65.81-2.29 1.1-2.53 1.12-.36.03-.61-.28-.57-.74.02-.25.16-.47.39-.61.09-.04.16-.08.55-.24.97-.42 1.54-.7 2.29-1.08l.34-4.05-1.25.11c-.56 2.61-.79 3.13-1.43 3.18-.36.03-.63-.23-.6-.56.01-.11.01-.11.12-.41.43-1.27.85-3.13 1.22-5.56.04-.42.3-.69.67-.73h.05c.39-.03.6.21.56.65-.03.39-.11.94-.31 2.05zm7.38-3.76c.03-.37.36-.66.79-.7.4-.03.68.22.65.58l-.14 1.63 3.25-.28c.33-.03.54.23.51.62-.03.37-.3.68-.62.7l-3.25.28-.18 2.09 3.88-.34c.33-.03.54.25.51.64-.03.37-.31.7-.62.72l-1.49.13-.17 1.98 1.39-.12c.33-.03.53.23.49.62-.04.41-.28.69-.61.72l-1.39.12-.39 4.64c-.11 1.26-.56 1.6-2.31 1.75-1.84.16-2.29.04-2.23-.63.04-.46.36-.77.8-.81.07-.01.12-.01.27.01.36.02.99 0 1.42-.04.46-.04.61-.19.65-.64l.35-4.16-5.56.49c-.34.03-.53-.22-.49-.62.04-.42.24-.67.61-.72l5.57-.49.17-1.98-6.01.53c-.33.03-.56-.25-.53-.62.03-.41.28-.69.64-.74l3.62-.32.18-2.09-3.04.27c-.33.03-.54-.22-.51-.62.03-.41.26-.66.62-.7l3.04-.27zm-2.31 10.66c.98 1.27 1.43 2.02 1.4 2.39-.03.39-.42.76-.8.79-.33.03-.42-.03-.68-.43-.72-1.13-.84-1.33-1.18-1.79-.12-.15-.16-.28-.15-.46.04-.41.41-.77.8-.81.25-.03.41.06.61.31z"/><path d="m7.12 76.8c-.32 0-.5-.12-.61-.22-.15-.15-.21-.35-.19-.58l.42-4.94c-1.45.71-1.97.93-2.23.95-.22.02-.43-.05-.59-.21-.19-.19-.28-.47-.25-.8s.21-.62.51-.81c.01 0 .05-.03.06-.03.08-.04.18-.09.53-.23.89-.38 1.44-.65 2.15-1.01l.31-3.62-.77.07c-.54 2.48-.8 3.13-1.61 3.2-.24.02-.49-.06-.65-.22s-.24-.38-.22-.61c.01-.14.02-.16.13-.48.43-1.28.84-3.13 1.21-5.51.04-.52.4-.89.9-.94.36-.03.56.09.67.19.12.12.25.34.21.73-.03.37-.1.88-.26 1.75l.55-.05.25-2.98c.04-.5.46-.9.99-.94.29-.03.54.06.72.23.16.16.24.38.22.63l-.24 2.89 1.23-.11c.21-.02.42.05.56.19.17.17.25.42.22.7-.04.52-.4.93-.85.97l-1.32.12-.25 2.77c.23-.13.39-.22.71-.41.2-.11.35-.17.51-.18.23-.02.45.06.61.22.17.17.26.42.24.69 0 .05-.01.09-.02.14.03-.01.06-.01.1-.02l5.37-.47.12-1.48-5.72.5c-.21.02-.42-.05-.57-.2-.17-.17-.25-.42-.23-.69.04-.52.38-.9.86-.97l3.43-.3.13-1.58-2.74.24c-.22.02-.42-.05-.56-.19-.17-.16-.24-.41-.22-.7.04-.52.36-.87.84-.93l2.84-.25.12-1.42c.04-.49.47-.88 1.02-.93.28-.02.53.06.7.23.16.16.24.38.22.61l-.11 1.33 2.95-.26c.21-.02.41.05.56.19.17.17.25.42.22.7-.04.49-.41.89-.85.93l-3.04.27-.13 1.58 3.58-.31c.21-.02.41.05.55.2.17.17.25.43.23.72-.04.49-.41.91-.85.95l-1.28.11-.13 1.48 1.1-.1c.21-.02.4.05.54.19.17.17.25.42.22.71-.05.53-.38.91-.83.95l-1.18.1-.38 4.43c-.13 1.52-.85 1.83-2.54 1.98-1.45.13-2.01.07-2.3-.22-.16-.16-.22-.38-.2-.68.05-.58.45-.99 1.03-1.04.09-.01.16-.01.33.01.34.02.97 0 1.36-.04.34-.03.4-.08.42-.41l.33-3.86-3.84.34c.19.07.33.21.45.36 1.07 1.38 1.49 2.12 1.45 2.56-.04.5-.52.97-1.03 1.02-.45.04-.62-.1-.91-.55l-.32-.5c-.45-.71-.57-.9-.85-1.28-.15-.18-.22-.38-.2-.63.03-.39.3-.75.64-.92l-.67.06c-.29.03-.46-.09-.55-.18-.11-.11-.24-.33-.21-.71 0-.04.01-.08.01-.12-.34.22-.82.49-1.52.87l-.5 5.89c-.04.47-.45.83-1 .88-.03-.01-.08-.01-.11-.01zm-.1-6.41c.05 0 .1.01.14.04.08.05.12.14.11.23l-.46 5.38c-.01.08.01.14.05.18.06.06.18.09.33.07.3-.03.53-.2.54-.42l.51-6.02c.01-.08.06-.16.13-.2 1.91-1.05 2.09-1.2 2.11-1.49.01-.11-.02-.22-.09-.29-.04-.04-.1-.08-.21-.08-.08.01-.17.04-.28.11-.51.29-.62.36-1.15.65-.08.04-.18.04-.26-.01s-.12-.14-.11-.23l.29-3.43c.01-.12.11-.22.23-.23l1.53-.13c.21-.02.37-.23.4-.51.01-.13-.02-.24-.08-.3-.04-.04-.08-.06-.16-.05l-1.53.13c-.07.01-.15-.02-.2-.07s-.08-.12-.07-.2l.27-3.19c.01-.1-.02-.18-.07-.23-.08-.07-.19-.1-.33-.09-.29.03-.51.23-.53.49l-.27 3.19c-.01.12-.11.22-.23.23l-1.08.09c-.07.01-.15-.02-.21-.08-.05-.06-.08-.14-.06-.21.19-1.06.27-1.63.31-2.03.01-.16-.01-.28-.07-.33-.05-.05-.15-.06-.22-.05-.32.03-.47.2-.5.5-.38 2.42-.79 4.31-1.23 5.61-.1.28-.1.28-.11.36s.02.16.07.21c.06.06.16.09.26.08.45-.04.66-.44 1.21-2.99.02-.11.11-.19.22-.2l1.25-.11c.08-.01.15.02.2.07s.08.12.07.2l-.34 4.07c-.01.09-.06.16-.14.2-.78.4-1.35.67-2.3 1.09-.33.13-.42.18-.5.22-.18.11-.28.26-.29.43-.01.18.02.32.11.41.05.05.11.07.19.06.22-.02 1.1-.43 2.44-1.09.03-.03.07-.04.11-.04zm6.92 4.12c-.02 0-.04 0-.07 0-.33.03-.54.25-.57.58-.02.21.03.26.05.28.2.2 1.08.15 1.91.08 1.73-.15 2-.46 2.09-1.52l.39-4.64c.01-.12.11-.22.23-.23l1.39-.12c.21-.02.36-.21.38-.49.01-.14-.02-.25-.08-.31-.01-.01-.05-.05-.15-.04l-1.39.12c-.08.01-.15-.02-.2-.07s-.08-.12-.07-.2l.17-1.98c.01-.12.11-.22.23-.23l1.49-.13c.17-.01.37-.23.4-.49.01-.14-.02-.26-.08-.32-.04-.04-.08-.06-.15-.05l-3.88.34c-.07.01-.15-.02-.2-.07s-.08-.12-.07-.2l.18-2.09c.01-.12.11-.22.23-.23l3.25-.28c.2-.02.37-.23.4-.48.01-.13-.02-.24-.08-.3-.04-.04-.09-.06-.16-.05l-3.25.28c-.07.01-.15-.02-.2-.07s-.08-.12-.07-.2l.14-1.63c.01-.09-.02-.16-.07-.22-.07-.07-.18-.1-.31-.09-.31.03-.54.23-.56.47l-.14 1.63c-.01.12-.11.22-.23.23l-3.04.27c-.24.03-.37.19-.39.48-.01.14.01.25.07.3.04.04.1.05.17.05l3.04-.27c.07-.01.15.02.2.07s.08.12.07.2l-.18 2.09c-.01.12-.11.22-.23.23l-3.62.32c-.23.03-.39.22-.42.51-.01.12.02.23.08.29.04.04.09.07.17.06l6.01-.53c.07-.01.15.02.2.07s.08.12.07.2l-.17 1.98c-.01.12-.11.22-.23.23l-5.57.49c-.15.02-.34.1-.38.49-.01.15.01.26.06.32.03.03.08.04.16.04l5.56-.49c.08-.01.15.02.2.07s.08.12.07.2l-.35 4.16c-.05.57-.3.81-.88.86-.42.04-1.07.06-1.46.04-.08-.01-.12-.01-.16-.01zm-1.79-4.01c-.02 0-.03 0-.05 0-.28.02-.55.3-.58.58-.01.12.01.19.09.28.29.4.43.62.88 1.32l.32.5c.22.34.24.34.45.32.27-.02.55-.3.57-.56.02-.29-.43-1.03-1.35-2.21-.15-.19-.23-.23-.33-.23z"/><path d="m10.01 92.52c-.04.44-.35.7-2.17 1.82-1.53.94-2.95 1.66-3.4 1.7-.43.04-.76-.32-.72-.78.02-.25.16-.51.38-.65.07-.06.13-.08.46-.25 1.33-.63 3.18-1.68 4.16-2.38.18-.14.38-.21.55-.22.45-.04.78.3.74.76zm9.54-3.52c.33-.03.56.23.53.6-.03.39-.3.71-.64.74l-15.19 1.33c-.33.03-.53-.24-.49-.64s.24-.65.61-.7l1.15-.1.6-7.08c.08-.92.58-1.44 1.48-1.52l2.46-.21.14-1.66c.03-.35.34-.63.74-.66.41-.04.7.18.67.54l-.14 1.66 2.37-.21.14-1.66c.03-.35.34-.63.74-.66.41-.04.7.18.67.54l-.14 1.66 2.52-.22c.89-.08 1.32.36 1.24 1.28l-.6 7.08zm-9.96-2.17-2.37.21-.26 3.06 2.37-.21zm.34-4.11-1.94.17c-.29.03-.44.18-.47.46l-.2 2.41 2.37-.21zm3.43 3.78-2.36.2-.26 3.06 2.37-.21zm.35-4.11-2.37.21-.24 2.83 2.37-.21zm3.32 9.76c.46.21 1.89.85 2.05.95.26.15.39.39.37.69-.04.48-.47.92-.95.96-.24.02-.26.02-.73-.24-1.03-.51-2.12-.99-3.7-1.61-.46-.19-.61-.39-.58-.74.04-.46.4-.84.83-.88.33-.03 1.18.25 2.71.87zm.18-5.99-2.44.21-.26 3.06 2.44-.21zm.31-3.68c.02-.28-.12-.41-.39-.39l-2.01.18-.24 2.83 2.44-.21z"/><path d="m4.38 96.3c-.24 0-.46-.09-.63-.26-.2-.2-.3-.49-.28-.8.03-.34.22-.66.49-.84.06-.05.12-.08.33-.19l.15-.08c1.32-.62 3.17-1.68 4.12-2.36.2-.15.44-.25.67-.27.29-.02.55.07.74.26s.29.48.27.77c-.05.58-.45.88-2.28 2.02-1.25.77-2.92 1.69-3.51 1.74-.02.01-.05.01-.07.01zm4.96-4.29c-.02 0-.03 0-.05 0-.14.01-.29.07-.42.17-1 .72-2.84 1.77-4.2 2.41l-.15.07c-.2.1-.23.12-.26.14-.17.11-.27.3-.29.48-.01.16.03.3.13.4.06.06.15.13.32.11.33-.03 1.6-.62 3.29-1.67 1.78-1.1 2.02-1.33 2.05-1.63.01-.15-.03-.29-.12-.38-.08-.06-.18-.1-.3-.1zm9.02 2.99c-.21 0-.33-.06-.71-.27-1.14-.56-2.24-1.04-3.67-1.6-.4-.16-.79-.4-.74-.99.04-.53.43-.98.91-1.09l-9.87.86c-.2.02-.4-.05-.54-.19-.17-.17-.25-.43-.22-.73.04-.53.34-.87.82-.93l.95-.08.58-6.87c.09-1.04.69-1.66 1.7-1.75l2.25-.2.12-1.45c.04-.47.45-.85.97-.89.3-.03.56.06.74.23.15.15.22.35.2.58l-.12 1.37 1.87-.16.12-1.45c.04-.47.45-.84.97-.89.3-.03.56.06.74.23.15.15.22.35.2.58l-.12 1.37 2.23-.19c.51-.04.91.06 1.17.33.27.27.38.68.34 1.22l-.58 6.79.85-.07c.22-.02.43.05.58.2.17.17.25.4.22.67-.04.52-.41.93-.87.97l-5.04.44c.42.02 1.22.28 2.71.89h.01c.37.17 1.89.85 2.07.96.35.21.53.54.49.93-.05.6-.58 1.14-1.18 1.19-.05-.01-.1-.01-.15-.01zm-3.99-3.47c-.01 0-.03 0-.04 0-.31.03-.57.31-.6.65-.02.19.01.31.43.49 1.44.56 2.55 1.04 3.72 1.62.42.23.42.23.6.21.36-.03.69-.37.72-.73.02-.2-.06-.34-.25-.45-.14-.08-1.48-.69-2.02-.93-.91-.38-2.15-.86-2.56-.86zm-3.36-12.2c-.02 0-.04 0-.07 0-.28.02-.49.21-.51.44l-.14 1.66c-.01.12-.11.22-.23.23l-2.46.21c-.77.07-1.18.49-1.25 1.29l-.6 7.08c-.01.12-.11.22-.23.23l-1.15.1c-.14.02-.35.09-.38.48-.01.15.02.27.08.33.01.01.04.05.14.04l15.18-1.33c.21-.02.39-.24.42-.51.01-.12-.02-.22-.08-.28-.05-.05-.1-.06-.18-.06l-1.15.1c-.07.01-.15-.02-.2-.07s-.08-.12-.07-.2l.6-7.08c.03-.39-.03-.67-.19-.83-.15-.15-.41-.22-.78-.18l-2.52.22c-.08.01-.15-.02-.2-.07s-.08-.12-.07-.2l.14-1.66c.01-.08-.01-.14-.06-.18-.07-.07-.19-.1-.34-.09-.28.02-.49.21-.51.43l-.14 1.66c-.01.12-.11.22-.23.23l-2.37.21c-.07.01-.15-.02-.2-.07s-.08-.12-.07-.2l.14-1.66c.01-.08-.01-.14-.06-.18-.04-.06-.14-.09-.26-.09zm-4.05 11.02c-.07 0-.13-.03-.18-.07-.05-.05-.08-.12-.07-.2l.26-3.06c.01-.12.11-.22.23-.23l2.37-.21c.07-.01.15.02.2.07s.08.12.07.2l-.26 3.06c-.01.12-.11.22-.23.23l-2.37.21c-.01 0-.02 0-.02 0zm.49-3.08-.22 2.56 1.87-.16.22-2.56zm3.29 2.75c-.07 0-.13-.03-.18-.07-.05-.05-.08-.12-.07-.2l.26-3.06c.01-.12.11-.22.23-.23l2.37-.21c.07-.01.15.02.2.07s.08.12.07.2l-.26 3.06c-.01.12-.11.22-.23.23l-2.37.21c-.01 0-.02 0-.02 0zm.49-3.09-.22 2.56 1.86-.16.22-2.56zm3.28 2.76c-.07 0-.13-.03-.18-.07-.05-.05-.08-.12-.07-.2l.26-3.06c.01-.12.11-.22.23-.23l2.44-.21c.07-.01.15.02.2.07s.08.12.07.2l-.26 3.06c-.01.12-.11.22-.23.23l-2.44.21s-.01 0-.02 0zm.49-3.09-.22 2.56 1.93-.17.22-2.56zm-7.68-.59c-.07 0-.13-.03-.18-.07-.05-.05-.08-.12-.07-.2l.2-2.41c.04-.41.28-.65.69-.69l1.94-.17c.07-.01.15.02.2.07s.08.12.07.2l-.24 2.83c-.01.12-.11.22-.23.23l-2.37.21c.01 0 0 0-.01 0zm2.34-3.02-1.64.14c-.17.01-.22.07-.24.23l-.18 2.13 1.86-.16zm1.44 2.69c-.07 0-.13-.03-.18-.07-.05-.05-.08-.12-.07-.2l.24-2.83c.01-.12.11-.22.23-.23l2.37-.21c.07-.01.15.02.2.07s.08.12.07.2l-.24 2.83c-.01.12-.11.22-.23.23l-2.37.21s-.01 0-.02 0zm.47-2.85-.2 2.33 1.87-.16.2-2.33zm3.31 2.52c-.07 0-.13-.03-.18-.07-.05-.05-.08-.12-.07-.2l.24-2.83c.01-.12.11-.22.23-.23l2.01-.18c.27-.02.43.07.51.15s.18.24.15.5l-.2 2.41c-.01.12-.11.22-.23.23l-2.44.21c0 .01-.01.01-.02.01zm.47-2.85-.2 2.33 1.93-.17.19-2.2c.01-.07 0-.1-.01-.11 0 0-.04-.02-.11-.01z"/><path d="m6.81 101.35c.47.03 2.8-.09 3.94-.2.11-.71.28-1.75.32-1.94.08-.34.39-.61.79-.65.46-.04.77.21.73.62-.01.07-.01.11-.06.25-.03.14-.18.93-.29 1.61 1.77-.15 6.24-.67 6.87-.79l.21-.02c.52-.04.78.21.74.69-.04.46-.27.74-.69.83-.36.07-4.06.46-7.36.77l-.04.27c-.14 1.21-.14 1.3-.18 1.7.7-.17 1.37-.3 1.9-.34 3.01-.26 5.15 1.45 4.93 3.94-.16 1.84-1.14 3.4-2.9 4.61-1.03.69-3.09 1.66-3.67 1.71-.41.04-.69-.29-.65-.75.02-.28.2-.6.42-.76.11-.06.14-.08.46-.16 2.82-.88 4.53-2.52 4.7-4.54.09-1.06-.35-1.85-1.33-2.4-1.63 2.55-3.71 4.7-5.98 6.22-1.28.85-2.47 1.36-3.4 1.44-1.3.11-1.97-.64-1.86-2.03.22-2.62 2.67-5.29 5.89-6.47l.02-.3.05-.34.1-.96c.03-.16.04-.28.05-.43l.04-.28c-2.01.18-3.77.3-4.27.32-.46.01-.71-.27-.67-.73.04-.48.38-.82.82-.86zm.62 6.87c-.81.86-1.36 1.91-1.43 2.73-.06.69.14.97.64.93.88-.08 2.02-.65 3.31-1.64.04-1.23.14-2.84.23-3.9-1.17.55-2.11 1.19-2.75 1.88zm4 .72c1.15-1.12 2.17-2.33 2.94-3.49-.32-.01-.66.01-.92.03-.64.06-1.23.18-1.81.39-.09 1.08-.14 1.8-.21 3.07z"/><path d="m12 114.66c-.23 0-.43-.08-.58-.23-.19-.19-.29-.47-.26-.79.03-.35.25-.73.52-.94.15-.09.21-.12.54-.2 2.7-.84 4.35-2.42 4.51-4.32.08-.88-.25-1.55-1-2.04-1.62 2.48-3.67 4.58-5.92 6.09-1.33.88-2.55 1.4-3.51 1.48-.69.06-1.24-.1-1.62-.48-.4-.4-.58-1.03-.51-1.83.23-2.68 2.64-5.38 5.9-6.63l.16-1.44c.03-.17.04-.28.05-.41-1.83.16-3.47.27-3.97.29 0 0-.01 0-.02 0-.3 0-.54-.09-.7-.27-.17-.18-.24-.44-.22-.74.05-.59.48-1.04 1.05-1.09l.37-.01h.02c.43.03 2.51-.07 3.71-.18.11-.7.26-1.58.29-1.76.11-.47.52-.81 1.01-.86.32-.03.6.06.78.24.16.16.24.39.22.65-.01.09-.01.14-.07.31-.02.1-.13.67-.23 1.25 1.97-.18 5.95-.65 6.52-.76l.23-.02c.42-.04.66.11.79.23.12.12.26.34.23.73-.05.57-.36.95-.88 1.06-.39.07-4.04.46-7.19.75l-.01.07c-.09.81-.12 1.11-.15 1.34.63-.14 1.17-.23 1.6-.27 1.68-.15 3.21.32 4.17 1.27.77.76 1.13 1.81 1.04 2.94-.16 1.92-1.17 3.54-3 4.8-1.03.68-3.13 1.69-3.79 1.75-.03.02-.06.02-.08.02zm3.65-9.11c.04 0 .08.01.12.03 1.07.6 1.56 1.48 1.46 2.64-.18 2.11-1.96 3.85-4.87 4.76-.29.07-.32.09-.4.14-.14.11-.28.35-.3.56-.01.16.03.31.11.39.07.07.16.1.27.09.52-.05 2.55-1 3.56-1.67 1.7-1.17 2.64-2.66 2.79-4.43.08-1-.22-1.88-.89-2.55-.85-.85-2.23-1.26-3.77-1.13-.47.04-1.12.16-1.87.34-.08.02-.16 0-.22-.05s-.09-.13-.09-.21c.04-.42.05-.56.18-1.71l.04-.28c.02-.11.11-.2.22-.21 3.32-.31 7-.7 7.34-.76.3-.06.45-.25.48-.61.01-.11 0-.25-.08-.33-.09-.09-.27-.1-.39-.09l-.21.02c-.64.13-5.18.65-6.87.79-.08.01-.15-.02-.2-.08s-.08-.13-.06-.21c.11-.68.26-1.47.29-1.62.04-.14.05-.16.05-.22.01-.11-.02-.19-.08-.25-.08-.08-.22-.11-.38-.1-.28.02-.51.21-.57.46-.03.18-.2 1.21-.31 1.92-.02.11-.11.2-.22.21-1.09.11-3.44.23-3.97.21l-.35.01c-.32.03-.55.28-.58.63-.01.11 0 .26.08.35s.2.11.33.11c.51-.03 2.3-.15 4.25-.32.07-.01.15.02.2.08s.08.13.07.21l-.04.28c-.01.14-.02.27-.06.44l-.17 1.57c-.01.1-.07.18-.16.21-3.16 1.15-5.51 3.73-5.72 6.26-.05.64.07 1.14.37 1.43.27.27.67.38 1.22.33.88-.08 2.02-.56 3.28-1.4 2.26-1.51 4.3-3.63 5.91-6.14.05-.06.13-.1.21-.1zm-9.1 6.58c-.24 0-.42-.07-.56-.21-.2-.2-.27-.52-.23-1 .07-.87.65-1.97 1.49-2.88.66-.71 1.61-1.37 2.83-1.95.08-.04.18-.03.25.02s.11.14.11.23c-.09 1.02-.19 2.62-.23 3.89 0 .08-.04.15-.1.19-1.36 1.04-2.52 1.61-3.44 1.69-.04.02-.08.02-.12.02zm3.35-5.38c-.96.5-1.75 1.06-2.28 1.64-.76.81-1.29 1.82-1.36 2.58-.04.41.04.55.09.6s.14.07.28.06c.79-.07 1.86-.59 3.09-1.52.02-1.09.1-2.38.18-3.36zm1.53 2.44c-.04 0-.07-.01-.1-.02-.09-.04-.15-.14-.15-.24.08-1.27.12-2 .21-3.08.01-.1.07-.18.16-.21.58-.21 1.2-.34 1.87-.4.28-.02.64-.04.95-.03.09 0 .17.05.22.13.04.08.04.18-.01.25-.77 1.17-1.8 2.39-2.97 3.53-.05.05-.12.07-.18.07zm.44-3.14c-.07.8-.11 1.41-.16 2.25.83-.85 1.57-1.73 2.17-2.6-.15 0-.3.01-.43.02-.56.06-1.08.17-1.58.33z"/><path d="m10.14 119.79c-.01.18-.05.36-.15.82-.25 1.16-.5 2.68-.58 3.57-.07.81-.07 1.41.02 1.95.04.17.04.29.03.42-.04.51-.42.88-.93.93-.33.03-.55-.13-.63-.42-.21-.77-.26-1.77-.16-2.96.09-1.06.36-2.6.66-3.7.07-.25.1-.4.11-.5.01-.12 0-.21-.02-.39-.01-.05-.01-.09-.01-.14.03-.39.46-.74.95-.79.51-.04.78.41.71 1.21zm6.74-1.47c.06.91-.08 4.59-.25 6.58-.24 2.82-.84 4.06-2.84 5.98-.91.87-1.96 1.58-4.03 2.67-.64.34-.73.38-.99.4-.48.04-.79-.34-.74-.88.03-.41.17-.54.75-.82 2.06-1.01 3.36-1.84 4.37-2.84 1.34-1.29 1.68-2.15 1.89-4.59.19-2.28.26-4.5.18-6.1-.01-.12 0-.18 0-.21.04-.44.41-.76.94-.8.42-.05.67.17.72.61z"/><path d="m8.69 134.2c-.25 0-.47-.09-.64-.25-.22-.21-.32-.54-.29-.9.04-.53.26-.73.89-1.03 2.08-1.01 3.32-1.82 4.3-2.79 1.29-1.25 1.61-2.04 1.82-4.44.2-2.31.26-4.52.18-6.06-.01-.14 0-.2 0-.24.05-.57.51-.97 1.17-1.03.57-.05.94.27 1 .84v.01c.06.9-.08 4.61-.25 6.61-.24 2.86-.87 4.18-2.92 6.14-.96.91-2.02 1.62-4.08 2.71-.64.33-.77.4-1.08.43-.04 0-.07 0-.1 0zm7.55-16.26c-.02 0-.05 0-.07 0-.41.04-.68.26-.71.58v.17c.08 1.57.02 3.8-.18 6.13-.21 2.52-.58 3.41-1.96 4.75-1.01 1.01-2.3 1.85-4.43 2.89-.56.27-.59.34-.61.62-.02.22.03.4.14.51.08.08.19.12.33.11.2-.02.25-.04.89-.38 2.02-1.07 3.06-1.75 3.97-2.63 1.96-1.88 2.53-3.07 2.77-5.82.17-1.98.31-5.64.25-6.53-.03-.27-.15-.4-.39-.4zm-7.78 9.78c-.4 0-.7-.23-.8-.61-.21-.79-.27-1.82-.17-3.04.1-1.12.37-2.66.66-3.74.06-.22.09-.36.1-.46.01-.11 0-.18-.02-.34-.02-.06-.01-.12-.01-.18.05-.52.57-.97 1.18-1.02.26-.02.49.06.66.23.25.25.36.68.31 1.25-.02.2-.05.39-.16.86-.26 1.19-.5 2.67-.57 3.53-.07.82-.06 1.39.02 1.89.04.18.05.32.04.48-.05.63-.52 1.1-1.16 1.15-.02 0-.05 0-.08 0zm1.04-8.89c-.01 0-.03 0-.04 0-.41.04-.71.32-.73.56v.09c.02.18.03.29.02.43-.01.13-.05.3-.12.55-.29 1.05-.55 2.56-.65 3.65-.1 1.16-.05 2.13.15 2.87.03.11.1.26.37.24.39-.03.67-.31.7-.7.01-.11 0-.21-.03-.35-.09-.55-.1-1.15-.03-2.02s.32-2.39.58-3.6c.11-.48.14-.64.15-.79.03-.4-.03-.71-.17-.85-.02-.03-.08-.08-.2-.08z"/><path d="m5.69 138.85 13.36-1.17-1.17 13.78-13.36 1.17zm12.14-.36-11.51 1.01-1.01 11.86zm-12.08 13.33 11.51-1.01 1.01-11.86z"/><path d="m4.52 153c-.1 0-.19-.04-.26-.11-.08-.08-.12-.19-.11-.3l1.17-13.78c.02-.18.16-.33.34-.34l13.36-1.17c.11-.01.22.03.3.11s.12.19.11.3l-1.17 13.78c-.02.18-.16.33-.34.34l-13.36 1.17c-.01 0-.02 0-.04 0zm.47-1.44-.06.66.66-.06c-.08-.04-.14-.1-.18-.18s-.04-.17-.03-.25c-.08.02-.16.01-.23-.03-.06-.03-.12-.08-.16-.14zm12.82-11.6-11.09 11.4 10.19-.89zm-.26 11.09c-.02.02-.04.05-.07.06l.07-.01zm-10.88-11.2-.89 10.5 11.08-11.4zm-.63-.65v.06c.02-.02.04-.05.07-.06zm12.23-.63c.05 0 .11.01.16.03.07.03.13.08.17.15l.06-.66-.66.06c.08.04.14.1.18.18s.04.17.03.25c.01-.01.03-.01.06-.01z"/></g></svg>