<svg enable-background="new 0 0 24 350" viewBox="0 0 24 350" xmlns="http://www.w3.org/2000/svg"><g fill="#d9c6aa"><path d="m5.76 15.62c.06 0 .12 0 .19-.01.14-.01.63-.09 1.12-.17.61-.09 2.9-.34 6.81-.75l.93-.09c0 .33.13.53.25.65s.35.26.73.23c.44-.04.85-.31 1.01-.66.07-.12.08-.24.1-.51.55-6.11.91-9.9 1.09-11.21.05-.34.09-.67.11-.88.04-.48-.05-.84-.28-1.06-.12-.12-.36-.27-.74-.23-.35.03-.69.22-.9.49-2.31.39-5.31.74-9.16 1.06-.48.03-.55.04-.73.14-.33.17-.55.54-.59.98-.03.33.04.58.2.74.2.2.5.27.98.22 1.91-.16 5.26-.56 9.01-1.07-.36 3.19-.69 6.41-.94 9.12-.91.07-1.71.14-2.18.18-.92.08-6.34.64-6.85.7-.21.02-.29.04-.42.08-.36.15-.63.58-.67 1.08-.03.31.04.56.21.72.18.17.41.25.72.25z"/><path d="m5.45 32.5c2.17.25 5.85.82 10.08 1.56.45.09.63.12.76.12h.08c.54-.05 1.02-.56 1.07-1.15.05-.55-.23-.95-.76-1.05-.06-.01-.21-.04-.42-.08l-.38-.08c-2.2-.44-9.57-1.58-10.14-1.53-.54.05-1.04.6-1.1 1.22-.03.55.26.92.81.99z"/><path d="m9.86 25.3s-.06-.01-.06-.01c-1.41-.19-1.55-.21-1.68-.2-.51.04-1.01.6-1.06 1.18-.03.38.08.85.83.99 2.12.38 5.77.8 6.86.8.08 0 .14 0 .19-.01.57-.05 1.02-.54 1.07-1.16.03-.39-.09-.62-.21-.75-.1-.11-.29-.23-.61-.25-1.31-.07-2.75-.23-5.33-.59z"/><path d="m16.85 22.81c.57-.05 1.04-.54 1.09-1.15.03-.32-.04-.57-.2-.75-.1-.11-.28-.25-.6-.26-1.12-.08-4.22-.41-7.71-.83-.45-.05-.56-.06-.69-.05-.6.05-1.07.54-1.12 1.15-.03.36.1.69.31.83.15.16.24.17.59.21 1.74.24 7.59.86 8.29.86.02-.01.03-.01.04-.01z"/><path d="m11.1 48.99c-.28.18-.35.24-.42.29-.23.18-.38.44-.4.73-.03.32.07.61.26.81.16.16.38.25.62.25h.09c.6-.05 1.97-1.22 3.05-2.29 1.86-1.88 2.91-3.48 4.03-6.12.46-1.09 1.29-3.38 1.32-3.72.02-.27-.06-.52-.24-.69-.17-.17-.43-.26-.69-.24-.51.04-.82.31-.97.82-1.62 5.27-3.24 7.75-6.65 10.16z"/><path d="m13.58 44.3h.1c.53-.05.97-.47 1.01-.98.01-.13-.01-.31-.07-.48-.27-.64-.89-2.92-1-3.61-.04-.28-.08-.4-.14-.51-.13-.29-.44-.46-.79-.43-.51.04-1.02.51-1.06.99-.03.39.94 3.98 1.17 4.56.12.28.41.46.78.46z"/><path d="m10.01 45.64h.1c.58-.05 1.03-.49 1.08-1.04.01-.17 0-.31-.06-.49-.76-2.54-.81-2.73-1.05-3.97-.07-.45-.07-.45-.1-.54 0-.01-.01-.03-.02-.04-.13-.25-.45-.4-.77-.37-.55.05-1.02.49-1.06 1-.01.12.01.24.13.81.19.92.86 3.71 1 4.13.1.32.38.51.75.51z"/><path d="m6.66 68.75c-.54.28-.54.28-.69.37-.27.22-.45.54-.48.87s.07.62.27.82c.17.16.38.25.63.25h.09c.55-.05 2.35-1.2 3.69-2.24 2.5-1.93 4.07-3.81 5.61-6.72 1.06-2.01 2.3-5.21 2.38-6.12.03-.4-.06-.73-.28-.95-.2-.2-.48-.28-.8-.25-.33.03-.62.19-.86.48-.88.2-2.33.41-4.21.61-.02-.2-.09-.38-.22-.51-.17-.17-.44-.25-.73-.23-.55.05-1 .53-1.05 1.15 0 1.3-1.52 3.31-3.87 5.11-.44.29-.44.29-.51.34-.26.23-.42.53-.45.85-.03.3.06.57.25.75.17.17.41.26.68.23.39-.03.66-.2 1.15-.6 1.83-1.49 3.28-3.21 4.29-5.12 2.05-.24 3.32-.42 4.16-.57-1.64 5.36-4.61 9.12-9.05 11.48z"/><path d="m6.15 77.45c.11-.01.43-.04.86-.09l4.86-.46c1.53-.15 1.78-.17 5.07-.52-.97 2.71-3.18 5.32-6.12 7.22l-.19-.18c-1.82-1.79-1.98-1.94-2.43-1.9-.62.05-1.14.56-1.19 1.16-.03.39.07.65.34.87 1.04.89 2.96 2.86 3.87 3.98.57.71.69.86 1.03.86.05 0 .1 0 .16-.01.62-.05 1.17-.63 1.22-1.28.04-.48-.18-.74-1.46-2.11 1.38-.96 2.42-1.86 3.46-2.97 1.31-1.41 2.47-3.23 3.19-4.99.33-.81.59-1.66.63-2.02.03-.38-.06-.69-.27-.9-.19-.19-.46-.28-.78-.25-.27.02-.5.14-.83.43l-1.16.12c-1.65.16-3.83.37-9.04.84l-1.03.09c-.87.08-.87.08-.96.1-.44.09-.81.55-.85 1.07-.03.3.06.59.24.78.24.23.59.23 1.38.16z"/><path d="m12.26 91.32c-.59.05-1.07.51-1.12 1.06l-1.13 13.3c-.02.28.06.53.24.71.17.17.41.26.68.26h.11c.58-.05 1.07-.52 1.12-1.06l1.13-13.3c.02-.27-.06-.52-.25-.7-.19-.21-.46-.3-.78-.27z"/><path d="m5.37 118.85c.86-.08 2.45-1.92 3.21-3.44.5-.03.94-.07 1.17-.09.57-.05.64-.06 2.02-.19l.4-.05-.26 3.06c-.2 2.49-.75 3.27-3.73 5.19l-.39.23c-.29.2-.48.54-.51.92-.03.33.09.65.31.88.17.17.39.27.61.27h.07c.2-.02.62-.16 1.96-1.18 1.16-.88 2.1-1.79 2.58-2.5.66-.99 1-2.16 1.15-3.89l.27-3.2c.76-.09 1.21-.14 1.51-.18.36-.04.51-.06.75-.08 1.17-.16 1.88-.23 2.09-.25.87-.08 1.27-.42 1.33-1.15.04-.42-.1-.66-.23-.78-.12-.12-.33-.25-.71-.22l-.16.01c-1.32.22-5.97.77-8.02.95-.52.05-.67.06-1.56.12.14-.7.24-1.41.29-2.09.03-.38.06-.84.04-.96-.01-.21-.11-.41-.26-.54-.18-.15-.43-.22-.7-.2-.61.05-1.03.45-1.08 1.03l-.07.99c-.09 1.07-.39 2.39-.69 3.08-.31.71-1.09 1.68-1.89 2.35-.34.28-.45.43-.48.8s.06.68.26.88c.14.12.37.26.72.23z"/><path d="m10.68 139.26c-.23.18-.38.44-.4.73-.03.32.07.61.27.81.16.16.38.25.62.25h.09c.6-.05 1.97-1.22 3.05-2.29 1.86-1.88 2.91-3.48 4.03-6.12.46-1.09 1.29-3.38 1.32-3.72.02-.27-.06-.52-.24-.69-.17-.17-.43-.26-.69-.24-.51.04-.82.31-.97.82-1.62 5.28-3.24 7.76-6.65 10.17-.3.18-.36.23-.43.28z"/><path d="m10.08 130.11c-.07-.45-.07-.45-.1-.54 0-.01-.01-.03-.02-.04-.13-.25-.44-.4-.77-.37-.55.05-1.02.49-1.06 1-.01.12 0 .22.13.82.19.92.86 3.71 1 4.13.09.31.38.5.75.5h.1c.58-.05 1.03-.49 1.08-1.04.01-.17 0-.31-.06-.49-.76-2.55-.81-2.73-1.05-3.97z"/><path d="m13.58 134.28h.1c.53-.05.97-.47 1.01-.98.01-.13-.01-.31-.07-.48-.27-.64-.89-2.92-1-3.61-.04-.28-.08-.4-.14-.51-.13-.29-.43-.46-.79-.43-.51.05-1.02.52-1.06.99-.03.39.94 3.98 1.17 4.56.12.28.41.46.78.46z"/><path d="m9.02 161.11h.11c.48-.04.88-.33 1.04-.72.08-.17.09-.27.12-.66.02-.26.12-1.18.26-2.51.12-1.03.15-1.33.41-4.15l.04-.37c1.32.77 2.72 1.42 4.37 2.04.51.19.66.23.89.21.6-.05 1.09-.59 1.15-1.24.05-.57-.2-.93-.73-1.06-1.79-.47-3.97-1.38-5.46-2.28l.37-4.12.05-.35c.04-.45.02-.68-.2-.91-.19-.22-.51-.36-.8-.33-.39.03-.8.31-.99.67-.08.18-.08.18-.31 2.76-.52 5.63-.87 9.12-1.07 11.05l-.04.28c-.03.26-.06.48-.08.66-.04.42.11.67.25.8.14.15.36.23.62.23z"/><path d="m6.14 175.06c.49-.04.94-.15 1.41-.34-1.16 2.08-1.96 3.4-2.82 4.74-.39.62-.46.74-.49 1.04s.08.59.28.79c.18.18.42.27.67.27h.08c.41-.04.74-.27 1.02-.73 2.11-3.54 3.5-6.05 4.81-8.67.52-1.06.87-2.18.95-3.08.09-1.11-.23-2.09-.91-2.77-.73-.73-1.84-1.07-3.1-.96-2.8.24-5.37 2.76-5.6 5.5-.12 1.45.2 2.61.95 3.35.65.66 1.6.96 2.75.86zm-1.56-4.31c.15-1.75 1.57-3.18 3.32-3.33.11-.01.21-.01.31-.01.61 0 1.12.17 1.44.49.31.31.45.75.4 1.27-.06.68-.3 1.37-.82 2.44-.06.06-.42.34-.62.48-.71.46-1.49.74-2.27.81-.59.05-1.04-.07-1.33-.35-.36-.35-.5-.95-.43-1.8z"/><path d="m18.5 163.96c-.41.63-.98 1.32-1.6 1.94-3.46 3.49-4.96 6.06-5.2 8.87-.13 1.5.28 2.8 1.15 3.67.74.74 1.8 1.13 3.01 1.13.17 0 .34-.01.51-.02 2.88-.25 4.99-2.49 5.25-5.56.13-1.47-.27-2.75-1.13-3.6-.76-.75-1.84-1.11-3.02-1.01-.5.04-.98.15-1.45.33.61-.77 1.15-1.38 1.86-2.09.92-.93 1.38-1.44 2.12-2.42.25-.31.35-.52.37-.81.03-.32-.06-.61-.25-.8-.18-.18-.43-.26-.7-.23-.38.05-.7.25-.92.6zm-4.74 10.72c.05-.59.18-1.16.37-1.7.08-.1.73-.58 1.08-.81.7-.39 1.51-.66 2.17-.72.08-.01.16-.01.23-.01.54 0 1.01.18 1.35.52.48.48.7 1.25.62 2.18-.16 1.85-1.38 3.14-3.12 3.3-.89.08-1.6-.13-2.07-.6-.49-.5-.71-1.24-.63-2.16z"/><path d="m14.34 213.05c-.61.05-1.59.07-2.15.05-.24-.02-.3-.01-.41 0-.66.06-1.09.5-1.14 1.17-.03.3.04.53.21.7.37.38 1.16.42 3.48.22 1.87-.16 2.58-.8 2.72-2.43l1.02-12.04c.05-.6-.06-1.03-.35-1.32-.28-.28-.7-.39-1.29-.34l-8.06.7c-1.1.1-1.74.74-1.83 1.86l-.46 5.42c-.28 3.35-.95 5.33-2.38 7.07-.6.7-.64.75-.67 1.11-.03.3.07.57.27.76.18.18.42.27.68.27h.1c.51-.04.91-.43 1.49-1.17 1-1.25 1.7-2.85 2.12-4.89l7.57-.66-.25 2.93c-.03.44-.09.54-.67.59zm-5.93-9.13.16-1.92c.02-.22.13-.33.35-.35l6.82-.6h.06c.08 0 .13.02.14.03.02.02.04.08.03.18l-.17 2zm7.22 1.31-.2 2.33-7.41.65c.04-.3.06-.58.1-1.02l.11-1.31z"/><path d="m4.61 234.68 2.13-.19c.89-.08 1.42-.62 1.5-1.53l.19-2.26c.1.04.21.06.33.05.29-.03.53-.17.88-.53l-.31 3.7c-.04.52.06.91.32 1.16.21.21.51.32.89.32.06 0 .13 0 .2-.01l7.87-.69c.4-.04.72-.4.76-.87.02-.24-.05-.47-.2-.62-.13-.13-.31-.19-.5-.18l-3.36.29.07-.8 2.87-.25c.39-.03.72-.39.76-.84.02-.26-.05-.48-.2-.64-.13-.13-.32-.19-.5-.18l-2.78.24.06-.7 2.86-.25c.4-.04.72-.39.76-.85.02-.24-.05-.47-.2-.62-.13-.13-.3-.19-.5-.18l-2.78.24.06-.72 3.28-.29c.38-.03.7-.41.74-.87.02-.26-.05-.48-.19-.63-.13-.13-.3-.19-.49-.17l-2.68.23c.19-.31.27-.54.29-.73.02-.23-.05-.44-.21-.6l1.86-.16c.88-.08 1.4-.61 1.48-1.51l.27-3.17c.04-.49-.06-.85-.3-1.09-.23-.23-.57-.33-1.02-.29l-3.09.27c-.42.04-.74.38-.77.84-.02.27.05.5.2.65.13.13.32.2.51.18l2.64-.23h.05v.04l-.04.48-2.68.23c-.42.04-.74.38-.77.84-.02.26.05.48.2.63.13.13.32.2.52.18l2.59-.23-.03.4c-.01.12-.06.15-.15.16l-2.66.23c-.4.03-.72.39-.76.85-.02.26.05.48.2.64.1.1.22.15.35.17-.07.09-.13.19-.17.3-.11.27-.33.71-.55 1.11l-1.89.17c.23-.36.32-.57.33-.75.02-.21-.05-.42-.2-.58l.42-.04c.89-.08 1.42-.62 1.5-1.52l.27-3.17c.04-.48-.06-.84-.3-1.08-.23-.23-.58-.33-1.04-.29l-3.07.27c-.4.03-.74.4-.77.84-.02.25.06.49.21.65.14.13.32.2.5.18l2.63-.23h.05v.04l-.04.48-2.61.23c-.41.04-.73.38-.77.82-.02.27.05.5.2.65.13.13.32.2.51.18l2.52-.22-.03.39c-.01.13-.04.15-.15.16l-2.63.23c-.4.03-.74.41-.78.86-.02.24.06.47.21.63.13.14.31.2.51.18l1.3-.11c-.06.08-.12.17-.17.26-.56 1.03-1.54 2.36-2.5 3.41l.64-7.53c.04-.5-.05-.85-.29-1.09-.23-.23-.58-.32-1.04-.28l-2.13.19c-.91.08-1.42.6-1.5 1.53l-.99 11.61c-.04.48.06.84.3 1.08.2.24.55.34 1 .3zm1.02-8.41.35-4.11c.01-.14.04-.16.18-.18l1.18-.1h.03.02c0 .01.01.03 0 .07l-.36 4.2zm1.27 1.72-.38 4.49c-.01.1-.08.18-.17.19l-1.19.1c-.04 0-.06 0-.07 0 0-.01-.01-.03-.01-.09l.39-4.57zm4.68.88.05-.57c.01-.14.02-.15.15-.16l2.16-.19-.06.72zm2.1 2.16-2.29.2.06-.7 2.29-.2zm-2.5 2.66c0-.02 0-.04 0-.07l.06-.73 2.29-.2-.07.8-2.25.2c-.01 0-.02 0-.03 0z"/><path d="m16.6 239.36-8.74.76c-1.13.1-1.77.76-1.87 1.9l-.99 11.65c-.05.6.07 1.04.36 1.33.24.24.59.36 1.04.36.08 0 .16 0 .25-.01l8.74-.76c1.12-.1 1.79-.79 1.89-1.94l.99-11.62c.05-.59-.07-1.03-.36-1.32-.29-.28-.73-.4-1.31-.35zm-8.93 7.26.36-4.22c.03-.31.13-.37.35-.39l7.51-.66h.06c.08 0 .14.01.16.04.03.03.04.11.04.21l-.37 4.31zm7.95 1.25-.37 4.41c-.02.27-.15.38-.42.41l-7.49.66c-.12.01-.17-.01-.19-.02 0 0-.04-.05-.03-.23l.38-4.52z"/><path d="m19.55 279.22c.43-.04.79-.45.83-.95.03-.3-.06-.56-.24-.74-.14-.14-.34-.21-.52-.19l-6.45.56.08-1c.02-.23-.06-.44-.22-.6-.18-.18-.46-.27-.74-.25-.53.05-.98.45-1.02.93l-.09 1.08-6.36.56c-.47.06-.8.44-.84.98-.02.29.05.54.22.7.14.14.35.21.56.19l6.27-.55-.11 1.26-4.81.42c-1.07.09-1.68.72-1.78 1.82l-.81 9.6c-.02.25.05.47.21.63.16.15.38.24.63.24h.11c.56-.05.98-.44 1.02-.95l.79-9.28c.02-.19.1-.24.22-.25l2.13-.19c-.22.18-.38.44-.41.71-.01.19.02.38.12.62.1.19.21.41.29.61l-1.56.14c-.45.06-.76.41-.8.89-.02.26.05.49.21.64.14.14.33.2.54.19l3.43-.3-.09 1.09-3.65.32c-.44.06-.76.42-.8.89-.02.25.06.49.22.65.14.14.32.21.53.19l3.55-.31-.21 2.5c-.02.25.05.47.21.62.17.17.44.25.73.22.54-.05.96-.44 1-.93l.22-2.59 3.79-.33c.42-.04.76-.42.8-.89.02-.27-.05-.5-.21-.66-.14-.14-.32-.2-.52-.18l-3.71.32.09-1.09 3.69-.32c.41-.04.75-.41.79-.87.02-.27-.05-.5-.21-.66-.14-.14-.33-.2-.52-.18l-1.54.13c.42-.64.57-.97.6-1.25.02-.23-.06-.45-.23-.62-.03-.03-.07-.06-.11-.09l2.33-.2h.07c.01 0 .03-.02.01.14l-.65 7.63c-.03.37-.1.43-.5.47-.43.04-1.22.05-1.68.05-.21-.02-.27-.02-.37-.01-.6.05-1 .46-1.05 1.07-.02.19-.01.46.19.66.34.34 1.1.34 3.03.18 1.63-.14 2.19-.68 2.32-2.2l.7-8.25c.05-.56-.07-.99-.35-1.27s-.69-.39-1.22-.35l-4.82.42.11-1.26zm-6.16 3.98c-.22.47-.45.88-.91 1.68l-1.77.16c-.18-.49-.5-1.23-.66-1.53-.07-.14-.16-.25-.27-.33l3.88-.34c-.11.09-.2.21-.27.36z"/><path d="m8.33 310.43c-.45.24-.46.25-.53.32-.23.2-.39.52-.42.85-.03.34.07.64.28.84.17.17.4.26.65.26h.09c.58-.05 2.45-1.37 3.83-2.56 2.82-2.43 4.32-4.68 5.54-8.31.38-1.18.89-3.14.94-3.81.04-.4-.06-.73-.27-.94-.18-.18-.44-.26-.73-.24-.32.03-.64.18-.93.44-2.1.29-6.01.7-8.63.93-.53.05-.84.07-1.11.08-.21 0-.43.02-.5.03-.64.06-1.1.51-1.16 1.14-.03.29.08.61.26.79.22.23.54.24 1.61.15.74-.06.74-.06 8.59-.94l.48-.05c-.38 2.05-1.35 4.41-2.59 6.25-.95 1.48-3.23 3.5-5.4 4.77z"/><path d="m22.49 318.24c-.9-1.53-2.27-2.23-4.06-2.07-3.18.28-5.58 3.53-5.96 8.09-.11 1.26-.08 2.4.09 3.37-.02-.01-.04-.04-.07-.05-.16-.12-.29-.11-.7-.07-.18.02-.46.04-.93.1l-2.21.21.41-4.03c.02-.04.02-.08.01-.12l-.01-.09c-.17-.68-.64-.74-.91-.71-.5.04-.97.48-1.03.98l-.41 4.18-3.61.35c1.24-1.88 2.65-4.19 4.3-7.04l.74-1.29c.41-.69.45-.77.47-1 .03-.29-.06-.55-.25-.74-.18-.18-.44-.27-.71-.24-.37.03-.6.19-.78.53-2.02 3.68-3.87 6.73-5.48 9.05-.85 1.21-.93 1.34-.97 1.82-.04.41.12.66.25.8.16.16.46.33 1.01.28.28-.02 1.16-.12 2.5-.29.6-.07.71-.08 2.33-.22l-.29 2.91c0 .02-.01.09 0 .11l.02.11c.12.41.45.67.83.67h.08c.48-.04.96-.49.99-.94l.3-3 3.35-.31c.33-.03.41-.04.54-.13.22-.14.41-.41.5-.7.16.49.35.94.6 1.31.83 1.27 1.76 1.81 3.22 1.81.2 0 .4-.01.62-.03 3.46-.3 5.52-3.21 5.96-8.41.19-2.31-.05-4-.74-5.2zm-1.37 5.23c-.15 1.72-.44 3.05-.91 4.04-.63 1.32-1.63 2.11-2.84 2.22-1.1.1-1.71-.19-2.2-1-.56-.93-.76-2.5-.58-4.56.13-1.55.6-3.12 1.26-4.2.62-1.01 1.47-1.59 2.47-1.68 1.12-.1 1.63.15 2.23 1.04.6.91.75 2.03.57 4.14z"/><path d="m15.7 346.65c-.41-.2-.64-.5-.57-1.37.12-1.47.39-3.36.7-4.92.09-.44.1-.51.11-.59.04-.44-.11-.69-.25-.82-.13-.13-.36-.27-.76-.24-.42.04-.74.25-.94.6-.35-.3-.79-.45-1.3-.4-.9.08-2.07.6-2.97 1.34-1.54 1.27-2.49 3.07-2.65 5.07-.12 1.36.2 2.45.9 3.15.54.54 1.28.81 2.16.81.13 0 .26-.01.39-.02 1.11-.1 2.06-.65 2.89-1.67.49 1.04 1.07 1.24 1.5 1.2.62-.06 1.14-.59 1.19-1.25.04-.41-.12-.75-.4-.89zm-6.48-1.41c.11-1.23.58-2.31 1.37-3.13.6-.62 1.38-1.04 2.02-1.09.24-.02.58.02.87.52-.16.89-.33 2.32-.44 3.62-.63 1.21-1.48 1.93-2.42 2.01-.48.04-.83-.05-1.06-.28-.28-.3-.4-.86-.34-1.65z"/></g></svg>