<svg enable-background="new 0 0 24 37" viewBox="0 0 24 37" xmlns="http://www.w3.org/2000/svg"><g fill="#d9c6aa"><path d="m4.3 17.01h.07l14.26-1.25c.5-.04.9-.48.95-1.05.02-.3-.07-.57-.25-.76-.16-.16-.38-.24-.61-.22l-6.09.53.31-3.65 5.06-.44c.48-.04.88-.48.92-1.01.03-.3-.06-.57-.24-.75-.16-.16-.38-.23-.6-.21l-4.98.44.25-2.95 5.72-.5c.48-.04.88-.48.93-1.03.03-.3-.06-.57-.24-.75-.16-.16-.38-.23-.6-.21l-5.63.5c.08-.15.14-.3.15-.46.03-.32-.11-.63-.38-.87-.65-.59-1.51-1.27-2.34-1.85-.28-.2-.53-.28-.81-.25-.58.05-1.03.51-1.08 1.09-.03.38.09.63.42.88.87.68 1.53 1.22 2 1.64l-5.7.5c-.5.06-.85.45-.89 1.02-.03.31.05.58.23.76.15.15.36.22.59.2l5.54-.48-.25 2.95-4.97.43c-.51.07-.85.44-.9 1.01-.03.31.06.58.23.76.15.15.36.22.59.2l4.87-.43-.31 3.66-6.09.53c-.51.07-.87.48-.92 1.04-.03.31.06.58.24.77.16.13.35.21.55.21z"/><path d="m20.29 21.83.18-2.11c.02-.24-.06-.45-.21-.6-.17-.17-.42-.25-.69-.22-.53.05-.96.44-1 .91l-.14 1.65c-.01.16-.06.18-.17.19l-2.47.22.2-2.34c.02-.23-.06-.44-.21-.59-.18-.18-.44-.26-.73-.23-.52.04-.94.44-.98.91l-.21 2.43-2.44.21c-.03 0-.05 0-.06 0 0-.02 0-.05 0-.09l.14-1.65c.02-.23-.05-.44-.21-.6-.17-.17-.43-.26-.71-.23-.39.03-.72.26-.88.56 0-.22-.08-.42-.23-.58-.18-.18-.45-.27-.75-.24-.44.04-.75.31-.94.84-.9 2.41-2.3 5.02-3.75 6.98-.27.36-.37.52-.4.81-.02.27.07.53.25.7.17.17.4.25.65.23.4-.03.77-.37 1.46-1.39l-.69 8.15c-.02.24.05.47.21.62.15.15.36.23.59.23h.1c.52-.05.95-.44.99-.93l.48-5.71c.02.03.05.06.08.09.18.18.43.27.69.25.33-.03.62-.22 1.07-.74l-.41 4.92c-.04.5.06.87.3 1.12.23.23.58.33 1.05.29l8.49-.74c.43-.04.75-.4.79-.89.02-.27-.05-.51-.2-.67-.13-.13-.33-.2-.53-.18l-3.6.31.1-1.14 3.09-.27c.42-.04.74-.4.78-.87.02-.27-.05-.5-.2-.65-.13-.13-.32-.2-.51-.18l-3 .26.09-1.03 3.09-.27c.42-.04.74-.4.78-.87.02-.27-.05-.5-.2-.65-.13-.13-.32-.19-.51-.18l-3 .26.09-1.04 3.45-.3c.41-.04.76-.43.8-.91.02-.25-.06-.49-.21-.64-.14-.14-.32-.2-.52-.19l-3.09.27c.33-.57.48-.9.5-1.17.02-.24-.05-.46-.2-.62l2.16-.19c.82-.07 1.32-.6 1.4-1.51zm-7.76 2.07 2.7-.24c-.08.1-.14.21-.18.33-.13.4-.37.91-.71 1.51l-2.15.19c.49-.84.51-.91.53-1.16.02-.31-.09-.51-.19-.63zm-1.46 10.19c0-.01-.02-.04-.01-.13l.08-.99 2.45-.21-.1 1.14-2.32.2c-.06 0-.09-.01-.1-.01zm2.67-3.05-2.45.21.09-1.03 2.45-.22zm.23-2.75-2.45.21.07-.8c.02-.18.07-.24.24-.25l2.23-.2zm-4.38-7.58-.17 1.97c-.04.48.06.85.3 1.08.23.23.57.33 1.02.29l.34-.03c-.07.09-.13.2-.18.3-.8 1.5-1.94 3.17-2.92 4.23-.08.09-.15.16-.2.23l.43-5.01c.53-1.02 1.13-2.34 1.38-3.06z"/></g></svg>