<svg enable-background="new 0 0 24 350" viewBox="0 0 24 350" xmlns="http://www.w3.org/2000/svg"><g fill="#d9c6aa"><path d="m13.82 14.44c-3.92.42-6.19.67-6.82.76-.48.08-.97.16-1.1.17-.6.05-.87-.17-.83-.68.03-.41.25-.76.52-.87.09-.03.14-.05.35-.07.48-.06 5.87-.62 6.85-.7.45-.04 1.36-.12 2.38-.19.29-3.15.65-6.61.99-9.65-3.64.49-7.23.92-9.32 1.11-.71.06-.96-.13-.92-.7.03-.35.21-.65.46-.78.14-.08.18-.09.62-.12 3.95-.33 6.96-.68 9.28-1.08.16-.26.46-.44.77-.47.55-.05.81.32.75 1.02-.02.21-.06.53-.11.87-.18 1.28-.52 4.88-1.09 11.22-.02.25-.03.34-.07.41-.13.27-.45.5-.81.53-.48.04-.75-.25-.7-.75l.01-.16z"/><path d="m5.74 15.62c-.31 0-.54-.08-.7-.24-.17-.17-.24-.41-.21-.72.04-.5.31-.93.67-1.08.13-.04.21-.07.42-.08.5-.06 5.92-.62 6.85-.7.46-.04 1.26-.11 2.18-.18.25-2.71.58-5.93.94-9.12-3.77.5-7.13.9-9.03 1.07-.48.04-.78-.03-.98-.22-.17-.17-.23-.41-.21-.75.04-.44.27-.81.59-.98.18-.1.25-.11.71-.15 3.85-.32 6.84-.66 9.16-1.06.21-.27.55-.46.9-.49.38-.03.62.11.74.23.22.22.32.58.28 1.06-.01.23-.05.55-.1.89-.18 1.31-.54 5.1-1.09 11.21-.02.26-.03.38-.1.51-.16.35-.57.62-1.01.66-.38.03-.61-.11-.73-.23-.11-.11-.24-.32-.25-.65l-.93.09c-3.9.41-6.19.66-6.81.75-.49.08-.98.16-1.12.17-.05.01-.12.01-.17.01zm10.42-12.67c.06 0 .13.03.17.07.05.05.08.13.07.21-.38 3.37-.73 6.8-.99 9.64-.01.13-.11.22-.23.23-1 .07-1.89.15-2.35.19-.96.08-6.36.64-6.87.71-.16.01-.21.03-.27.05-.16.07-.34.32-.37.66-.01.16.01.27.07.33.08.08.24.11.49.09.13-.01.61-.09 1.09-.16.63-.09 2.86-.34 6.83-.76l1.22-.12c.08-.01.15.02.2.07s.08.13.07.2l-.01.16c-.01.18.02.31.1.39.09.09.22.1.34.09.26-.02.52-.18.61-.38.02-.04.03-.17.05-.33.55-6.12.91-9.92 1.09-11.23.05-.33.09-.65.11-.86.03-.32-.02-.55-.13-.66-.07-.07-.18-.1-.35-.09-.23.02-.46.16-.58.35-.04.06-.1.1-.17.12-2.34.4-5.39.75-9.3 1.08-.45.01-.45.01-.54.06-.19.1-.31.32-.34.59-.01.18 0 .29.06.35.05.05.2.11.58.08 1.95-.17 5.43-.59 9.31-1.11.01-.02.02-.02.04-.02z"/><path d="m15.81 32.07c.44.08.72.15.82.16.37.07.57.35.54.77-.04.46-.42.88-.84.92-.1.01-.22 0-.78-.11-4.22-.74-7.92-1.31-10.1-1.56-.41-.05-.61-.3-.57-.72.04-.5.46-.95.87-.99.48-.04 7.75 1.06 10.06 1.53zm-6.01-6.52c2.76.39 4.13.54 5.35.6.41 0 .63.26.59.72-.04.51-.4.9-.85.94-.74.06-4.76-.39-6.99-.79-.45-.08-.66-.31-.62-.72.04-.46.44-.92.83-.95.11-.02.35.02 1.69.2zm-.42-5.48c3.54.43 6.6.76 7.72.84.41.02.61.28.57.74-.04.48-.42.88-.86.92-.36.03-6.43-.6-8.28-.86-.34-.04-.35-.04-.45-.14-.18-.13-.26-.38-.24-.63.04-.5.42-.88.9-.92.1-.01.2 0 .64.05z"/><path d="m16.26 34.18c-.13 0-.31-.03-.76-.12-4.23-.74-7.91-1.31-10.08-1.56-.54-.07-.84-.44-.79-.99.05-.61.55-1.17 1.1-1.22.59-.05 7.93 1.09 10.14 1.53l.38.08c.21.04.35.07.42.08.52.1.8.5.76 1.05-.05.58-.53 1.1-1.07 1.15-.04-.01-.07 0-.1 0zm-10.47-3.39c-.01 0-.02 0-.02 0-.27.02-.61.36-.64.76-.02.29.08.42.35.45 2.18.25 5.86.82 10.11 1.56.54.11.64.11.71.11.3-.03.59-.35.62-.69.02-.29-.09-.46-.33-.51-.04 0-.21-.03-.44-.08l-.38-.07c-2.4-.49-9.36-1.53-9.98-1.53zm8.94-2.73c-1.09 0-4.74-.42-6.86-.8-.75-.14-.87-.61-.83-.99.05-.58.54-1.13 1.06-1.18.13-.01.28.01 1.66.19l.08.01c2.58.36 4.02.53 5.33.6.34.01.51.13.61.25.11.12.24.35.21.75-.05.62-.5 1.11-1.07 1.16-.05.01-.12.01-.19.01zm-6.58-2.47c-.01 0-.01 0-.01 0-.27.02-.58.39-.6.72-.02.23.04.38.42.45 2.2.4 6.21.85 6.92.79.33-.03.59-.32.62-.71.01-.12 0-.27-.08-.36-.05-.06-.14-.09-.26-.09-1.34-.07-2.79-.24-5.39-.61l-.08-.01c-1.04-.13-1.44-.18-1.54-.18zm8.63-2.78c-.7 0-6.56-.62-8.29-.86-.35-.04-.44-.05-.59-.21-.21-.14-.34-.47-.31-.83.05-.61.52-1.1 1.12-1.15.13-.01.25 0 .69.05 3.49.42 6.59.76 7.71.83.32.01.5.15.6.26.16.18.23.43.2.75-.05.6-.52 1.1-1.09 1.15 0 .01-.02.01-.04.01zm-7.97-2.55c-.02 0-.04 0-.05 0-.36.03-.64.32-.67.69-.01.17.04.34.13.4 0 0 .06.06.06.06.02.01.12.02.23.03 1.94.27 7.71.86 8.24.86h.02c.32-.03.6-.33.63-.69.01-.12 0-.28-.08-.38-.05-.06-.14-.09-.25-.09-1.13-.08-4.24-.41-7.74-.84-.31-.02-.44-.04-.52-.04z"/><path d="m9.72 39.67c.03.09.03.09.09.5.25 1.28.3 1.47 1.06 4 .05.17.06.28.05.4-.04.42-.39.77-.85.81-.31.03-.52-.09-.59-.32-.14-.41-.8-3.18-1-4.11-.12-.57-.13-.66-.12-.74.03-.39.4-.74.83-.78.23-.02.44.07.53.24zm9.66-.76c-.02.28-.81 2.5-1.3 3.65-1.11 2.63-2.15 4.19-3.97 6.04-1.28 1.27-2.47 2.18-2.9 2.22-.45.04-.74-.3-.7-.78.02-.21.12-.41.3-.55.05-.04.06-.06.4-.28 3.48-2.47 5.11-4.95 6.76-10.31.12-.41.36-.61.75-.65.4-.04.69.25.66.66zm-6.15-.09c.04.08.07.17.12.45.12.74.75 3.03 1.02 3.67.04.12.06.26.05.36-.03.39-.37.72-.78.75-.31.03-.54-.09-.62-.31-.28-.7-1.18-4.17-1.16-4.45.03-.35.44-.72.83-.76.25-.02.46.08.54.29z"/><path d="m11.14 51.07c-.24 0-.46-.09-.62-.25-.2-.2-.29-.49-.26-.81.03-.29.17-.55.4-.73.07-.05.13-.11.42-.29 3.41-2.42 5.03-4.89 6.65-10.17.15-.51.46-.78.97-.82.26-.02.51.06.69.24s.26.42.24.69c-.03.34-.85 2.63-1.32 3.72-1.12 2.64-2.17 4.24-4.03 6.12-1.09 1.08-2.46 2.24-3.05 2.3-.03 0-.06 0-.09 0zm7.64-12.57c-.01 0-.03 0-.04 0-.29.03-.45.16-.54.47-1.66 5.41-3.33 7.95-6.85 10.44-.26.17-.32.21-.35.24-.16.12-.23.26-.25.41-.01.17.03.32.12.41.08.08.19.11.31.1.26-.02 1.29-.71 2.74-2.15 1.81-1.82 2.83-3.38 3.92-5.96.52-1.21 1.26-3.34 1.28-3.57.01-.12-.02-.23-.1-.3-.05-.06-.14-.09-.24-.09zm-8.79 7.14c-.37 0-.65-.19-.75-.5-.14-.42-.81-3.22-1-4.13-.12-.57-.14-.69-.13-.82.04-.51.51-.95 1.06-1 .32-.03.64.11.77.37.01.01.01.03.02.04.03.09.03.09.1.54.24 1.24.29 1.43 1.05 3.97.06.18.08.32.06.49-.05.55-.5.99-1.08 1.04-.04 0-.07 0-.1 0zm-.74-5.96c-.01 0-.03 0-.04 0-.31.03-.58.28-.61.55 0 .06.01.16.12.67.2.96.87 3.71.99 4.09.04.14.2.16.33.15.34-.03.6-.28.62-.58.01-.09 0-.16-.04-.3-.75-2.5-.81-2.73-1.06-4.03-.06-.35-.06-.39-.08-.45-.03-.06-.12-.1-.23-.1zm4.31 4.63c-.37 0-.66-.18-.77-.48-.23-.58-1.2-4.17-1.17-4.56.04-.47.54-.94 1.06-.99.35-.03.66.14.79.43.06.12.09.24.14.51.12.7.73 2.97 1 3.61.06.18.08.35.07.48-.04.51-.48.93-1.01.98-.04.02-.08.02-.11.02zm-.81-5.53c-.01 0-.03 0-.04 0-.27.02-.58.3-.6.53 0 .3.86 3.64 1.14 4.34.06.17.28.17.37.16.29-.03.53-.26.55-.53.01-.07-.01-.17-.04-.26-.28-.66-.91-2.97-1.03-3.71-.04-.27-.06-.32-.09-.37 0-.01-.01-.01-.01-.02-.05-.12-.17-.14-.25-.14z"/><path d="m7.09 62.78c-.49.39-.71.52-1.02.55-.41.04-.69-.27-.66-.72.02-.27.16-.51.37-.68.05-.04.05-.04.49-.32 2.42-1.86 3.98-3.93 3.98-5.32.04-.48.4-.86.83-.9.45-.04.71.22.68.64 0 .02-.01.07-.03.13 2.03-.21 3.67-.44 4.63-.67.19-.26.44-.43.74-.45.55-.05.86.31.81.93-.08.89-1.32 4.05-2.35 6.02-1.52 2.87-3.08 4.73-5.54 6.64-1.46 1.13-3.13 2.15-3.56 2.19-.45.04-.76-.3-.72-.8.02-.27.16-.52.38-.7.11-.06.11-.06.64-.34 4.62-2.46 7.65-6.35 9.3-12.01-.9.18-2.42.39-4.68.66-1 1.91-2.42 3.63-4.29 5.15z"/><path d="m6.37 71.07c-.24 0-.46-.09-.63-.25-.2-.2-.3-.49-.27-.82s.2-.65.48-.87c.14-.09.14-.09.69-.37 4.44-2.36 7.41-6.12 9.06-11.46-.84.15-2.11.32-4.16.57-1.01 1.91-2.46 3.63-4.29 5.12-.5.4-.76.57-1.15.6-.27.02-.5-.06-.68-.23-.19-.19-.28-.45-.25-.75.03-.32.19-.62.45-.85.07-.05.07-.05.51-.34 2.35-1.8 3.87-3.81 3.87-5.11.05-.61.5-1.1 1.05-1.15.29-.03.55.05.73.23.13.13.21.31.22.51 1.88-.2 3.33-.41 4.21-.61.23-.28.53-.45.86-.48s.6.06.8.26c.22.22.31.54.28.95-.08.91-1.32 4.11-2.38 6.12-1.54 2.9-3.11 4.79-5.61 6.72-1.35 1.04-3.14 2.19-3.69 2.24-.04-.03-.07-.03-.1-.03zm9.69-14.35c.07 0 .14.03.18.08.06.06.08.16.06.24-1.67 5.69-4.75 9.67-9.43 12.16-.53.27-.53.27-.64.33-.13.11-.24.31-.26.51-.01.18.03.33.13.42.08.08.18.11.32.1.3-.03 1.82-.89 3.43-2.14 2.44-1.88 3.97-3.72 5.47-6.56 1.01-1.93 2.25-5.09 2.32-5.93.02-.25-.03-.44-.14-.55-.09-.09-.22-.13-.4-.11-.27.02-.45.2-.56.35-.04.05-.09.08-.15.1-.93.22-2.54.45-4.66.67-.08.01-.17-.03-.23-.1-.05-.07-.07-.16-.03-.24.02-.14.01-.27-.07-.35-.07-.07-.19-.1-.33-.08-.31.03-.57.32-.6.67 0 1.45-1.56 3.56-4.08 5.5-.44.29-.44.29-.49.33-.15.13-.25.31-.26.5-.01.15.02.28.1.36.07.07.16.1.28.09.23-.02.38-.09.88-.49 1.82-1.48 3.24-3.18 4.23-5.08.04-.07.11-.12.19-.13 2.48-.29 3.83-.48 4.66-.65z"/><path d="m17.65 74.53c.33-.29.53-.4.75-.42.52-.05.83.3.78.88-.03.34-.29 1.17-.61 1.95-.71 1.73-1.85 3.52-3.14 4.91-1.03 1.11-2.12 2.05-3.66 3.1 1.44 1.53 1.62 1.76 1.59 2.13-.05.53-.5 1.01-.99 1.05-.34.03-.34.03-.97-.76-.91-1.12-2.82-3.09-3.9-4.02-.22-.17-.29-.35-.26-.66.04-.48.47-.88.97-.93.33-.03.44.07 2.23 1.83l.33.32c3.19-2.02 5.58-4.9 6.51-7.83-3.78.4-3.89.41-5.62.58l-3.85.35c-.84.09-1.53.17-1.7.18-.79.07-1.03.05-1.17-.09-.12-.13-.19-.35-.17-.58.03-.41.32-.78.65-.85.09-.03.11-.03.93-.1l1.03-.09c5.21-.47 7.39-.68 9.04-.84z"/><path d="m12.23 88.39c-.34 0-.46-.15-1.03-.86-.92-1.12-2.83-3.09-3.87-3.98-.27-.23-.37-.49-.34-.87.05-.59.58-1.1 1.19-1.16.45-.04.61.11 2.43 1.9l.19.18c2.94-1.9 5.14-4.51 6.12-7.22-3.29.35-3.55.37-5.07.52l-4.86.46c-.43.05-.75.08-.86.09-.79.07-1.14.07-1.37-.17-.18-.18-.27-.47-.24-.78.04-.53.41-.99.85-1.07.09-.03.09-.03.96-.1l1.03-.09c5.2-.47 7.39-.68 9.04-.84l1.16-.12c.33-.29.57-.4.83-.43.31-.03.58.06.78.25.21.21.31.52.27.9-.03.37-.3 1.22-.63 2.03-.72 1.76-1.88 3.58-3.19 4.99-1.03 1.11-2.08 2.01-3.46 2.97 1.28 1.36 1.5 1.63 1.46 2.11-.06.65-.6 1.23-1.22 1.28-.07.01-.12.01-.17.01zm-3.97-6.38c-.01 0-.02 0-.03 0-.38.03-.71.35-.74.7-.02.25.04.35.16.45 1.08.92 2.99 2.89 3.94 4.05.55.69.54.69.76.67.38-.03.73-.41.77-.83.02-.26-.16-.49-1.53-1.93-.05-.05-.08-.13-.07-.2s.05-.14.11-.18c1.47-1 2.55-1.92 3.61-3.06 1.27-1.37 2.4-3.13 3.1-4.84.34-.83.57-1.6.59-1.88.02-.22-.03-.4-.13-.5-.11-.11-.26-.12-.38-.11-.14.01-.29.07-.61.36-.04.03-.09.06-.14.06l-1.24.13c-1.65.16-3.84.37-9.04.84l-1.03.09c-.79.07-.82.07-.88.09-.22.04-.44.3-.47.63-.01.18.04.32.1.39.08.08.41.06.97.02.11-.01.42-.04.85-.09l.85-.09 4.02-.37c1.58-.15 1.8-.18 5.46-.56.08-.01.17.03.22.09s.07.15.04.23c-.95 3-3.36 5.9-6.62 7.96-.1.06-.22.05-.31-.03l-.33-.32c-1.58-1.56-1.81-1.77-2-1.77z"/><path d="m11.89 105.55c-.04.42-.42.79-.89.83-.48.04-.8-.25-.76-.69l1.13-13.3c.04-.44.42-.79.89-.83.46-.04.8.26.76.69z"/><path d="m10.91 106.64c-.27 0-.51-.09-.68-.26-.18-.18-.26-.43-.24-.71l1.13-13.3c.05-.55.53-1.01 1.12-1.06.31-.03.59.07.79.26.18.18.27.43.25.7l-1.13 13.3c-.04.54-.54 1.01-1.12 1.06-.04.01-.08.01-.12.01zm1.43-14.83c-.02 0-.04 0-.06 0-.35.03-.63.29-.66.61l-1.13 13.3c-.01.09 0 .22.09.31.08.08.22.12.39.11.34-.03.64-.3.66-.6l1.13-13.3c.01-.12-.02-.23-.1-.3-.07-.08-.18-.13-.32-.13z"/><path d="m13.7 118.05c-.14 1.68-.48 2.82-1.11 3.77-.47.69-1.4 1.58-2.52 2.44-.97.73-1.58 1.1-1.83 1.13-.41.04-.77-.39-.73-.87.03-.3.17-.58.4-.74.04-.02.04-.02.38-.23 3.03-1.95 3.65-2.81 3.85-5.38l.29-3.36-.71.08c-1.38.14-1.44.14-2.01.19-.24.02-.74.06-1.3.1-.75 1.58-2.35 3.37-3.07 3.43-.48.04-.74-.29-.7-.84.02-.28.08-.38.39-.63.83-.69 1.63-1.67 1.96-2.44.32-.71.62-2.08.71-3.16l.07-.99c.04-.44.37-.75.85-.8.39-.03.67.17.69.5.01.09-.01.48-.04.92-.06.76-.18 1.58-.36 2.39 1.18-.09 1.3-.1 1.89-.15 2.01-.18 6.69-.73 8.04-.95l.14-.01c.46-.04.71.22.67.73-.05.6-.34.86-1.1.92-.26.02-1 .1-2.1.25-.45.04-.57.07-2.46.29z"/><path d="m8.18 125.63c-.23 0-.44-.09-.61-.27-.22-.22-.34-.55-.31-.88.03-.39.22-.72.51-.92l.39-.23c2.98-1.92 3.53-2.69 3.73-5.19l.26-3.06-.4.05c-1.38.14-1.45.14-2.02.19-.23.02-.66.06-1.17.09-.76 1.52-2.35 3.36-3.21 3.44-.36.03-.59-.11-.71-.23-.2-.2-.29-.5-.26-.88s.14-.52.48-.8c.8-.67 1.58-1.63 1.89-2.35.3-.69.6-2.01.69-3.08l.07-.99c.05-.57.47-.97 1.08-1.03.27-.02.52.05.7.2.16.13.25.32.26.54.01.12-.01.57-.04.96-.06.67-.16 1.39-.29 2.09.88-.06 1.03-.08 1.56-.12 2.05-.18 6.7-.73 8.02-.95l.16-.01c.38-.03.59.1.71.22s.27.36.23.78c-.06.73-.46 1.07-1.33 1.15-.21.02-.92.1-2.09.25-.25.02-.39.04-.75.08-.3.04-.75.09-1.51.18l-.27 3.2c-.15 1.73-.49 2.89-1.15 3.89-.48.71-1.42 1.62-2.58 2.5-1.34 1.02-1.76 1.16-1.96 1.18-.03 0-.06 0-.08 0zm4.24-11.08c.06 0 .13.03.17.07.05.05.08.13.07.2l-.29 3.36c-.21 2.64-.87 3.58-3.96 5.57l-.39.23c-.15.11-.26.31-.28.54-.01.18.05.36.17.48.05.05.14.13.29.12.08-.01.42-.1 1.71-1.08 1.12-.85 2.02-1.71 2.47-2.38.6-.92.92-2.01 1.06-3.65l.29-3.4c.01-.12.1-.21.22-.23.89-.1 1.38-.16 1.71-.2.37-.05.52-.06.76-.08 1.01-.14 1.8-.23 2.1-.25.7-.06.84-.27.87-.69.02-.18-.01-.32-.08-.39-.08-.08-.21-.08-.32-.07l-.14.01c-1.31.22-5.98.77-8.04.95-.58.05-.71.06-1.89.15-.1 0-.16-.03-.21-.09s-.07-.14-.06-.22c.17-.79.29-1.6.35-2.35.04-.47.05-.81.05-.87-.01-.09-.04-.16-.09-.2-.07-.06-.19-.09-.33-.08-.36.03-.6.25-.62.57l-.07.99c-.09 1.12-.41 2.51-.73 3.24-.35.79-1.16 1.81-2.03 2.53-.29.23-.29.27-.3.46-.02.22.02.39.11.48.07.07.17.1.31.09.57-.05 2.12-1.72 2.87-3.29.04-.08.12-.14.21-.14.56-.03 1.05-.07 1.29-.1.57-.05.64-.06 2.01-.19l.7-.08c.02-.01.03-.01.04-.01z"/><path d="m9.72 129.65c.03.09.03.09.09.5.25 1.28.3 1.47 1.06 4 .05.17.06.28.05.4-.04.42-.39.77-.85.81-.31.03-.52-.1-.59-.32-.14-.41-.8-3.18-1-4.11-.12-.57-.13-.66-.12-.74.03-.39.4-.74.83-.78.22-.02.44.07.53.24zm9.66-.76c-.02.28-.81 2.5-1.3 3.65-1.11 2.63-2.15 4.19-3.97 6.04-1.28 1.27-2.47 2.18-2.9 2.22-.45.04-.74-.3-.7-.78.02-.21.12-.41.3-.55.05-.04.06-.06.4-.28 3.48-2.47 5.11-4.95 6.76-10.31.12-.41.36-.61.75-.65s.69.25.66.66zm-6.15-.1c.04.08.07.17.12.45.12.74.75 3.03 1.02 3.67.04.12.06.26.05.36-.03.39-.37.72-.78.75-.31.03-.54-.09-.62-.31-.28-.7-1.18-4.17-1.16-4.45.03-.35.44-.72.83-.76.24-.01.46.09.54.29z"/><path d="m11.14 141.05c-.24 0-.46-.09-.62-.25-.2-.2-.29-.49-.27-.81.03-.29.17-.55.4-.73.07-.05.13-.11.41-.29 3.41-2.42 5.03-4.89 6.65-10.17.15-.51.46-.78.97-.82.26-.02.51.06.69.24s.26.42.24.69c-.03.34-.85 2.64-1.32 3.72-1.11 2.64-2.17 4.24-4.03 6.12-1.09 1.08-2.46 2.24-3.05 2.29-.01.01-.04.01-.07.01zm7.64-12.58c-.01 0-.03 0-.04 0-.29.03-.45.16-.54.47-1.66 5.41-3.33 7.95-6.85 10.44-.26.17-.32.22-.35.25-.16.12-.23.25-.24.41-.01.17.03.32.12.41.08.08.19.11.31.1.26-.02 1.29-.71 2.74-2.15 1.81-1.82 2.83-3.38 3.92-5.96.52-1.21 1.25-3.33 1.28-3.57.01-.12-.02-.23-.1-.3-.06-.06-.15-.1-.25-.1zm-8.79 7.15c-.37 0-.65-.19-.75-.5-.14-.42-.81-3.22-1-4.13-.13-.6-.14-.69-.13-.82.04-.51.51-.95 1.06-1 .33-.03.64.11.77.37.01.01.01.03.02.04.03.09.03.09.1.54.24 1.24.29 1.43 1.05 3.97.06.18.08.32.06.49-.05.55-.5.99-1.08 1.04-.04 0-.07 0-.1 0zm-.74-5.96c-.01 0-.03 0-.04 0-.3.03-.58.28-.61.55 0 .06.01.17.12.67.2.96.87 3.71.99 4.09.04.14.2.16.33.15.34-.03.6-.28.62-.58.01-.09 0-.16-.04-.3-.77-2.57-.82-2.76-1.07-4.03-.06-.35-.06-.39-.08-.45-.02-.07-.12-.1-.22-.1zm4.31 4.63c-.37 0-.66-.18-.77-.48-.23-.58-1.2-4.17-1.17-4.56.04-.47.54-.94 1.06-.99.35-.03.66.14.79.43.06.12.09.24.14.51.12.7.73 2.97 1 3.61.06.18.08.35.07.48-.04.51-.48.93-1.01.98-.04.01-.08.02-.11.02zm-.81-5.53c-.01 0-.03 0-.04 0-.27.02-.58.3-.6.53 0 .3.86 3.64 1.14 4.34.06.17.28.17.37.16.29-.03.53-.26.55-.53.01-.07-.01-.17-.04-.26-.28-.66-.91-2.97-1.03-3.71-.04-.27-.06-.32-.09-.37 0-.01-.01-.01-.01-.02-.05-.13-.18-.14-.25-.14z"/><path d="m10.94 150.5c1.47.91 3.76 1.89 5.66 2.39.42.1.58.35.55.8-.04.53-.44.97-.92 1.01-.19.02-.29-.01-.79-.19-1.78-.67-3.28-1.38-4.67-2.23-.33 3.54-.36 3.79-.49 4.91-.15 1.33-.24 2.25-.26 2.52-.03.37-.04.44-.1.57-.13.33-.46.55-.83.58-.48.04-.76-.25-.72-.76.02-.23.06-.53.11-.92.26-2.48.63-6.17 1.08-11.06.23-2.53.23-2.53.29-2.68.14-.28.49-.5.78-.52.21-.02.45.08.59.25.16.16.18.3.14.73l-.04.34-.22 2.6-.08.76z"/><path d="m8.99 161.11c-.26 0-.47-.08-.63-.24-.13-.13-.28-.38-.25-.8.01-.18.04-.39.08-.66l.04-.28c.2-1.93.56-5.42 1.07-11.05.24-2.57.24-2.57.31-2.76.19-.36.6-.64.99-.67.29-.03.61.11.8.33.22.23.24.46.2.91l-.05.35-.37 4.12c1.5.9 3.67 1.81 5.46 2.28.53.13.78.49.73 1.06-.06.65-.55 1.19-1.15 1.24-.24.02-.39-.02-.89-.21-1.65-.62-3.05-1.27-4.37-2.04l-.04.37c-.27 2.82-.29 3.12-.41 4.15-.15 1.33-.24 2.25-.26 2.51-.03.39-.04.49-.12.66-.16.4-.56.68-1.04.72-.02.01-.06.01-.1.01zm1.68-15.95c-.01 0-.02 0-.03 0-.21.02-.48.2-.58.39-.04.09-.05.19-.27 2.59-.52 5.63-.87 9.13-1.08 11.06l-.04.29c-.03.26-.06.46-.08.63-.01.13 0 .3.1.4.09.09.24.1.35.09.29-.03.53-.19.62-.43.05-.1.05-.13.08-.49.02-.27.12-1.2.27-2.53.12-1.03.15-1.33.41-4.15l.07-.76c.01-.09.06-.16.14-.2s.17-.04.24.01c1.39.84 2.86 1.54 4.63 2.21.5.19.55.19.68.18.35-.03.66-.38.69-.78.03-.32-.06-.46-.36-.53-1.89-.5-4.2-1.47-5.73-2.42-.08-.05-.13-.14-.12-.23l.43-4.64c.04-.41 0-.44-.07-.52-.07-.11-.22-.17-.35-.17z"/><path d="m6.1 174.81c-2.33.2-3.66-1.3-3.44-3.93s2.68-5.04 5.37-5.27c2.37-.21 3.93 1.23 3.74 3.46-.08.88-.41 1.96-.92 2.99-1.29 2.58-2.65 5.03-4.8 8.65-.24.4-.5.58-.83.61-.44.04-.8-.32-.76-.79.02-.23.06-.31.45-.93.95-1.46 1.82-2.93 3.22-5.44-.71.39-1.33.59-2.03.65zm4.17-5.61c.12-1.35-.85-2.16-2.42-2.02-1.86.16-3.39 1.71-3.54 3.56-.15 1.71.54 2.54 2.01 2.41.82-.07 1.63-.36 2.39-.85.22-.14.66-.49.68-.52.56-1.13.82-1.86.88-2.58z"/><path d="m5.16 181.57c-.25 0-.49-.1-.67-.27-.2-.2-.31-.49-.28-.79s.1-.43.49-1.04c.87-1.33 1.66-2.66 2.82-4.74-.46.19-.92.29-1.41.34-1.15.1-2.1-.19-2.76-.85-.75-.74-1.07-1.9-.95-3.35.23-2.74 2.8-5.25 5.6-5.5 1.27-.11 2.37.23 3.1.96.68.68 1 1.66.91 2.77-.08.9-.42 2.02-.95 3.08-1.31 2.62-2.7 5.13-4.81 8.67-.29.46-.61.69-1.02.73-.02-.01-.05-.01-.07-.01zm2.97-7.67c.06 0 .13.02.18.07.08.08.1.2.04.3-1.39 2.5-2.26 3.97-3.23 5.46-.4.63-.4.65-.41.82-.01.15.04.29.14.39.09.09.22.14.35.12.18-.02.39-.09.64-.49 2.1-3.53 3.49-6.03 4.79-8.63.5-1 .82-2.06.89-2.9.08-.97-.18-1.79-.76-2.37-.63-.62-1.58-.91-2.71-.82-2.58.23-4.93 2.54-5.15 5.04-.11 1.3.17 2.32.8 2.95.55.55 1.37.79 2.37.71.67-.06 1.25-.25 1.93-.63.05-.01.09-.02.13-.02zm-2.09-.49c-.6 0-1.08-.17-1.42-.51-.46-.45-.64-1.19-.56-2.19.17-1.99 1.79-3.61 3.77-3.79.9-.08 1.66.14 2.14.62.42.41.6.99.55 1.67-.06.75-.32 1.49-.91 2.67-.08.15-.76.62-.77.62-.77.51-1.64.81-2.5.89-.1.02-.21.02-.3.02zm2.14-6c-.1 0-.21 0-.31.01-1.74.15-3.17 1.58-3.32 3.33-.07.84.07 1.44.41 1.79.29.29.74.41 1.33.35.78-.07 1.57-.35 2.27-.81.2-.13.57-.42.62-.48.53-1.06.77-1.76.82-2.44.04-.53-.09-.97-.4-1.27-.3-.31-.81-.48-1.42-.48z"/><path d="m17.46 169.63c2.46-.22 4.11 1.62 3.87 4.34-.25 2.95-2.26 5.09-5.02 5.33-2.84.25-4.64-1.61-4.39-4.51.23-2.73 1.75-5.29 5.13-8.71.64-.65 1.22-1.36 1.63-1.98.19-.28.44-.45.72-.47.44-.04.72.28.68.76-.02.23-.1.4-.32.67-.71.94-1.16 1.44-2.1 2.4-.97.98-1.62 1.75-2.5 2.93.77-.44 1.52-.69 2.3-.76zm-3.97 5.03c-.17 2.01.99 3.2 2.96 3.03 1.88-.16 3.18-1.55 3.35-3.52.16-1.91-.85-3.1-2.47-2.96-.7.06-1.55.35-2.27.75-.36.23-1.12.79-1.16.89-.23.61-.36 1.22-.41 1.81z"/><path d="m15.83 179.57c-1.21 0-2.27-.39-3.01-1.13-.87-.87-1.27-2.17-1.15-3.67.24-2.81 1.75-5.38 5.2-8.87.62-.62 1.18-1.31 1.6-1.94.23-.35.55-.55.91-.59.28-.02.52.06.7.23.19.19.28.47.25.8-.02.28-.12.5-.37.81-.69.91-1.13 1.41-2.12 2.42-.71.71-1.25 1.31-1.86 2.09.48-.18.96-.29 1.45-.33l.02.25-.02-.25c1.18-.1 2.26.25 3.02 1.01.85.85 1.25 2.13 1.13 3.6-.26 3.07-2.37 5.31-5.25 5.56-.16.01-.33.01-.5.01zm3.64-15.7c-.02 0-.03 0-.05 0-.2.02-.39.15-.53.36-.43.66-1.02 1.38-1.66 2.02-3.37 3.4-4.83 5.88-5.06 8.56-.12 1.35.24 2.51 1 3.27.75.75 1.82 1.08 3.12.97 2.63-.23 4.55-2.28 4.79-5.1.11-1.32-.24-2.46-.98-3.2-.66-.66-1.56-.96-2.62-.86-.75.07-1.47.3-2.2.72-.1.06-.23.04-.31-.05s-.08-.22-.01-.32c.91-1.23 1.57-2.01 2.53-2.96.97-.98 1.39-1.47 2.08-2.37.21-.26.25-.38.27-.54.01-.17-.02-.32-.11-.4-.08-.08-.18-.1-.26-.1zm-3.39 14.08c-.86 0-1.57-.26-2.08-.77-.59-.59-.86-1.47-.77-2.55.05-.64.19-1.25.43-1.89.11-.25 1.25-1 1.26-1.01.77-.43 1.66-.73 2.38-.79.79-.07 1.48.16 1.98.65.58.58.85 1.5.76 2.58-.18 2.1-1.58 3.58-3.57 3.75-.13.02-.26.03-.39.03zm1.5-6.51c-.08 0-.15 0-.23.01-.66.06-1.46.33-2.17.72-.35.22-.99.71-1.08.81-.19.54-.32 1.11-.37 1.7-.08.92.14 1.67.62 2.15.47.47 1.19.68 2.07.6 1.74-.15 2.96-1.45 3.12-3.3.08-.93-.14-1.71-.62-2.18-.33-.34-.79-.51-1.34-.51z"/><path d="m7.47 209.95c-.42 2.09-1.1 3.7-2.11 4.96-.61.77-.94 1.05-1.32 1.08-.46.04-.81-.3-.77-.76.02-.28.02-.28.61-.97 1.44-1.76 2.15-3.81 2.44-7.21l.46-5.42c.09-1.01.63-1.55 1.6-1.63l8.06-.7c1.01-.09 1.45.36 1.37 1.39l-1.02 12.04c-.13 1.5-.74 2.05-2.49 2.2-2.85.25-3.49.13-3.42-.65.05-.55.38-.89.92-.94.1-.01.15-.01.37 0 .59.02 1.59 0 2.19-.05.67-.06.86-.23.91-.83l.27-3.22zm.51-4.3-.13 1.52c-.05.58-.08.89-.15 1.31l7.94-.69.24-2.83zm8.22-4.35c.03-.35-.14-.51-.5-.48l-6.82.6c-.34.03-.55.24-.58.58l-.19 2.21 7.9-.69z"/><path d="m3.96 216.25c-.26 0-.5-.09-.68-.27-.2-.2-.29-.47-.27-.76.03-.36.07-.41.67-1.11 1.42-1.74 2.09-3.72 2.38-7.07l.46-5.42c.1-1.12.73-1.77 1.83-1.86l8.06-.7c.58-.05 1 .06 1.29.34.29.29.4.72.35 1.32l-1.02 12.04c-.14 1.63-.85 2.27-2.72 2.43-2.32.2-3.11.15-3.48-.22-.17-.17-.24-.4-.21-.7.06-.67.48-1.11 1.14-1.17.11-.01.17-.02.41 0 .55.02 1.54 0 2.15-.05.58-.05.64-.15.68-.61l.25-2.93-7.57.66c-.43 2.04-1.12 3.64-2.12 4.89-.59.74-.98 1.13-1.49 1.17-.04.02-.08.02-.11.02zm12.71-16.7c-.07 0-.14 0-.21.01l-8.06.7c-.86.08-1.3.52-1.38 1.41l-.46 5.42c-.29 3.41-1.01 5.54-2.49 7.35-.54.63-.54.63-.56.83-.01.15.03.28.12.37s.23.14.38.12c.29-.03.59-.28 1.14-.99.98-1.23 1.65-2.82 2.06-4.86.02-.11.11-.19.22-.2l8.06-.7c.08-.01.15.02.2.07s.08.12.07.2l-.27 3.22c-.06.73-.35.99-1.13 1.06-.62.05-1.63.07-2.22.05-.21-.01-.25-.01-.34 0-.42.04-.65.28-.69.71-.02.19.03.26.07.3.27.26 1.42.22 3.09.08 1.64-.14 2.14-.59 2.26-1.98l1.02-12.04c.04-.44-.03-.75-.21-.92-.13-.14-.36-.21-.67-.21zm-8.96 9.19c-.07 0-.14-.03-.18-.08-.05-.06-.08-.13-.06-.21.07-.42.09-.7.14-1.28l.13-1.54c.01-.12.11-.22.23-.23l7.9-.69c.08-.01.15.02.2.07s.08.12.07.2l-.24 2.83c-.01.12-.11.22-.23.23l-7.94.69c-.01.01-.01.01-.02.01zm.51-2.85-.12 1.31c-.04.43-.06.72-.1 1.02l7.41-.65.2-2.33zm-.11-1.44c-.07 0-.13-.03-.18-.07-.05-.05-.08-.12-.07-.2l.19-2.21c.04-.46.35-.77.8-.81l6.82-.6c.26-.02.46.04.6.17.14.14.19.33.17.58l-.19 2.21c-.01.12-.11.22-.23.23l-7.9.69c0 .01-.01.01-.01.01zm7.67-3.39c-.02 0-.04 0-.06 0l-6.82.6c-.22.02-.33.13-.35.35l-.16 1.92 7.4-.65.17-2c.01-.11-.01-.16-.03-.18-.03-.02-.07-.04-.15-.04z"/><path d="m8.25 229.59c.08-.11.08-.11.25-.29 1.03-1.07 2.16-2.58 2.79-3.72.2-.35.37-.49.62-.51.36-.03.66.24.63.58-.02.18-.14.43-.59 1.07l2.54-.22c.24-.41.5-.92.63-1.25.13-.31.35-.49.64-.51.38-.03.7.24.67.59-.02.23-.18.54-.53 1.05l3.19-.28c.28-.02.44.19.42.53-.03.34-.26.62-.51.64l-3.49.31-.1 1.22 3.07-.27c.28-.02.46.21.43.52-.03.34-.25.6-.53.63l-3.07.27-.1 1.2 3.07-.27c.27-.02.46.21.43.54-.03.32-.25.58-.53.61l-3.08.27-.1 1.31 3.66-.32c.27-.02.46.21.43.52-.03.35-.26.62-.53.64l-7.87.69c-.82.07-1.22-.33-1.14-1.2l.38-4.44c-.64.76-.9.97-1.21 1-.21.02-.42-.12-.52-.32l-.23 2.76c-.07.8-.5 1.24-1.27 1.31l-2.13.19c-.77.07-1.13-.3-1.07-1.1l.99-11.61c.07-.81.48-1.24 1.27-1.31l2.13-.19c.79-.07 1.13.29 1.07 1.1zm-3.03-1.7-.41 4.78c-.02.25.1.38.34.36l1.19-.1c.21-.02.37-.19.39-.42l.41-4.78zm2.04-1.51.37-4.41c.02-.23-.09-.36-.33-.34l-1.18.1c-.26.02-.39.14-.41.4l-.37 4.41zm2.99-3.53c-.29.03-.48-.2-.45-.56.03-.32.25-.57.54-.59l2.82-.25.06-.69c.02-.25-.06-.33-.31-.31l-2.63.23c-.27.02-.47-.22-.45-.56.03-.32.27-.59.55-.61l3.07-.27c.77-.07 1.13.31 1.07 1.1l-.27 3.17c-.07.78-.5 1.22-1.27 1.29l-3.08.27c-.27.02-.48-.22-.45-.54s.27-.6.55-.63l2.63-.23c.22-.02.35-.14.37-.38l.06-.69zm.74 9.81-.08.94c-.02.25.07.36.31.34l2.46-.21.11-1.31zm.2-2.36-.1 1.2 2.8-.25.1-1.2zm3-2.61-2.46.21c-.26.02-.35.14-.37.38l-.07.87 2.8-.24zm1.32-5.3c-.29.03-.48-.2-.45-.54s.25-.58.55-.61l2.89-.25.06-.69c.02-.23-.08-.33-.32-.31l-2.64.23c-.29.03-.48-.2-.45-.56.03-.34.25-.58.55-.61l3.09-.27c.77-.07 1.12.31 1.05 1.1l-.27 3.17c-.07.78-.5 1.22-1.25 1.29l-3.11.27c-.28.02-.46-.21-.43-.54.03-.34.25-.6.53-.63l2.66-.23c.22-.02.35-.15.37-.38l.06-.69z"/><path d="m10.51 235.4c-.38 0-.68-.11-.89-.32-.26-.26-.36-.65-.32-1.16l.31-3.7c-.34.35-.58.5-.88.53-.12.01-.23-.01-.33-.05l-.19 2.26c-.08.91-.61 1.46-1.5 1.53l-2.13.19c-.45.04-.8-.06-1.04-.29-.24-.24-.34-.6-.3-1.08l.99-11.61c.08-.94.58-1.45 1.5-1.53l2.13-.19c.46-.04.82.05 1.04.28.24.24.33.59.29 1.09l-.64 7.53c.96-1.05 1.94-2.38 2.5-3.41.05-.09.11-.18.17-.26l-1.3.11c-.19.02-.37-.05-.51-.18-.16-.15-.23-.38-.21-.63.04-.44.38-.82.78-.86l2.63-.23c.1-.01.13-.03.15-.16l.03-.4-2.52.22c-.2.02-.38-.05-.51-.18-.15-.15-.23-.38-.2-.65.04-.44.36-.78.77-.82l2.61-.23.04-.48c0-.02 0-.03 0-.04-.01 0-.03 0-.05 0l-2.63.23c-.19.02-.37-.05-.5-.18-.16-.16-.23-.39-.21-.65.04-.44.38-.8.77-.84l3.07-.27c.45-.04.81.06 1.04.29.24.24.34.6.3 1.08l-.27 3.17c-.08.9-.61 1.44-1.5 1.52l-.42.04c.15.16.22.37.2.58-.02.19-.11.4-.33.75l1.89-.17c.22-.39.45-.84.55-1.11.05-.11.11-.21.17-.3-.13-.02-.25-.08-.35-.17-.15-.15-.22-.38-.2-.64.04-.46.36-.82.76-.85l2.66-.23c.09-.01.13-.03.15-.16l.03-.39-2.59.23c-.19.02-.38-.05-.52-.18-.15-.15-.22-.38-.2-.63.04-.46.36-.8.77-.84l2.68-.23.04-.48c0-.02 0-.03 0-.04-.01 0-.03 0-.05 0l-2.64.23c-.2.02-.38-.05-.51-.18-.15-.15-.23-.38-.2-.65.04-.46.36-.8.77-.84l3.09-.27c.45-.04.79.06 1.02.29.24.24.34.6.3 1.09l-.27 3.17c-.08.9-.6 1.44-1.48 1.51l-1.86.16c.16.16.23.38.21.6-.02.2-.1.42-.29.73l2.68-.23c.19-.02.37.04.49.17.15.15.22.37.19.63-.04.46-.36.84-.74.87l-3.28.29-.06.72 2.78-.24c.2-.02.37.05.5.18.15.15.22.37.2.62-.04.46-.36.82-.76.85l-2.86.25-.06.7 2.78-.24c.18-.02.37.05.5.18.15.15.22.38.2.64-.04.44-.36.8-.76.84l-2.87.25-.07.8 3.36-.29c.19-.02.37.05.5.18.15.15.22.37.2.62-.04.47-.36.84-.76.87l-7.87.69c-.02 0-.09 0-.16 0zm-.58-6.15c.03 0 .06.01.1.02.1.04.16.14.15.25l-.38 4.44c-.03.36.03.62.17.77.14.14.37.19.7.16l7.87-.69c.15-.01.29-.19.3-.42.01-.1-.01-.18-.06-.22-.03-.03-.06-.04-.11-.03l-3.66.32c-.07.01-.15-.02-.2-.07s-.08-.12-.07-.2l.11-1.31c.01-.12.11-.22.23-.23l3.08-.27c.15-.01.28-.18.3-.38.01-.11-.01-.2-.06-.24-.02-.02-.05-.04-.1-.03l-3.07.27c-.07.01-.15-.02-.2-.07s-.08-.12-.07-.2l.1-1.2c.01-.12.11-.22.23-.23l3.07-.27c.15-.01.29-.19.3-.4.01-.1-.01-.18-.06-.22-.03-.03-.06-.04-.11-.03l-3.07.27c-.07.01-.15-.02-.2-.07s-.08-.12-.07-.2l.1-1.22c.01-.12.11-.22.23-.23l3.49-.31c.12-.01.27-.18.29-.42.01-.1-.01-.19-.05-.23-.01-.01-.03-.03-.1-.03l-3.19.28c-.08.01-.19-.04-.24-.12s-.04-.19.01-.27c.32-.47.47-.75.49-.93.01-.11-.04-.18-.08-.22-.08-.08-.2-.11-.31-.1-.2.02-.34.13-.43.36-.13.32-.39.84-.65 1.28-.04.07-.11.12-.19.12l-2.54.22c-.08.01-.19-.04-.24-.12s-.04-.19.01-.27c.36-.52.53-.81.54-.95.01-.08-.02-.15-.08-.21-.07-.07-.17-.11-.28-.1-.12.01-.23.05-.43.39-.63 1.15-1.76 2.66-2.83 3.77-.15.16-.15.15-.22.25-.06.09-.19.13-.29.09-.11-.04-.17-.14-.17-.26l.7-8.27c.03-.33-.02-.57-.15-.69-.12-.12-.34-.17-.65-.14l-2.13.19c-.67.06-.98.38-1.04 1.08l-.99 11.61c-.03.33.02.56.15.69.12.12.34.17.64.15l2.15-.16c.65-.06.99-.4 1.04-1.08l.23-2.76c.01-.11.09-.2.2-.22s.22.03.27.13c.06.12.17.2.27.19.2-.02.39-.15 1.04-.91.07-.07.14-.1.21-.1zm3.14-6.9c.07 0 .13.03.18.07.05.05.08.12.07.2l-.06.69c-.03.36-.25.58-.6.61l-2.63.23c-.14.01-.3.19-.32.4-.01.1.02.18.07.23.03.03.06.04.11.04l3.08-.27c.64-.06.99-.4 1.04-1.06l.27-3.17c.03-.33-.02-.56-.15-.69-.12-.12-.34-.17-.64-.15l-3.07.27c-.14.01-.3.17-.32.38-.01.11.02.2.07.25.03.03.07.04.11.04l2.63-.23c.13-.01.33-.01.46.12s.14.32.12.45l-.06.69c-.01.12-.11.22-.23.23l-2.82.25c-.17.01-.3.16-.32.36-.01.11.01.21.06.25.01.01.04.04.12.03l2.82-.25c0 .03 0 .03.01.03zm5.32-.47c.07 0 .13.03.18.07.05.05.08.12.07.2l-.06.69c-.03.35-.25.58-.6.61l-2.66.23c-.15.01-.29.19-.3.4-.01.11.01.19.06.24.02.02.03.04.1.03l3.11-.27c.63-.06.97-.4 1.02-1.06l.27-3.17c.03-.33-.02-.56-.15-.69-.12-.12-.33-.17-.63-.14l-3.09.27c-.17.01-.3.17-.32.38-.01.11.01.21.06.25.01.01.04.04.12.03l2.64-.23c.19-.02.35.03.45.13s.15.25.13.44l-.05.71c-.01.12-.11.22-.23.23l-2.89.25c-.17.02-.3.17-.32.38-.01.1.01.19.06.24.01.01.04.04.12.03l2.88-.25zm-7.22 12.31c-.16 0-.28-.05-.37-.14-.11-.11-.16-.27-.14-.48l.08-.94c.01-.12.11-.22.23-.23l2.8-.24c.08-.01.15.02.2.07s.08.12.07.2l-.11 1.31c-.01.12-.11.22-.23.23l-2.46.21c-.02.01-.05.01-.07.01zm.05-1.3-.06.73v.07h.04l2.25-.2.07-.8zm-6.11.39c-.2 0-.32-.08-.39-.15-.08-.08-.17-.23-.15-.48l.41-4.78c.01-.12.11-.22.23-.23l1.92-.17c.07-.01.15.02.2.07s.08.12.07.2l-.41 4.78c-.03.35-.29.62-.62.65l-1.19.1c-.02.01-.05.01-.07.01zm-.04-.5h.07l1.19-.1c.09-.01.16-.09.17-.19l.37-4.49-1.42.12-.39 4.57c0 .06.01.08.01.09zm6.02-1.02c-.07 0-.13-.03-.18-.07-.05-.05-.08-.12-.07-.2l.1-1.2c.01-.12.11-.22.23-.23l2.8-.25c.07-.01.15.02.2.07s.08.12.07.2l-.1 1.2c-.01.12-.11.22-.23.23l-2.8.25c-.01 0-.02 0-.02 0zm.33-1.23-.06.7 2.29-.2.06-.7zm-.13-1.13c-.07 0-.13-.03-.18-.07-.05-.05-.08-.12-.07-.2l.07-.87c.03-.38.23-.58.6-.61l2.46-.21c.07-.01.15.02.2.07s.08.12.07.2l-.1 1.22c-.01.12-.11.22-.23.23l-2.8.24c-.01 0-.02 0-.02 0zm2.63-1.44-2.16.19c-.12.01-.13.02-.15.16l-.05.57 2.29-.2zm-8.58-1.17c-.07 0-.13-.03-.18-.07-.05-.05-.08-.12-.07-.2l.37-4.41c.03-.38.25-.6.64-.63l1.18-.1c.24-.02.38.07.46.14.08.08.17.22.15.47l-.37 4.41c-.01.12-.11.22-.23.23l-1.92.17c-.02-.01-.03-.01-.03-.01zm2.02-4.91c-.01 0-.02 0-.03 0l-1.18.1c-.14.01-.17.04-.18.18l-.35 4.11 1.42-.12.36-4.2c0-.04 0-.06 0-.07-.02 0-.03 0-.04 0z"/><path d="m17.01 252.63c-.09 1.03-.67 1.62-1.66 1.71l-8.74.76c-1.01.09-1.47-.38-1.38-1.41l.99-11.65c.09-1.03.63-1.58 1.64-1.67l8.74-.76c1.01-.09 1.48.38 1.4 1.41zm-10.16.45c-.03.39.12.55.48.52l7.49-.66c.39-.03.62-.25.65-.64l.4-4.71-8.62.75zm9.14-6.93.38-4.51c.03-.37-.16-.55-.54-.52l-7.51.66c-.38.03-.55.22-.58.61l-.38 4.52z"/><path d="m6.38 255.37c-.45 0-.8-.12-1.04-.36-.29-.29-.41-.73-.36-1.33l.99-11.65c.1-1.14.74-1.8 1.87-1.9l8.74-.76c.58-.05 1.02.07 1.31.36s.41.73.36 1.32l-.99 11.61c-.1 1.15-.77 1.84-1.89 1.94l-8.74.76c-.09 0-.17.01-.25.01zm10.45-15.52c-.07 0-.14 0-.21.01l-8.74.76c-.89.08-1.34.54-1.41 1.44l-.99 11.65c-.04.44.04.75.21.93.17.17.47.24.9.21l8.74-.76c.87-.08 1.36-.57 1.43-1.48l.99-11.61c.04-.43-.04-.75-.22-.93-.14-.15-.38-.22-.7-.22zm-9.58 14c-.2 0-.36-.06-.48-.17-.14-.14-.2-.34-.17-.62l.4-4.73c.01-.12.11-.22.23-.23l8.62-.75c.07-.01.15.02.2.07s.08.12.07.2l-.4 4.71c-.04.5-.36.82-.88.86l-7.49.66c-.03 0-.07 0-.1 0zm.23-5.27-.38 4.52c-.02.18.02.22.03.23.02.02.07.03.19.02l7.49-.66c.28-.02.4-.14.42-.41l.37-4.41zm-.11-1.43c-.07 0-.13-.03-.18-.07-.05-.05-.08-.12-.07-.2l.38-4.52c.04-.52.32-.8.81-.84l7.51-.66c.27-.02.48.04.62.18s.2.35.18.6l-.38 4.51c-.01.12-.11.22-.23.23l-8.62.75c0 .02-.01.02-.02.02zm8.56-5.79c-.02 0-.04 0-.06 0l-7.51.66c-.22.02-.33.08-.35.39l-.36 4.22 8.12-.71.37-4.31c.01-.1 0-.17-.04-.21-.04-.02-.09-.04-.17-.04z"/><path d="m11.27 279.7-6.56.57c-.34.03-.54-.23-.51-.62.04-.42.26-.71.63-.76l6.56-.57.11-1.29c.03-.35.38-.67.79-.7.39-.03.71.22.68.57l-.11 1.29 6.75-.59c.31-.03.52.27.49.66s-.3.69-.61.72l-6.75.59-.15 1.77 5.12-.45c.93-.08 1.38.39 1.3 1.34l-.7 8.25c-.12 1.4-.58 1.84-2.09 1.98-2.54.22-3.01.14-2.95-.57.04-.48.34-.8.82-.85.09-.01.14-.01.32.01.51.01 1.3-.01 1.73-.05.52-.05.68-.2.72-.7l.65-7.63c.03-.3-.1-.43-.36-.41l-10.7.94c-.27.02-.42.2-.45.48l-.79 9.28c-.03.39-.36.68-.79.72s-.72-.2-.68-.59l.81-9.6c.08-.97.61-1.51 1.55-1.59l5.02-.44zm-4.28 7.12c-.31.03-.51-.2-.48-.56.03-.37.26-.62.58-.67l1.89-.17c-.1-.25-.27-.64-.43-.95-.07-.17-.11-.32-.1-.48.03-.35.4-.7.8-.74.22-.02.42.1.55.36.18.34.56 1.23.71 1.68l2.1-.18c.52-.89.76-1.31.99-1.81.14-.29.38-.47.66-.5.4-.03.73.25.7.61-.02.28-.25.69-.85 1.57l2.06-.18c.29-.03.49.22.46.57-.03.34-.27.62-.57.65l-3.9.34-.14 1.59 4-.35c.29-.03.49.22.46.57s-.28.64-.57.66l-4 .35-.24 2.8c-.03.37-.36.66-.77.7-.43.04-.7-.18-.67-.57l.24-2.8-3.85.34c-.29.03-.51-.24-.48-.57.03-.35.26-.62.59-.67l3.85-.34.14-1.59z"/><path d="m4.34 293.94c-.25 0-.48-.08-.63-.24-.16-.16-.23-.38-.21-.63l.81-9.6c.09-1.1.71-1.73 1.78-1.82l4.81-.42.11-1.27-6.27.55c-.21.02-.42-.05-.56-.19-.17-.16-.24-.41-.22-.7.05-.54.37-.92.84-.98l6.36-.56.09-1.08c.04-.48.49-.88 1.02-.93.28-.03.55.06.74.25.16.16.24.37.22.6l-.08 1 6.45-.56c.19-.02.38.05.52.19.17.18.26.44.24.74-.04.5-.4.91-.83.95l-6.54.57-.11 1.26 4.82-.42c.53-.05.94.07 1.22.35s.4.71.35 1.27l-.7 8.25c-.13 1.53-.69 2.06-2.32 2.2-1.94.17-2.69.17-3.03-.18-.2-.2-.21-.48-.19-.66.05-.61.45-1.02 1.05-1.07.1-.01.16-.01.37.01.46.01 1.25-.01 1.68-.05.4-.04.46-.1.5-.47l.65-7.63c.01-.16-.01-.14-.01-.14-.01 0-.03 0-.07 0l-2.33.2c.04.03.08.06.11.09.17.17.25.39.23.62-.02.28-.18.61-.6 1.25l1.54-.13c.19-.02.38.05.52.18.16.16.24.39.21.66-.04.46-.38.84-.79.87l-3.69.32-.09 1.09 3.71-.32c.2-.02.38.05.52.18.16.16.24.39.21.66-.04.47-.38.86-.8.89l-3.79.33-.22 2.59c-.04.49-.46.88-1 .93-.29.03-.56-.05-.73-.22-.16-.16-.23-.37-.21-.62l.21-2.5-3.55.31c-.21.02-.39-.05-.53-.19-.16-.16-.24-.4-.22-.65.04-.47.36-.83.8-.89l3.65-.32.09-1.09-3.43.3c-.21.02-.41-.05-.54-.19-.15-.15-.23-.38-.21-.64.04-.49.35-.83.8-.89l1.56-.14c-.09-.2-.19-.42-.29-.61-.1-.25-.14-.44-.12-.62.02-.27.18-.53.41-.71l-2.13.19c-.12.01-.21.06-.22.25l-.79 9.28c-.04.51-.46.9-1.02.95-.06 0-.09 0-.13 0zm6.93-14.49c.07 0 .13.03.18.07.05.05.08.12.07.2l-.15 1.77c-.01.12-.11.22-.23.23l-5.02.44c-.82.07-1.25.52-1.32 1.37l-.81 9.6c-.01.1.01.18.07.23.07.07.19.1.34.09.31-.03.54-.23.57-.49l.79-9.28c.04-.41.29-.67.68-.71l10.7-.94c.25-.02.4.07.47.15.12.12.17.3.15.53l-.65 7.63c-.05.62-.31.87-.95.92-.45.04-1.24.05-1.75.05-.18-.02-.22-.01-.3-.01-.35.03-.56.25-.6.62-.02.2.03.25.04.27.23.22 1.43.14 2.64.03 1.39-.12 1.76-.46 1.87-1.75l.7-8.25c.04-.41-.04-.7-.21-.87s-.44-.23-.82-.2l-5.12.45c-.07.01-.15-.02-.2-.07s-.08-.12-.07-.2l.15-1.77c.01-.12.11-.22.23-.23l6.75-.59c.19-.02.36-.23.38-.49.01-.14-.02-.28-.09-.34-.04-.04-.08-.05-.13-.05l-6.75.59c-.07.01-.15-.02-.2-.07s-.08-.12-.07-.2l.11-1.29c.01-.08-.02-.14-.07-.2-.08-.08-.2-.12-.34-.1-.29.03-.55.24-.57.47l-.11 1.29c-.01.12-.11.22-.23.23l-6.56.57c-.31.04-.38.35-.4.53-.01.14.01.25.07.31.01.01.06.06.17.05l6.56-.57c.02-.02.03-.02.03-.02zm-.8 9.63c.07 0 .13.03.18.07.05.05.08.12.07.2l-.24 2.8c-.01.1.01.18.06.23.06.06.18.09.34.08.29-.03.53-.23.55-.47l.24-2.8c.01-.12.11-.22.23-.23l4-.35c.17-.02.32-.21.34-.44.01-.11-.02-.21-.07-.27-.03-.03-.07-.05-.12-.04l-4 .35c-.07.01-.15-.02-.2-.07s-.08-.12-.07-.2l.14-1.59c.01-.12.11-.22.23-.23l3.9-.34c.17-.01.32-.2.34-.42.01-.11-.02-.21-.07-.27-.03-.03-.08-.04-.12-.04l-2.06.18c-.1.01-.19-.04-.24-.12s-.04-.19.01-.27c.56-.82.79-1.22.81-1.45.01-.1-.04-.18-.09-.22-.08-.08-.2-.13-.34-.11-.19.02-.35.14-.45.36-.23.51-.48.94-1 1.82-.04.07-.11.12-.19.12l-2.1.18c-.12.01-.22-.06-.26-.17-.15-.44-.53-1.33-.7-1.64-.08-.16-.19-.23-.31-.22-.27.02-.55.27-.57.51-.01.1.02.22.08.37.16.3.34.7.43.95.03.07.02.16-.02.22s-.11.11-.19.12l-1.89.17c-.2.03-.33.19-.36.44-.01.11.01.2.06.24.03.03.08.05.15.04l3.73-.33c.07-.01.15.02.2.07s.08.12.07.2l-.14 1.59c-.01.12-.11.22-.23.23l-3.85.34c-.2.03-.34.2-.36.44-.01.1.02.2.08.25.04.04.08.05.13.05l3.85-.34c.01.01.02.01.02.01zm-.72-5.91c.1.08.2.19.27.33.15.3.48 1.04.66 1.53l1.77-.16c.46-.79.69-1.21.91-1.68.07-.15.16-.27.27-.37z"/><path d="m15.81 299.2c-7.85.88-7.85.88-8.59.94-1 .09-1.27.08-1.41-.07-.12-.13-.21-.37-.19-.6.04-.51.41-.86.93-.91.07-.01.28-.02.48-.02.29-.01.6-.03 1.15-.08 2.8-.24 6.7-.66 8.71-.94.26-.25.56-.4.84-.42.5-.04.78.3.72.9-.05.62-.54 2.54-.93 3.75-1.21 3.59-2.67 5.79-5.47 8.19-1.47 1.27-3.23 2.46-3.69 2.5s-.79-.32-.75-.83c.02-.27.15-.52.33-.68.06-.06.06-.06.49-.29 2.21-1.3 4.51-3.33 5.51-4.88 1.31-1.94 2.34-4.49 2.68-6.67z"/><path d="m8.29 312.71c-.25 0-.48-.09-.65-.26-.21-.21-.31-.51-.28-.84s.18-.65.42-.85c.07-.07.08-.07.53-.32 2.17-1.28 4.45-3.29 5.42-4.79 1.24-1.84 2.21-4.2 2.59-6.25l-.48.05c-7.85.88-7.85.88-8.59.95-1.07.09-1.39.09-1.61-.15-.18-.19-.28-.5-.26-.79.05-.62.52-1.08 1.16-1.14.07-.01.29-.03.5-.03.28-.01.58-.03 1.13-.08 2.61-.23 6.51-.63 8.61-.93.29-.26.61-.41.93-.44.29-.03.55.06.73.24.21.21.3.54.27.94-.06.67-.56 2.63-.94 3.81-1.22 3.63-2.73 5.88-5.54 8.31-1.38 1.2-3.26 2.51-3.83 2.56-.05.01-.08.01-.11.01zm8.32-13.85c.07 0 .13.03.18.08.05.06.08.13.07.21-.34 2.19-1.38 4.78-2.72 6.77-1.02 1.58-3.32 3.61-5.59 4.95-.4.22-.41.22-.44.25-.15.13-.24.32-.26.52-.02.19.03.35.13.45.08.09.21.12.34.11.32-.03 1.9-1.02 3.55-2.44 2.74-2.36 4.21-4.55 5.39-8.08.41-1.26.87-3.12.92-3.7.02-.25-.02-.44-.12-.54-.07-.07-.18-.1-.33-.09-.22.02-.47.15-.69.36-.04.04-.09.06-.14.07-2.09.29-6.07.71-8.72.94-.56.05-.87.08-1.16.08-.2 0-.4.02-.47.02-.4.03-.67.3-.7.68-.01.17.05.33.12.4.08.09.67.04 1.21-.01.74-.06.74-.06 8.58-.94l.81-.09c.03.01.04 0 .04 0z"/><path d="m7.86 332.86c-.03.34-.4.69-.77.72-.3.03-.55-.16-.65-.49l-.01-.07v-.05l.32-3.21c-1.91.17-2.01.18-2.64.25-1.27.16-2.17.26-2.49.29-.68.06-1.05-.24-1-.81.03-.41.07-.48.93-1.7 1.61-2.32 3.43-5.33 5.49-9.07.15-.28.3-.38.58-.4.43-.04.73.27.69.71-.01.18-.03.21-.44.9l-.74 1.29c-1.62 2.78-3.19 5.36-4.59 7.47l.9-.1.7-.06 1.19-.12.73-.06.82-.09.43-4.38c.05-.37.41-.72.8-.76.35-.03.55.14.65.52l.01.07-.02.05-.43 4.34 1.17-.12 1.34-.12c.48-.06.76-.08.94-.1.38-.03.44-.04.53.02.2.09.32.36.29.64-.03.3-.21.65-.44.79-.08.06-.12.06-.43.09l-.54.05-1.03.09-1 .1-1 .09z"/><path d="m7.04 333.83c-.39 0-.71-.26-.83-.67l-.02-.11c0-.02 0-.09 0-.11l.29-2.91c-1.62.14-1.74.15-2.33.22-1.33.17-2.21.26-2.5.29-.55.05-.86-.13-1.01-.28-.13-.13-.29-.38-.25-.8.04-.48.12-.61.97-1.82 1.61-2.32 3.46-5.37 5.48-9.05.19-.34.41-.5.78-.53.28-.02.53.06.71.24.19.19.27.45.25.74-.02.24-.06.31-.47 1l-.74 1.29c-1.66 2.85-3.07 5.16-4.3 7.04l3.61-.35.41-4.18c.06-.5.52-.94 1.03-.98.27-.02.75.04.91.71l.01.09c0 .04 0 .08-.01.12l-.41 4.03 2.21-.21c.47-.06.76-.08.93-.1.41-.04.54-.05.7.07.25.11.43.47.4.87-.03.39-.27.81-.56.99-.12.09-.2.1-.54.13l-3.36.31-.3 3c-.04.45-.51.9-.99.94-.02.02-.05.02-.07.02zm-.28-4.32c.07 0 .13.03.18.07.05.05.08.13.07.2l-.32 3.21v.06c.05.17.17.29.38.27.24-.02.52-.27.54-.49l.32-3.21c.01-.12.11-.21.23-.22l3.56-.33c.15-.01.27-.02.29-.03.19-.12.34-.39.36-.63.02-.19-.06-.36-.15-.39-.07-.03-.22-.02-.41 0-.17.02-.46.04-.93.1l-2.52.24c-.07.01-.15-.02-.2-.07s-.08-.13-.07-.2l.43-4.34c0-.02.01-.04.01-.06v-.01c-.08-.31-.22-.32-.38-.31-.27.02-.54.28-.57.54l-.43 4.37c-.01.12-.1.21-.22.22l-4.34.43c-.09.01-.19-.04-.24-.12s-.05-.19.01-.27c1.3-1.95 2.8-4.39 4.58-7.45l.74-1.29c.39-.67.39-.68.4-.8.01-.14-.03-.26-.1-.34-.08-.08-.19-.11-.32-.1-.19.02-.27.06-.39.27-2.03 3.7-3.88 6.76-5.51 9.1-.85 1.21-.86 1.24-.88 1.58-.01.18.02.31.11.4.12.11.33.16.62.14.28-.02 1.15-.12 2.48-.29.64-.07.73-.08 2.65-.25z"/><path d="m22.25 318.37c.66 1.14.89 2.8.7 5.04-.43 5.06-2.41 7.89-5.73 8.18-1.74.15-2.72-.31-3.61-1.67-.81-1.23-1.12-3.21-.92-5.63.37-4.41 2.7-7.6 5.74-7.87 1.71-.15 2.97.5 3.82 1.95zm-6.63 1.46c-.67 1.11-1.16 2.7-1.29 4.31-.18 2.11.03 3.72.62 4.71.54.9 1.25 1.23 2.43 1.12 1.3-.11 2.37-.95 3.04-2.36.48-1.03.78-2.35.93-4.12.18-2.18.02-3.34-.61-4.31-.65-.98-1.26-1.26-2.46-1.16-1.08.11-2.01.73-2.66 1.81z"/><path d="m16.63 331.87c-1.46 0-2.39-.54-3.22-1.81-.84-1.28-1.17-3.28-.96-5.79.39-4.56 2.78-7.82 5.96-8.09 1.79-.16 3.16.54 4.06 2.07.69 1.19.93 2.89.73 5.18-.44 5.2-2.5 8.11-5.96 8.41-.21.02-.42.03-.61.03zm2.27-15.22c-.15 0-.29.01-.45.02-2.93.26-5.14 3.33-5.51 7.64-.2 2.36.11 4.3.88 5.47.84 1.3 1.73 1.7 3.38 1.56 3.18-.28 5.09-3.03 5.5-7.95.18-2.16-.04-3.8-.67-4.89-.72-1.24-1.75-1.85-3.13-1.85zm-1.93 13.59c-1.04 0-1.73-.39-2.25-1.26-.62-1.03-.84-2.67-.65-4.86.14-1.65.62-3.26 1.33-4.42.69-1.14 1.71-1.82 2.86-1.92 1.29-.11 1.99.22 2.69 1.27.66 1.02.84 2.23.65 4.46-.15 1.81-.46 3.15-.95 4.21-.71 1.49-1.86 2.38-3.25 2.5-.15.02-.29.02-.43.02zm-1.14-10.28c-.66 1.08-1.12 2.65-1.26 4.2-.17 2.05.03 3.63.58 4.56.49.82 1.1 1.1 2.2 1 1.2-.11 2.21-.89 2.84-2.22.46-.99.76-2.31.91-4.04.18-2.11.02-3.23-.57-4.15-.6-.89-1.11-1.14-2.23-1.04-1 .1-1.85.68-2.47 1.69z"/><path d="m10.48 349c-2.15.19-3.39-1.24-3.18-3.67.16-1.92 1.08-3.68 2.56-4.9.87-.7 1.98-1.21 2.83-1.28.56-.05 1.04.17 1.36.62.11-.49.42-.78.88-.82.5-.04.79.25.74.78-.01.07-.01.13-.1.56-.31 1.6-.58 3.49-.71 4.96-.07.87.14 1.34.71 1.62.19.09.29.34.27.62-.05.54-.46.98-.96 1.03-.56.05-1.05-.46-1.42-1.45-.86 1.21-1.83 1.83-2.98 1.93zm2.09-8.23c-.7.06-1.53.5-2.18 1.17-.84.87-1.33 2-1.44 3.28-.13 1.58.43 2.31 1.68 2.2 1.03-.09 1.97-.87 2.64-2.19.11-1.27.29-2.8.46-3.73-.29-.55-.67-.78-1.16-.73z"/><path d="m10.11 349.27c-.88 0-1.62-.28-2.16-.81-.7-.7-1.01-1.79-.9-3.15.17-2 1.11-3.8 2.65-5.07.9-.73 2.07-1.26 2.97-1.34.5-.04.95.1 1.3.4.2-.35.52-.56.94-.6.4-.04.64.11.76.24.13.13.28.38.25.82-.01.08-.01.15-.11.59-.31 1.56-.58 3.45-.7 4.93-.07.87.16 1.17.57 1.37.28.14.44.48.41.87-.06.66-.57 1.2-1.19 1.25-.43.04-1.01-.16-1.5-1.2-.83 1.03-1.78 1.58-2.89 1.67-.14.02-.27.03-.4.03zm2.74-9.88c-.04 0-.09 0-.13.01-.79.07-1.88.56-2.69 1.23-1.44 1.18-2.32 2.86-2.47 4.72-.1 1.21.16 2.16.75 2.75.51.51 1.25.73 2.16.65 1.08-.09 1.99-.69 2.79-1.82.05-.08.15-.12.24-.1.09.01.17.07.2.16.19.5.59 1.34 1.16 1.28.38-.03.7-.38.74-.8.02-.2-.05-.34-.13-.38-.67-.34-.92-.89-.84-1.86.13-1.49.4-3.4.71-4.98.08-.4.09-.46.1-.53.01-.14 0-.32-.1-.43-.09-.09-.25-.1-.37-.09-.34.03-.56.24-.65.62-.02.1-.1.17-.19.19-.1.02-.2-.02-.25-.1-.27-.34-.62-.52-1.03-.52zm-2.45 8.29c-.51 0-.91-.15-1.2-.43-.42-.41-.58-1.08-.5-2.05.12-1.35.64-2.54 1.51-3.44.69-.71 1.56-1.18 2.33-1.24.6-.06 1.06.24 1.4.86.03.05.04.11.03.16-.16.88-.34 2.37-.46 3.71 0 .03-.01.06-.03.09-.71 1.4-1.72 2.23-2.84 2.32-.08.02-.16.02-.24.02zm2.19-6.66c-.64.06-1.42.48-2.02 1.09-.79.82-1.27 1.9-1.37 3.13-.07.8.05 1.35.35 1.65.23.23.57.32 1.06.28.93-.08 1.79-.79 2.42-2.01.11-1.3.29-2.73.44-3.62-.3-.51-.63-.54-.88-.52z"/></g></svg>