<svg enable-background="new 0 0 24 153.47" viewBox="0 0 24 153.47" xmlns="http://www.w3.org/2000/svg"><g fill="#d9c6aa"><path d="m20.08 6.35-1.71.15.05-.56 1.42-.12c.38-.03.69-.39.72-.83.02-.25-.05-.48-.2-.63-.12-.12-.3-.18-.47-.17l-1.34.12.04-.47 1.65-.14c.38-.03.68-.39.72-.85.02-.27-.05-.5-.2-.65-.12-.12-.29-.18-.47-.17l-1.56.14.05-.62c.02-.24-.05-.45-.21-.61-.17-.17-.42-.25-.68-.22-.5.04-.91.43-.95.91l-.06.71-2.08.17.05-.64c.02-.24-.05-.45-.2-.6-.16-.16-.41-.24-.67-.22-.52.05-.93.42-.97.89l-.06.73-1.7.15c-.36.06-.64.35-.71.74.02-.42-.08-.74-.29-.95-.23-.23-.58-.32-1.04-.28l-2.72.24c-.89.08-1.38.58-1.46 1.49l-.79 9.3c-.04.46.06.81.29 1.04.17.17.39.26.67.28-.12.11-.23.25-.32.42-.55 1-1.01 1.77-1.42 2.33-.27.35-.35.48-.38.76-.02.26.06.49.24.67.16.16.39.25.63.25h.08c.45-.04.66-.3 1.15-1.04.63-.95 1.37-2.31 1.41-2.75.02-.23-.06-.45-.22-.62-.03-.03-.06-.06-.09-.08l1.16-.1c-.21.16-.35.4-.38.67-.02.24.02.41.15.65.23.46.66 1.45.83 1.9.19.51.38.79.89.74.5-.04.95-.47.99-.94.01-.11.04-.43-.69-1.9-.33-.68-.52-1.05-.75-1.22.76-.13 1.21-.64 1.28-1.45l.37-4.31c.13.13.32.2.5.18l3.79-.33-.04.47-2.12.19c-.99.09-1.54.64-1.63 1.63l-.26 3.01-.3.03c-.43.04-.77.41-.81.88-.02.26.05.49.2.64.14.14.34.21.55.19l.22-.02-.19 2.24c-.02.23.05.44.2.59.11.11.32.24.68.21.53-.05.91-.4.95-.87l.2-2.32 5.47-.48-.06.68c-.03.34-.09.4-.44.43-.28.02-1.05.04-1.27.01-.17 0-.19 0-.27 0-.56.05-.94.44-.99 1.02-.02.27.04.48.19.63.29.28.83.35 2.07.24 1.79-.16 2.38-.64 2.5-2.06l.09-1.1.31-.03c.39-.03.72-.41.76-.87.02-.26-.05-.5-.21-.65-.13-.13-.3-.19-.49-.18l-.22.02.25-2.91c.04-.51-.06-.9-.32-1.15s-.64-.36-1.14-.32l-2.07.18.04-.47 3.77-.33c.39-.03.72-.42.76-.87.02-.24-.05-.47-.2-.62s-.33-.22-.52-.2zm-5.85 4.86-1.83.16.03-.38c.01-.16.07-.22.24-.23l1.61-.14zm-.14 1.6-.06.68-1.83.16.06-.68zm2.48-6.7-.05.56-2.09.18.05-.56zm-1.95-1.46.04-.47 2.09-.18-.04.47zm3.11 7.84-.06.68-1.88.17.06-.68zm-1.74-1.44.05-.59 1.73-.15c.08-.01.13.01.13.01s.02.02.01.11l-.04.46zm-5.25-6.74c.13.13.31.19.48.17l1.59-.14-.04.47-1.45.13c-.41.06-.7.39-.74.83-.02.25.05.47.2.62.13.13.32.19.51.18l1.35-.12-.05.56-1.92.17c-.17.02-.32.09-.44.19l.3-3.57c.01.2.09.38.21.51zm-1.97-.06-.14 1.56-2.05.18.12-1.46c.01-.11.03-.15.16-.16l1.84-.16h.06c.01.01.01.02.01.04zm-2.47 5.1.14-1.6 2.05-.18-.14 1.6zm-.15 1.75 2.05-.18-.13 1.54c-.01.13-.06.19-.18.2l-1.87.16s-.01-.02-.01-.07z"/><path d="m4.65 35.73c-.79.57-.95.72-1 1.24-.03.3.08.59.28.79.19.19.44.29.71.29h.09c.8-.07 2.82-1.86 4.19-3.48 1.63-1.94 2.75-3.96 3.56-6.44.23 1.03.55 1.99.95 2.85.93 2.04 2.54 4.13 4.01 5.22.48.36.72.48 1.14.44.59-.05 1.13-.61 1.18-1.23.04-.46-.18-.73-.52-1.01-3.87-3.04-5.66-6.89-5.32-11.45.05-.59-.04-.98-.29-1.23s-.63-.34-1.24-.29l-4.47.39c-.51.04-.93.5-.98 1.07-.03.32.06.6.25.79.16.16.39.24.64.22l3.82-.33c-.81 5.31-2.92 8.95-7 12.16z"/><path d="m19.92 44.54-3.62.32c1.05-1.07 2-2.16 2.83-3.26.34-.45.45-.64.47-.92.02-.25-.06-.49-.24-.67-.19-.19-.47-.29-.76-.26-.41.04-.64.25-.87.57-.33.5-.63.88-1.12 1.48-.15-.17-.35-.25-.6-.23l-2.92.25.09-1.08c.02-.24-.06-.47-.23-.64-.18-.18-.44-.27-.73-.24-.57.05-1.01.46-1.06.97l-.1 1.17-4.24.37c-.47.04-.83.44-.87.97-.03.29.05.55.22.71.15.15.35.21.57.2l4.15-.36-.12 1.44-5.82.51c-.47.04-.84.45-.89.97-.02.28.06.53.23.7.15.15.36.22.58.2l5.92-.52c-1.92 1.35-4.11 2.66-6 3.57-.62.29-.62.29-.7.34-.3.19-.5.5-.53.84-.02.29.07.56.26.75.17.17.4.26.64.24s.78-.22 2.88-1.45l-.32 3.82c-.02.57.09.98.36 1.25.23.23.56.34.99.34.08 0 .16 0 .24-.01l7.66-.67c1.05-.09 1.65-.71 1.74-1.78l.42-4.9c.05-.55-.06-.95-.32-1.21s-.66-.37-1.2-.32l-4.86.43c.89-.64 1.48-1.08 1.97-1.48l5.83-.51c.47-.04.84-.44.88-.95.03-.29-.06-.55-.23-.72-.15-.17-.37-.25-.58-.23zm-10.56 7.17.09-1.09c0-.06.01-.11.16-.12l6.72-.59h.03c.04 0 .05.01.03.04l-.1 1.15zm-.26 3.21c-.01 0-.01 0 0 0-.01-.01-.01-.03-.01-.07l.11-1.29 6.93-.61-.1 1.21c-.01.13-.05.17-.18.18l-6.66.58c-.06 0-.08 0-.09 0zm3.71-9.76.12-1.44 2.17-.19c-.46.48-1 1.01-1.61 1.57z"/><path d="m19.88 64.24-3.58.31.13-1.58 3.04-.27c.44-.04.81-.44.85-.93.02-.28-.06-.53-.22-.7-.14-.14-.35-.21-.56-.19l-2.95.26.11-1.33c.02-.23-.06-.45-.22-.61-.17-.17-.43-.26-.7-.23-.55.05-.98.44-1.02.93l-.12 1.42-2.84.25c-.48.07-.79.41-.84.93-.02.29.05.54.22.7.14.14.35.21.56.19l2.74-.24-.13 1.58-3.43.3c-.48.06-.81.45-.86.97-.02.27.06.52.23.69.15.15.35.22.57.2l5.72-.5-.13 1.48-5.37.47c-.03 0-.06.01-.09.02.01-.04.01-.09.02-.14.02-.26-.07-.51-.24-.69-.16-.16-.39-.24-.61-.22-.16.01-.31.07-.5.18-.33.19-.49.28-.72.41l.23-2.76 1.32-.12c.45-.04.81-.45.85-.97.02-.28-.05-.53-.22-.7-.14-.14-.34-.21-.56-.19l-1.23.11.25-2.89c.02-.24-.06-.47-.22-.63-.18-.18-.43-.26-.72-.23-.53.05-.94.44-.99.94l-.25 2.97-.55.05c.15-.87.22-1.37.26-1.75.03-.39-.1-.61-.21-.73-.1-.1-.29-.22-.67-.19-.5.04-.86.42-.9.94-.37 2.38-.78 4.23-1.21 5.51-.12.32-.12.34-.13.48-.02.23.06.45.22.61.17.16.41.25.65.23.81-.07 1.07-.71 1.61-3.2l.77-.07-.31 3.62c-.71.36-1.26.63-2.15 1.01-.34.14-.45.19-.53.23-.01 0-.05.03-.06.03-.3.18-.48.48-.51.81s.06.61.25.8c.15.15.37.23.59.21.26-.02.78-.24 2.23-.95l-.41 4.93c-.02.23.05.43.19.58.11.1.29.22.61.22.04 0 .08 0 .12-.01.55-.05.96-.41 1-.88l.5-5.89c.7-.38 1.19-.65 1.52-.87-.01.04-.01.08-.01.12-.03.38.1.6.21.71.1.1.27.21.55.18l.67-.06c-.35.18-.61.53-.64.92-.02.25.04.45.2.63.27.38.4.57.85 1.28l.32.5c.29.45.46.59.91.55.51-.04.99-.52 1.03-1.02.04-.45-.38-1.19-1.45-2.57-.12-.15-.26-.29-.45-.36l3.84-.34-.33 3.86c-.03.33-.08.38-.42.41-.4.03-1.02.06-1.36.04-.18 0-.25 0-.34.01-.58.05-.98.46-1.03 1.04-.03.3.04.52.2.68.3.29.86.35 2.3.22 1.69-.15 2.41-.46 2.54-1.98l.38-4.43 1.18-.1c.45-.04.79-.42.83-.95.02-.29-.05-.54-.22-.71-.14-.14-.34-.21-.54-.19l-1.1.1.12-1.48 1.28-.11c.44-.04.81-.46.85-.95.03-.29-.06-.55-.23-.72-.13-.14-.33-.21-.54-.19z"/><path d="m4.48 96.29c.59-.05 2.26-.97 3.51-1.74 1.84-1.14 2.23-1.44 2.28-2.02.03-.3-.07-.58-.27-.77-.19-.19-.46-.28-.74-.26-.24.02-.47.12-.67.27-.96.69-2.81 1.74-4.12 2.37l-.15.07c-.22.11-.28.14-.34.19-.28.18-.46.5-.49.84-.03.31.07.6.28.8.17.17.39.26.63.26.03 0 .06-.01.08-.01z"/><path d="m19.55 88.74-.85.07.58-6.79c.05-.54-.07-.95-.34-1.22-.26-.26-.66-.37-1.17-.33l-2.23.2.12-1.37c.02-.22-.05-.43-.2-.58-.17-.17-.44-.26-.74-.23-.52.05-.93.42-.97.89l-.12 1.45-1.86.16.12-1.37c.02-.22-.05-.43-.2-.58-.18-.18-.44-.26-.74-.23-.52.04-.93.42-.97.89l-.12 1.45-2.25.2c-1.01.09-1.62.71-1.7 1.75l-.61 6.89-.95.08c-.48.06-.78.4-.82.93-.03.3.05.56.22.73.14.14.33.21.54.19l9.88-.86c-.49.11-.87.55-.91 1.09-.05.59.34.83.74.99 1.43.56 2.53 1.04 3.67 1.6.39.21.51.27.71.27.05 0 .1 0 .16-.01.6-.05 1.13-.59 1.18-1.19.03-.39-.14-.72-.49-.93-.19-.11-1.83-.85-2.07-.96h-.01c-1.49-.6-2.29-.87-2.71-.89l5.04-.44c.46-.04.83-.45.87-.97.02-.27-.06-.51-.22-.67-.16-.15-.36-.23-.58-.21zm-2.44-4.09-1.93.17.2-2.33 1.8-.16c.08-.01.11.01.11.01 0 .01.02.04.01.11zm-.15 1.78-.22 2.56-1.93.17.22-2.56zm-3.69-1.44-1.87.16.2-2.33 1.87-.16zm-.16 1.78-.22 2.56-1.86.16.22-2.56zm-3.62-1.45-1.86.16.18-2.11c.01-.16.07-.22.24-.23l1.65-.14zm-.16 1.78-.22 2.56-1.86.16.22-2.56z"/><path d="m19.31 99.97-.23.02c-.57.11-4.55.58-6.52.76.1-.58.21-1.15.23-1.25.05-.16.06-.22.07-.31.02-.25-.06-.49-.22-.65-.19-.18-.47-.27-.78-.24-.5.04-.9.38-1.01.85-.03.18-.18 1.06-.29 1.76-1.2.11-3.28.21-3.71.18-.01 0-.02 0-.02 0l-.37.01c-.57.05-1 .5-1.05 1.09-.03.3.05.56.22.74.16.18.4.27.7.27h.02c.5-.03 2.13-.14 3.97-.29v.02c-.01.12-.02.23-.05.39l-.16 1.44c-3.26 1.25-5.67 3.95-5.9 6.63-.07.8.11 1.43.51 1.83.37.37.93.54 1.62.48.96-.08 2.18-.6 3.51-1.48 2.25-1.5 4.3-3.6 5.92-6.09.75.49 1.08 1.16 1 2.04-.16 1.9-1.81 3.48-4.51 4.32-.33.08-.39.11-.54.2-.28.2-.49.59-.52.94-.03.32.06.6.26.79.15.15.36.23.58.23h.08c.67-.06 2.77-1.07 3.79-1.75 1.83-1.26 2.84-2.87 3-4.8.1-1.13-.27-2.18-1.04-2.94-.96-.96-2.48-1.42-4.17-1.27-.43.04-.98.13-1.6.27.02-.24.05-.54.15-1.34l.01-.07c3.16-.29 6.81-.68 7.2-.75.52-.11.83-.49.88-1.06.03-.39-.1-.61-.23-.73-.13-.14-.37-.28-.8-.24zm-7.57 8.33c.05-.84.09-1.46.16-2.25.5-.17 1.02-.27 1.59-.32.13-.01.28-.02.43-.02-.61.86-1.35 1.74-2.18 2.59zm-1.82-1.55c-.07.95-.15 2.26-.19 3.36-1.23.93-2.29 1.45-3.08 1.52-.13.01-.23-.01-.28-.06s-.12-.19-.09-.6c.06-.75.6-1.76 1.36-2.58.54-.58 1.32-1.15 2.28-1.64z"/><path d="m8.18 120.33c-.29 1.09-.57 2.63-.66 3.74-.1 1.22-.05 2.25.17 3.04.1.38.4.61.8.61h.09c.64-.06 1.11-.52 1.16-1.15.01-.16 0-.3-.04-.48-.08-.5-.09-1.06-.02-1.89.07-.86.31-2.34.57-3.53.11-.47.15-.67.16-.86.05-.57-.06-1-.31-1.25-.17-.17-.4-.25-.66-.23-.62.05-1.14.5-1.18 1.02 0 .06-.01.12.01.18.02.15.03.23.02.34-.01.1-.05.24-.11.46z"/><path d="m12.99 129.22c-.97.97-2.22 1.78-4.3 2.79-.63.3-.85.49-.89 1.03-.03.37.07.69.29.9.17.17.39.25.63.25h.09c.32-.03.45-.1 1.08-.43 2.06-1.09 3.13-1.8 4.08-2.71 2.05-1.96 2.68-3.28 2.92-6.14.17-2 .31-5.71.25-6.61v-.01c-.06-.58-.45-.89-1-.84-.66.06-1.12.46-1.17 1.03 0 .04-.01.1 0 .25.08 1.54.02 3.75-.18 6.06-.19 2.39-.51 3.18-1.8 4.43z"/><path d="m19.05 137.31-13.36 1.17c-.18.02-.33.16-.34.34l-1.17 13.78c-.01.11.03.22.11.3.07.07.17.11.26.11h.03l13.36-1.17c.18-.02.33-.16.34-.34l1.17-13.77c.01-.11-.03-.22-.11-.3s-.18-.14-.29-.12zm-12.3 14.04 11.08-11.4-.89 10.5zm-.95-1 .89-10.5 10.19-.89z"/></g></svg>