<svg enable-background="new 0 0 30 30" viewBox="0 0 30 30" xmlns="http://www.w3.org/2000/svg"><path clip-rule="evenodd" d="m25.82 5.11c-2.26-1.97-5.42-3.11-9.1-3.11-9.59 0-16.11 7.4-16.11 7.4l1.84 2.92s1.02.09.48-1.63c.46-.88 1.37-2.07 3.15-3.43v19.43c-.77.21-1.78.62-1.09 1.31h5.28c.7-.7-.4-1.12-1.07-1.31v-4.59s3.62 1.42 7.52 1.42c3.43 0 6.55-1.02 8.86-2.86 2.32-1.83 3.81-4.57 3.81-7.69 0-3.07-1.31-5.89-3.57-7.86m-9.42 16.6c-3 0-5.53-.58-7.2-1.4v-4.17-10.4c1.83-1.3 4.8-2.1 7.2-2.1 2.91 0 5.2 1.1 6.75 2.77 1.54 1.68 2.39 3.91 2.4 6.51-.01 2.53-.91 4.61-2.51 6.21-1.62 1.58-3.95 2.58-6.64 2.58z" fill="#9b7855" fill-rule="evenodd"/></svg>