<svg enable-background="new 0 0 68 66" viewBox="0 0 68 66" xmlns="http://www.w3.org/2000/svg"><g fill="#25283c"><path d="m37.62 6.33-6.22 2.26-1.89 9.75 6.22-2.26z"/><path d="m57.85 4.34-1.24-3.41c-.27-.74-1.08-1.12-1.82-.85l-2.04.74-1.89 9.75 6.22-2.26z"/><path d="m26.95 10.21-6.22 2.27-1.89 9.75 6.22-2.27z"/><path d="m48.29 2.44-6.22 2.27-1.89 9.75 6.22-2.26z"/><path d="m63.2 26.02-2.05.36 1.45-3.78-.88-4.97-3.54.62-3.55 9.27-4.66.82 3.55-9.27-6.52 1.16-3.55 9.27-4.66.82 3.55-9.27-6.52 1.15-3.55 9.27-4.67.83 3.55-9.27-6.52 1.15-3.55 9.27-4.66.82 3.55-9.27-6.52 1.15-3.55 9.27-4.66.82 3.55-9.27-5.78 1.02 5.67 32.15c.68 3.85 4.37 6.44 8.22 5.76l44.73-7.89c3.85-.68 6.44-4.37 5.76-8.22z"/><path d="m5.61 17.98-4.18 1.52c-.74.27-1.12 1.08-.85 1.82l2.43 6.67.71-.26z"/><path d="m16.28 14.1-6.22 2.26-1.89 9.75 6.22-2.26z"/></g></svg>