<svg enable-background="new 0 0 66 55" viewBox="0 0 66 55" xmlns="http://www.w3.org/2000/svg"><g fill="#25283c"><path d="m11.64 20.43c2.8 0 5.37-1.14 7.2-2.98 1.84-1.83 2.99-4.4 2.99-7.2s-1.15-5.37-2.99-7.2c-1.83-1.84-4.4-2.99-7.2-2.99s-5.37 1.15-7.2 2.99c-1.84 1.83-2.99 4.4-2.98 7.2 0 2.8 1.14 5.37 2.98 7.2 1.83 1.84 4.4 2.98 7.2 2.98zm-3.06-13.25c.79-.79 1.86-1.27 3.06-1.27 1.21 0 2.27.48 3.06 1.27s1.27 1.86 1.27 3.06c0 1.21-.48 2.27-1.27 3.06s-1.86 1.27-3.06 1.27c-1.21 0-2.27-.48-3.06-1.27s-1.27-1.86-1.27-3.06.48-2.27 1.27-3.06z"/><path d="m35.94.05c-2.8 0-5.37 1.15-7.2 2.99-1.84 1.83-2.99 4.4-2.98 7.2 0 2.8 1.14 5.37 2.98 7.2 1.84 1.84 4.4 2.99 7.2 2.98 2.8 0 5.37-1.14 7.2-2.98 1.84-1.83 2.99-4.4 2.98-7.2 0-2.8-1.14-5.37-2.98-7.2-1.83-1.84-4.39-2.99-7.2-2.99zm3.06 13.26c-.79.79-1.86 1.27-3.06 1.27-1.21 0-2.27-.48-3.06-1.27s-1.27-1.86-1.27-3.06c0-1.21.48-2.27 1.27-3.06s1.86-1.27 3.06-1.27c1.21 0 2.27.48 3.06 1.27s1.27 1.86 1.27 3.06-.48 2.26-1.27 3.06z"/><path d="m41.27 23.22h-35.21c-1.66 0-3.19.68-4.28 1.78-1.1 1.08-1.78 2.61-1.78 4.28v19.61c0 1.66.68 3.19 1.77 4.28s2.62 1.78 4.28 1.77h35.21c1.66 0 3.2-.68 4.28-1.77 1.09-1.09 1.78-2.62 1.77-4.28v-19.61c0-1.66-.68-3.19-1.77-4.28-1.07-1.1-2.61-1.78-4.27-1.78z"/><path d="m63.82 26.82c-.7-.42-1.51-.64-2.3-.64-.73 0-1.45.18-2.11.53l-7.23 3.13c-1 .53-1.63 1.58-1.63 2.72v3.77 5.53 3.76.01c0 1.14.63 2.18 1.63 2.72l7.23 3.13c.66.35 1.39.53 2.11.53.79 0 1.6-.21 2.31-.64 1.34-.81 2.17-2.27 2.17-3.85v-16.86c0-1.58-.83-3.04-2.18-3.84z"/></g></svg>