<svg enable-background="new 0 0 30 30" viewBox="0 0 30 30" xmlns="http://www.w3.org/2000/svg"><path d="m9.43 27.19c11.32 0 17.51-9.38 17.51-17.51 0-.27 0-.53-.02-.8 1.2-.87 2.24-1.95 3.07-3.19-1.12.5-2.32.82-3.54.97 1.28-.77 2.25-1.98 2.71-3.4-1.21.72-2.53 1.22-3.91 1.49-2.33-2.48-6.23-2.6-8.71-.27-1.6 1.5-2.28 3.74-1.78 5.88-4.94-.24-9.55-2.58-12.67-6.43-1.63 2.81-.8 6.41 1.91 8.22-.98-.03-1.94-.29-2.79-.77v.08c0 2.93 2.07 5.45 4.94 6.03-.91.25-1.86.28-2.78.11.81 2.51 3.12 4.22 5.75 4.27-2.18 1.71-4.87 2.64-7.64 2.64-.49 0-.98-.03-1.47-.09 2.8 1.81 6.08 2.77 9.42 2.77" fill="#d9c6aa"/></svg>