<svg enable-background="new 0 0 320 74" viewBox="0 0 320 74" xmlns="http://www.w3.org/2000/svg"><g fill="#1e1310"><path d="m122.35 9.53h-20.19v10.26h15.03v5.38h-11.97l15.72 31.08h-6.56l-14.93-30-13.5 29.99h-6.3l14.16-31.08h-12.36v-5.38h15.03v-10.25h-20.12v-5.45h45.99z"/><path d="m135.5 1.5h5.8l-6.26 10.62 4.04 12.39.27 30.36h-10.57v-5.24h5.54l-.19-16.61-2.61 4.22h-6l8.22-12.8-2.09-6.67-1.37 2.24h-5.81l5.09-8.58-3.13-9.66h5.22l1.24 4.01z"/><path d="m148.65 6.67h22.39l-1.5 49.16h-5.15l1.31-43.78h-18.62l-2.67 9.33h-5.48l5.74-19.75h5.41z"/><path d="m147.41 19.2v28.63h12.88v-28.63zm8.43 23.93h-3.94v-19.3h3.94z"/><path d="m201.46 6.19h17.59v5.38h-38.03v10.21l-2.49 34.04h-4.85l2.55-34.31v-15.32h20.44v-6.06h4.79zm4.04 31.31h5.34l7.76 18.79h-5.28l-1.94-4.56-26.14 3.06 9.83-39.02h5.03l-8.01 32.76 17.17-1.98z"/><path d="m246.95 23.28h20.16v5.51h-45.66v-5.51h20.16v-9.6h-12.33l-1.89 4.97h-6.07l6.26-16.48h6.07l-2.22 5.86h10.18v-8.03h5.35v8.03h17.29v5.65h-17.29v9.6zm-20.22 32.47v-21.71h35.09v21.71zm5.35-16.13v10.55h24.4v-10.55z"/><path d="m284.15 21.1 9.65 14.92h-5.82l-4.56-6.36v26.74h-5.15v-23.65l-2.74 5.37h-5.94l12.46-24.57h-12.13v-5.38h8.94v-7.29h5.15v7.29h6.72zm22.67 29.42h12.85v5.38h-30.92v-5.38h12.92v-24.65h-9.92v-5.38h9.92v-18.45h5.15v18.45h9.85v5.38h-9.85z"/><path d="m61.29 5.24-2.05-3.83-3.74 1.59z"/><path d="m58.95 1.3-6.98 1.94 3.18-.38z"/><path d="m63.78 7.82-4.25-6.3 2.12 3.86z"/><path d="m63.97 12.73c-.12-.57-.49-1.28-1-2.03l.84-2.54-2.26-2.49-.83 2.51c-.1-.09-.2-.19-.31-.28l.78-2.37-5.8-2.25-.75 2.27c-.13-.02-.25-.02-.38-.04l.78-2.37-3.3.33-.64 1.98c-.59.1-1.12.27-1.54.57l-2.86 2.43c-.17-.05-.37-.1-.6-.14-2.14-.37-6.49-.06-7.92 1.49-.05.61 2.77 1.25 4.38 1.59s4.91 2.66 5.23 3.71c.33 1.05.87 1.92.41 2.49-.46.58-7 2.91-9.1 3.56s-.27.8.76.68c1.04-.12-8.2 5.07-9.34 6.41-1.13 1.34 1.22.1 1.22.1s-4.05 4.38-6.2 5.64-6.19 2.98-7.95 4.47c-1.76 1.5-1.74 1.94-3.78 3.59-4.83 3.91-3.98 3.57-.62 2.61 1.81-.52 1.42.12.34.85s-5.47 4.27-6.78 5.18c-1.31.92-4.15 3.14-3.34 3.21.82.07 2.53-.82 2.53-.82s-6.04 3.61-5.25 4.08c.78.47 6.54-2.33 6.54-2.33s-2.19 2.75-3.4 4.02c-2.91 3.04-.83 2.6.04 2.05.86-.55 2.15-1.26 2.15-1.26s-6.59 5.4-5.59 5.69 4.93-2.67 4.93-2.67-1.23 2.56-.61 2.41c.63-.15 4.15-3.14 4.15-3.14s-2.76 3.67-.39 2.22 5.63-3.64 5.88-4.23c.25-.6-.1 1.22 1.43.12 1.53-1.11 5.98-5.46 5.98-5.46s2.19.79 3.31-.34c.81-.82 2.74-1.23 3.76-1.39.07.69.19 1.37.13 2.18-.1 1.17.66.94.66.94l.4-1.29s.44 3.56.94 4.63c.33.71 1.06.8 1.5.78.61 2.86 1.99 9.03 2.05 9.55.08.66.07.88-.59.85-.65-.03-2.95-.34-3.4-.03s-.76.74-.53 1.29c.23-.21.15-.21.71-.41s.5.24 1.49.28c.37.01 1.58-.08 2.13-.28.56-.2 1.64.21 1.96.34.33.12 1.5 1.05 1.5 1.05s.92.77 1.18.74c.14.08.27.45.27.45s.17.23.19-.1c.01-.33-.05-.59-.05-.59s.12-.29-.3-.67-1.46-1.05-1.46-1.05.71-.16.95-.23c.01.11.03.22.08.34.16-.16.17-.2.38-.3.51.11 1.31.35 1.55.28.33-.1.44.01.54.2s.22.01.08-.29c-.02-.05-.05-.08-.08-.12.5-.04 1.39-.16 1.84-.34.55-.22 1.64.15 1.97.26s1.53.99 1.53.99.95.73 1.2.7c.15.08.29.44.29.44s.18.22.18-.11-.07-.59-.07-.59.11-.29-.33-.66-1.5-.99-1.5-.99.8-.22.99-.29c.18-.07 1.64.37 1.97.27.33-.11.44 0 .55.18s.22 0 .07-.29-.33-.44-.51-.44-.4-.47-.77-.48c-.36 0-2.12.03-2.78-.05s-1.1-.19-1.39-.55c-.26-.33-1.98-7.37-2.64-9.91.05-.01.1-.04.17-.11.49-.55.29-3.5.29-3.5s.32 1.49.56.34c.23-1.09.25-2.81.25-2.99 3.34-.77 6.74-1.93 8.85-3.61 3.95-3.16 12.71-17.61 12.69-24.78 1.89-7.43-.15-10.05-.59-12.14zm-22.36 46.05c-.02-.05-.03-.09-.05-.13l.06-.13c0-.01-.01.11-.01.26zm-4.55-3.72c-.1 1.17.66.93.66.93l.4-1.29s.44 3.56.94 4.63c.4.86 1.37.82 1.73.77.74 2.92 2.27 8.74 2.35 9.24.11.66.11.88-.55.88s-2.96-.23-3.4.1c-.08.06-.16.13-.23.2-.63-.02-1.34-.06-1.71-.11-.65-.1-1.09-.23-1.37-.61s-2.03-8.98-2.41-10.66c-.02-.09-.04-.17-.07-.26l.18-.4s-.12 1.46.37.91.29-3.5.29-3.5.32 1.49.56.34c.11-.52.17-1.19.2-1.78.13 0 .23.01.36 0 .5-.03 1.06-.08 1.67-.15 0 .25.05.48.03.76z"/><path d="m78.3 73.54h-3.21v-8.4h3.03c1.52 0 2.63.71 2.63 2.09 0 .84-.5 1.5-1.06 1.76.8.21 1.52.84 1.52 2.01 0 1.64-1.11 2.54-2.91 2.54zm-1.37-6.93v1.86h.73c.76 0 1.22-.36 1.22-.99s-.4-.87-1.1-.87zm0 3.34v2.11h.94c.82 0 1.47-.34 1.47-1.06 0-.74-.49-1.05-1.43-1.05z"/><path d="m83.44 73.54v-8.4h3.26c1.51 0 2.99.93 2.99 2.93 0 1.2-.54 2.05-1.31 2.55l1.64 2.83-.04.09h-1.89l-1.37-2.39c-.1.01-.21.01-.31.01h-1.13v2.38zm1.84-6.76v2.73h.84c1.01 0 1.69-.54 1.69-1.42 0-.91-.7-1.31-1.5-1.31z"/><path d="m95.67 65.01 4.25 8.44-.06.09h-1.89l-.55-1.23h-3.65l-.56 1.23h-1.84l-.07-.09 4.25-8.44zm-1.15 5.64h2.16l-1.07-2.41z"/><path d="m105.81 68.72h3.53v3.6c-.57.64-1.84 1.34-3.53 1.34-2.54 0-4.32-1.88-4.32-4.35s1.86-4.31 4.33-4.31c1.36 0 2.44.57 3.21 1.39l-1.35 1.27c-.49-.55-1.1-.84-1.87-.84-1.46 0-2.46 1.16-2.46 2.49 0 1.43 1.07 2.53 2.46 2.53.89 0 1.47-.24 1.86-.53v-.95h-1.86z"/><path d="m115.81 68.72h3.53v3.6c-.57.64-1.84 1.34-3.53 1.34-2.54 0-4.32-1.88-4.32-4.35s1.86-4.31 4.33-4.31c1.36 0 2.43.57 3.21 1.39l-1.35 1.27c-.49-.55-1.1-.84-1.88-.84-1.45 0-2.46 1.16-2.46 2.49 0 1.43 1.08 2.53 2.46 2.53.89 0 1.48-.24 1.86-.53v-.95h-1.86v-1.64z"/><path d="m125.44 65.01 4.25 8.44-.06.09h-1.88l-.55-1.23h-3.65l-.56 1.23h-1.84l-.07-.09 4.25-8.44zm-1.15 5.64h2.16l-1.08-2.41z"/><path d="m131.7 73.54v-8.4h3.26c1.51 0 2.98.93 2.98 2.93 0 1.2-.54 2.05-1.3 2.55l1.63 2.83-.03.09h-1.89l-1.37-2.39c-.11.01-.21.01-.31.01h-1.13v2.38zm1.84-6.76v2.73h.84c1.01 0 1.69-.54 1.69-1.42 0-.91-.7-1.31-1.5-1.31z"/><path d="m142.38 73.54v-6.59h-2.65v-1.82h7.15v1.82h-2.66v6.59z"/><path d="m157.13 65.01 4.25 8.44-.06.09h-1.89l-.55-1.23h-3.65l-.56 1.23h-1.84l-.07-.09 4.25-8.44zm-1.14 5.64h2.16l-1.07-2.41z"/><path d="m163.4 73.54v-8.4h3.09c2.38 0 4.16 1.44 4.16 4.01 0 2.93-1.94 4.39-4.6 4.39zm1.84-6.59v4.77h.68c1.5 0 2.87-.48 2.87-2.51 0-1.51-.89-2.25-2.49-2.25h-1.06z"/><path d="m176.19 73.66-4.13-8.44.07-.09h1.96l2.2 4.93 2.16-4.93h1.92l.06.08-4.13 8.45z"/><path d="m187.5 73.54h-5.19v-8.4h5.19v1.75h-3.35v1.84h2.78v1.65h-2.78v1.41h3.35z"/><path d="m190.01 73.54v-8.4h3.26c1.51 0 2.98.93 2.98 2.93 0 1.2-.54 2.05-1.3 2.55l1.63 2.83-.03.09h-1.89l-1.37-2.39c-.11.01-.21.01-.31.01h-1.13v2.38zm1.84-6.76v2.73h.84c1.01 0 1.69-.54 1.69-1.42 0-.91-.7-1.31-1.5-1.31z"/><path d="m200.68 73.54v-6.59h-2.65v-1.82h7.14v1.82h-2.65v6.59z"/><path d="m207.38 73.54v-8.4h1.84v8.4z"/><path d="m214.53 65.01c1.14 0 2.03.45 2.65 1.22l-1.35 1.27c-.41-.47-.85-.73-1.35-.73-.44 0-.79.21-.79.63 0 .54.88.85 1.99 1.43 1.04.54 1.74 1.28 1.74 2.36 0 1.41-1.05 2.47-2.83 2.47-1.39 0-2.45-.61-3.08-1.43l1.35-1.28c.39.49 1.02.93 1.75.93.59 0 .96-.33.96-.73 0-.59-1.01-1.03-1.91-1.46-1.18-.57-1.82-1.29-1.82-2.28.01-1.51 1.15-2.4 2.69-2.4z"/><path d="m219.74 73.54v-8.4h1.84v8.4z"/><path d="m224.49 73.54v-8.53h.11l5.63 4.9v-4.77h1.84v8.53h-.11l-5.63-4.94v4.81z"/><path d="m238.82 68.72h3.53v3.6c-.57.64-1.84 1.34-3.53 1.34-2.54 0-4.32-1.88-4.32-4.35s1.86-4.31 4.33-4.31c1.36 0 2.43.57 3.21 1.39l-1.35 1.27c-.49-.55-1.1-.84-1.88-.84-1.45 0-2.46 1.16-2.46 2.49 0 1.43 1.08 2.53 2.46 2.53.89 0 1.48-.24 1.86-.53v-.95h-1.86v-1.64z"/><path d="m255.43 70.82 1.35 1.29c-.74.86-1.82 1.56-3.44 1.56-2.34 0-4.23-1.82-4.23-4.33 0-2.49 1.89-4.32 4.29-4.32 1.41 0 2.42.54 3.2 1.36l-1.33 1.27c-.45-.49-1.02-.81-1.84-.81-1.46 0-2.45 1.2-2.45 2.49 0 1.35 1.01 2.53 2.4 2.53.91-.02 1.55-.42 2.05-1.04z"/><path d="m258.47 69.34c0-2.38 1.73-4.33 4.33-4.33s4.29 1.96 4.29 4.33-1.74 4.32-4.33 4.32c-2.56 0-4.29-1.91-4.29-4.32zm6.76.01c0-1.51-1.08-2.53-2.46-2.53-1.35 0-2.43 1.02-2.43 2.53 0 1.42 1.08 2.49 2.43 2.49 1.36 0 2.46-1.07 2.46-2.49z"/><path d="m269.52 73.54v-8.53h.12l4.38 4 4.39-4h.1v8.53h-1.84v-4.61l-2.6 2.38h-.11l-2.6-2.38v4.61z"/><path d="m281.37 73.54v-8.4h3.18c1.69 0 3.06.97 3.06 3.05 0 2.09-1.52 3.18-3.18 3.18h-1.22v2.17zm1.85-6.76v2.93h.78c1.03 0 1.75-.55 1.75-1.52 0-1.01-.66-1.41-1.52-1.41z"/><path d="m293.38 65.01 4.25 8.44-.06.09h-1.89l-.55-1.23h-3.65l-.56 1.23h-1.84l-.07-.09 4.25-8.44zm-1.14 5.64h2.16l-1.07-2.41z"/><path d="m299.64 73.54v-8.53h.12l5.62 4.9v-4.77h1.84v8.53h-.11l-5.62-4.94v4.81z"/><path d="m312.36 73.54v-3.17l-3.12-5.15.07-.09h1.96l2.05 3.52 2.01-3.52h1.92l.06.09-3.11 5.13v3.18h-1.84z"/></g></svg>