<svg enable-background="new 0 0 100 84" viewBox="0 0 100 84" xmlns="http://www.w3.org/2000/svg"><g fill="#25283c"><path d="m85.02 68.69v-3.7c0-.08-.07-.15-.14-.15h-.94c-.03 0-.06-.03-.06-.05v-.73c0-.03.03-.06.06-.06h3.01c.03 0 .06.03.06.06v.73c0 .03-.03.05-.06.05h-.94c-.08 0-.15.07-.15.15v3.7c0 .03-.03.06-.05.06h-.73c-.04 0-.06-.03-.06-.06z"/><path d="m90.99 68.7v-3.38c0-.06-.04-.12-.09-.14-.01-.01-.03-.01-.05-.01-.05 0-.09.02-.12.06l-1.01 1.26c-.02.02-.05.02-.07 0l-1-1.26c-.03-.03-.07-.06-.12-.06-.01 0-.03.01-.05.01-.06.02-.1.07-.1.14v3.37c0 .03-.03.05-.06.05h-.73c-.03 0-.05-.03-.05-.05v-4.64c0-.03.03-.06.05-.06h1.09c.03 0 .07.03.09.05l.79.99c.03.03.07.05.12.05.04 0 .08-.02.11-.05l.8-.99c.02-.02.06-.05.1-.05h1.09c.03 0 .06.03.06.06v4.64c0 .03-.03.05-.06.05h-.73c-.04.01-.06-.02-.06-.04z"/><path d="m39.1 78.25h-4.45c1.52-3.1 2.03-4.99 2.03-7.32 0-2.34-1.35-3.83-3.46-3.83-.68 0-1.18.14-1.75.54.4 1.13.54 1.86.54 2.82 0 1.27-.28 3.04-.73 4.62-.25.96-.51 1.72-1.1 3.18h-4.45c1.46-3.01 2.03-4.99 2.03-7.21 0-2.45-1.27-3.92-3.38-3.92-.68 0-1.19.11-1.78.39v10.73h-4.03v-14.28h4.03v2.84l1.74-2.81c.59-.11 1.04-.17 1.52-.17 2.42 0 4.2 1.07 5.35 3.21l1.66-2.96c.56-.17 1.24-.25 2-.25 3.61 0 6 2.76 6 6.9.01 2.2-.53 4.39-1.77 7.52z"/><path d="m64.62 78.25h-4.45c1.52-3.1 2.03-4.99 2.03-7.32 0-2.34-1.35-3.83-3.46-3.83-.68 0-1.18.14-1.75.54.4 1.13.54 1.86.54 2.82 0 1.27-.28 3.04-.73 4.62-.25.96-.51 1.72-1.1 3.18h-4.45c1.46-3.01 2.03-4.99 2.03-7.21 0-2.45-1.27-3.92-3.38-3.92-.68 0-1.19.11-1.78.39v10.73h-4.03v-14.28h4.03v2.84l1.74-2.81c.59-.11 1.04-.17 1.52-.17 2.42 0 4.2 1.07 5.35 3.21l1.66-2.96c.56-.17 1.24-.25 2-.25 3.61 0 6 2.76 6 6.9.01 2.2-.53 4.39-1.77 7.52z"/><path d="m80.26 73.83-7.5 10.17h-4.54l4.14-5.58-4.54-14.45h4.37l.93 3.24 2.08-3.27c.23-.03.25-.06.87-.08 1.1-.08.96-.06 1.13-.06 3.13 0 5.13 1.89 5.13 4.79.01 1.72-.58 3.24-2.07 5.24zm-4.48-6.9c-.73 0-1.58.23-2.54.68l1.89 7.24 2.23-3.41c.73-1.13.9-1.55.9-2.28 0-1.28-1.07-2.23-2.48-2.23z"/><path d="m49.97 40.72c2.36 0 3.83-1.72 3.83-4.02 0-2.42-1.53-4.14-3.77-4.14-2.23 0-3.83 1.72-3.83 4.14 0 2.1 1.34 4.02 3.77 4.02z"/><path d="m68.34 0-9.17 15.95-9.17-15.95-9.17 15.95-9.17-15.95-30.86 53.68h18.34 18.34 25.05 18.34 18.33zm-18.34 7.73 24.2 42.1h-48.4zm-42.54 42.1 24.2-42.1 6.95 12.08-17.26 30.02zm71.18 0-17.25-30.02 6.95-12.08 24.2 42.1z"/></g></svg>