<svg enable-background="new 0 0 232 30" viewBox="0 0 232 30" xmlns="http://www.w3.org/2000/svg"><g fill="#25283c"><path d="m131.8 5.85c-.83.03-1.68.04-2.53.05-1.02.01-2.04-.04-3.13-.09-.89-.04-1.78-.08-2.67-.08-.16 0-.27 0-.47.01-.82.02-1.54.04-2.06-.8-.59-.95-1.08-1.69-1.6-2.38-.85-1.14-1.83-1.92-2.98-2.38-.89-.36-1.82-.12-2.36.6-.4.53-.5 1.26-.25 1.87.14.34.46.61.76.88.21.18.41.36.56.54.29.36.56.86.46 1.21-.05.16-.16.27-.35.34-.25.09-.61.06-.93.03-.13-.01-.25-.02-.36-.02l-1.3-.01c-.24 0-.46 0-.68.01l-2.26.05c-1.89.03-3.84.07-5.74.2-.51.04-.94.26-1.25.64-.33.41-.48.95-.41 1.48.15 1.12 1.08 1.81 2.24 1.69l.9-.08c.79-.07 1.6-.14 2.4-.14h.16c2.65.03 5.29.1 7.94.18l.37.01c.76.02 1.58.05 2.45.15.28.03.6.06.87.22.43.26.6.76.73 1.26.13.52.27 1.13.35 1.76l.02.16c.08.63.15 1.28-.15 1.65-1.06-.5-1.98-.93-3.08-1.11-3.44-.56-7.45.76-8.12 4.34-.32 1.72.55 4.22 1.74 5.05 1.67 1.17 3.46 1.73 5.48 1.73l1.17-.01 2.86.06-.14 1.66c-.04.41-.07.79-.09 1.16-.08 1.17.56 2.07 1.59 2.22.11.02.21.02.32.02.42 0 .83-.13 1.16-.38.43-.32.7-.81.77-1.36.05-.36.1-.73.16-1.17.13-.93.27-1.89.3-2.83.03-1.14-.13-2.18-.48-3.07-.35-.88 0-1.97.35-2.82.85-2.1.53-4.41.02-7.21l-.15-1.12 1.4-.1c.24-.02.47-.04.7-.04l3.82.01c.59 0 1.18 0 1.76-.01.6-.01 1.13-.23 1.5-.62.36-.38.55-.91.52-1.48-.09-1.14-1-1.93-2.29-1.93zm-12.57 13.25c.03.71-.24 1.36-.76 1.82-.49.44-1.16.69-1.89.71-1.93 0-3.64-1.11-3.72-2.43-.04-.58.17-1.09.61-1.49.56-.52 1.45-.81 2.59-.84h.17c1.82 0 2.94.83 3 2.23z"/><path d="m69.02 21.01c-.3-.81-.58-1.63-.86-2.46l-.37-1.09c-.43-1.26-1.25-2.17-2.5-2.77-.96-.48-2.05-.69-3.5-.69-2.04 0-4.05.25-5.94.51-.74.1-1.48.21-2.23.34l-.39.07c-.44.09-.93.19-1.41.09-1.58-.32-2.09-1.81-2.54-3.12-.11-.32-.22-.64-.34-.94-.04-.1-.1-.25-.08-.4.02-.14.06-.4.75-.31.07.01.13.02.19.02.43.01.85 0 1.28 0h.64 11.04c.81 0 1.48-.23 1.89-.65.33-.33.49-.78.48-1.32-.02-1.19-.9-1.9-2.36-1.91l-3.36-.01c-3.39-.01-6.7-.02-10.23 0-.73 0-1.48-.08-2.01-.65-.56-.55-.6-1.32-.57-1.92.02-.46-.13-.88-.44-1.21-.36-.37-.89-.59-1.46-.6-1.1 0-1.87.79-1.92 1.98-.01.2-.01.4 0 .74v.24c.02.56-.01 1.05-.52 1.3-.48.23-1.03.14-1.54.06-.15-.02-.29-.05-.43-.06-.94-.1-1.83-.2-2.73-.39-1.3-.28-2.39.27-2.65 1.34-.14.58-.06 1.14.23 1.58.28.43.74.7 1.33.8 2.08.34 4.22.46 6.25.55.49.02 1.8.08 2.36 1.68l.17.49c.38 1.08.73 2.1 1.24 3.03.46.83 1.18 2.03 2.1 2.83.7.62 1.51.89 2.63.89.71 0 1.44-.11 2.24-.22l.11-.02c.27-.04.53-.08.8-.11 1.38-.17 2.79-.29 4.25-.42.76-.06 1.53-.13 2.3-.2.24-.02.55-.05.9-.05 1.44 0 2.27.52 2.6 1.64.31 1.06.67 2.05 1.06 2.93.34.77 1.04 1.21 1.78 1.21.26 0 .52-.05.77-.16.99-.43 1.4-1.54.99-2.64z"/><path d="m189.92 14.81c-1.29-.77-3.52-.92-6.45-.45-.53.09-1.05.17-1.58.23-.1.01-.2.03-.35.06-.34.06-.69.12-1.05.12-.88 0-1.57-.39-2.02-1.13-.33-.55-.57-1.12-.82-1.73-.12-.3-.23-.56-.34-.82l-.46-1.22 1.6-.27c.25-.04.39-.06.53-.06h2.79c2.45 0 4.91 0 7.4.03 1.09 0 1.91-.62 2.08-1.57.19-1.06-.37-1.97-1.39-2.24-.52-.14-1.11-.21-1.81-.21-1.31 0-2.62.02-3.96.04l-3.03-.01c-1.36-.01-2.71-.01-4.08.01-.07 0-.21 0-.31-.07s-.14-.19-.18-.28c-.23-.63-.52-1.26-1.06-1.62-.59-.39-1.45-.34-2 .11-.55.46-.75 1.29-.51 2.02-.34.03-.69.07-1.12.12-.59.07-1.3.17-2.03.16l-.71-.01c-.43 0-.87.01-1.31.04-1.15.07-1.92.9-1.88 2.03.04 1.07.84 1.82 1.97 1.83h.15c.54 0 1.09-.02 1.64-.05l.96-.04c.24-.01.43-.01.6-.01 1.98 0 2.66 1.97 2.98 2.91.68 1.98 1.42 3.57 2.81 4.87.75.7 1.68 1.01 3 1.01.76 0 1.57-.1 2.36-.2l.25-.03c.81-.1 1.62-.21 2.42-.32l.35-.05c.12-.02.26-.04.48-.08.32-.06.71-.13 1.09-.13.75 0 1.15.28 1.33.94.21.77-.31 1.23-1.02 1.77l-.22.17c-.48.38-.96.75-1.45 1.08-.93.62-1.25 1.66-.79 2.58.34.68 1.04 1.11 1.7 1.11.21 0 .41-.04.59-.13 2.51-1.22 4-2.73 4.54-4.62.6-2.05.13-4.81-1.69-5.89z"/><path d="m34.96 16.84-.87-.74c-.75-.64-1.52-1.29-2.24-1.99-1.8-1.74-4.74-3.71-8.49-3.18-1.67.23-2.58 1.18-3.67 2.49-.77.93-1.53 1.88-2.29 2.84-.64.8-1.28 1.61-1.93 2.4-1.26 1.53-3.6 1.83-5.23.68-.58-.41-1.07-.89-1.53-1.35-2.08-2.1-3.25-4.69-4.38-7.19l-.46-1.02c-.63-1.38-1.42-1.54-1.96-1.54-.68.02-1.29.36-1.64.92-.24.39-.44 1.03-.03 1.88 1.29 2.7 2.62 5.49 4.3 7.95 2.09 3.07 4.21 4.55 6.88 4.81.48.05.95.07 1.38.07 2.34 0 4.01-.74 5.22-2.28.05-.05 4.26-5.4 4.3-5.45 1.16-1.48 2.73-1.84 4.4-1.01.49.25.98.58 1.46.98 1.02.87 2.03 1.74 3.04 2.62l1.21 1.05c.96.83 2.19.82 2.93-.04.74-.85.58-2.05-.4-2.9z"/><path d="m231.54 18.39c-1.1-1.49-2.59-2.57-4.55-3.28-.62-.23-1.29-.54-1.55-1.08-.24-.68-.55-1.89-.47-2.14.75-.03 1.4-.08 1.93-.45.43-.3.62-.7.56-1.19-.11-.89-1.06-1.88-1.85-2.19-.55-.21-1.15-.23-1.73-.24-1.06-.03-1.48-.29-2.04-1.28-.51-.91-1.1-1.86-1.8-2.92-.54-.82-1.54-1.11-2.42-.7-.89.41-1.31 1.33-1.05 2.31.04.15.09.3.15.51l.49 1.84-4.26-.01c-.59 0-1.19.01-1.78.02-.72.02-1.32.26-1.7.67-.33.36-.48.84-.45 1.38.07 1.13.95 1.81 2.36 1.81 1.99-.03 4.06.01 6.12.04l.91.01h.44c.64 0 1.11.1 1.36.59.16.31.19.67.21.99.01.11.02.25-.03.38-.09.23-.37.33-.5.38-1.24.47-2.64 1.01-3.74 2.04-.92.86-1.06 1.95-.97 3.33.11 1.81 1.42 3.44 3.05 3.8.36.08.76.12 1.18.12.55 0 1.14-.06 1.71-.19.9-.2 1.72-.69 2.38-1.41.37-.41.63-.86.9-1.33.14-.25.27-.42.41-.6.18-.25.37-.5.48-.79.04-.11.07-.18.11-.23.07-.09.18-.2.36-.2.4 0 .83.52 1.23.99.09.1.16.19.22.24.49.45.94.86 1.36 1.29.78.8 1.95.92 2.73.28.83-.67.93-1.85.24-2.79zm-10.12.08c-.01.82-.69 1.47-1.55 1.47-.81-.03-1.46-.71-1.46-1.51.01-.81.7-1.49 1.55-1.49.97.04 1.48.57 1.46 1.53z"/><path d="m160.52 11.4c-.22-.14-.66-.22-1.3-.22l-.36.01c-1.4.04-2.26.94-3.41 2.31l-.2.24c-1.18 1.41-2.41 2.86-3.92 4-.92.69-2 1.05-3.12 1.05-2.03 0-3.89-1.16-4.84-3.02-.4-.78-.68-1.74-.83-2.85-.16-1.15-.95-1.9-2.03-1.9-.54.02-1.04.25-1.39.62-.32.34-.47.78-.44 1.26.06 1.19.28 2.34.62 3.34 1.62 4.7 5.67 6.38 8.93 6.38 2.13 0 4.12-.66 5.59-1.87 1.16-.94 2.24-2.01 3.38-3.14.22-.22.42-.45.62-.69.31-.36.64-.74 1.03-1.04.75-.57 1.23-.27 2.02.63l.24.26c.58.63 1.24 1.34 1.82 2.14.82 1.12 1.91 1.44 2.86.83.96-.63 1.14-1.82.43-2.9-1.38-2.13-3.3-3.96-5.7-5.44z"/><path d="m89.82 10.56h.16c1.11 0 2.25-.59 2.33-1.89.03-.54-.15-1.06-.5-1.45-.39-.43-.96-.67-1.61-.69-.44-.01-.88-.01-1.33-.01h-3.09c-.44 0-.89.01-1.33.02h-.11c-.85.01-1.73.03-2.59-.02-.63-.03-.8-.26-.86-.33-.24-.31-.15-.8-.04-1.33.09-.47-.01-.9-.3-1.25-.33-.39-.81-.63-1.3-.63-.77 0-1.47.51-1.88 1.35-.3.64-.8 1.53-1.72 1.96-.4.19-.84.22-1.27.25-.54.04-1.05.08-1.48.4-.47.35-.75.94-.75 1.58 0 1.1.83 1.94 2 2 .31.02.61.03 1.16-.04.29-.04.59-.09.87-.09.51 0 .68.14.77.27.11.16.14.36.15.52.13 1.72.53 3.46.92 5.14l.13.55c.46 2.01 1 3.98 1.5 5.82.12.45.42.81.84 1.03.27.14.57.21.88.21.24 0 .48-.04.71-.12 1.07-.39 1.43-1.35 1.06-2.87-.16-.64-.37-1.27-.59-1.93-.22-.67-.46-1.37-.61-2.06-.28-1.25-.49-2.55-.68-3.69l-.07-.45c-.05-.33-.1-.66-.17-.99-.01-.04-.03-.1-.06-.2-.1-.31-.24-.79-.09-1 .05-.07.12-.1.22-.1 1.11 0 2.22 0 3.33-.02h.28c1.8-.02 3.43-.03 5.07.05.04.01.05.01.05.01z"/><path d="m212.14 19.64c-.32-.72-.95-1.15-1.69-1.15-.41 0-.8.15-1.18.29-.39.15-.9.31-1.31.31-.88-.01-1.69-.35-2.3-.95-3.04-3-4.43-6-4.39-9.42.01-.98-.6-1.8-1.48-2.01-.16-.04-.33-.06-.5-.06-.61 0-1.07.2-1.4.62-.97 1.22-.45 3.95-.27 4.75.51 2.28 1.69 4.6 3.49 6.91 1.38 1.78 2.86 3.03 4.38 3.73.68.31 1.38.47 2.12.47.21 0 .43-.01.65-.04.84-.1 1.72-.37 2.86-.88 1.01-.47 1.46-1.57 1.02-2.57z"/><path d="m99.47 20.57c-2.89-.06-5.67-.17-8.29-.28-1.02 0-1.85.69-1.99 1.63-.08.56.06 1.11.36 1.51.28.37.68.6 1.15.66 1.25.17 2.54.24 3.81.32 0 0 .72.02.77.02l2.89-.01c.42 0 .84 0 1.34.01 1.41 0 2.27-.69 2.31-1.86.02-.53-.13-.97-.45-1.31-.41-.43-1.09-.68-1.9-.69z"/><path d="m90.99 17.85c2.44-.04 4.89-.06 7.33-.06 1.24 0 2.13-.78 2.16-1.89.02-.66-.27-1.25-.79-1.62-.47-.33-1.04-.38-1.59-.42-2.21-.17-4.48-.21-7.04-.12-.58.02-1.12.26-1.52.69-.41.43-.62.98-.6 1.55.03 1.09.87 1.87 2.05 1.87z"/></g></svg>