<svg enable-background="new 0 0 347 74" viewBox="0 0 347 74" width="347" height="74" xmlns="http://www.w3.org/2000/svg"><g fill="#d3bfa1"><path d="m144.55 40.83h-11.93v11.99h11.93z"/><path d="m127.64 40.83h-11.93v11.99h11.93z"/><path d="m103.63 1.4h-16.13v8.25h-9.9v1.83h8.07l-8.07 6.64v18.65h.12l9.78-8.04v8.04h16.13z"/><path d="m123.57 18.29h4.85v15.38h-4.85zm0-6.81h4.85v4.99h-4.85zm0-6.82h4.85v4.99h-4.85zm20.98-3.26h-16.13v1.44h-4.85v-1.44h-16.13v35.37h16.13v-1.28h4.85v1.28h16.13z"/><path d="m92.04 40.83h-13.65-.39-.4c-.26 1.43-.39 2.88-.39 4.34 0 .49.02.98.05 1.47.48 7.7 4.58 14.77 11.54 19.94 1.15.85 2.14 1.63 3.25 2.34v-28.09"/><path d="m112.39 70.48c.57 0 1.14-.01 1.7-.04 5.17-.22 10.02-1.37 14.33-3.23v1.79c-4.31 1.9-9.17 3.06-14.37 3.29-.57.02-1.12.04-1.66.05zm0-29.65h-16.13v29.4c-.01.05-.01.1-.01.15 0 .14.02.27.02.41 0 .04 0 .09-.01.13 5.29 2.52 9.77 3.09 15.98 3.09.62 0 1.23-.01 1.85-.04 14-.59 25.67-7.9 30.66-17.92h-.84-15.49v5.89 3.56c-4.31 1.9-9.17 3.06-14.37 3.29-.57.02-1.12.04-1.66.05v-4.84-.43-1.64z"/><path d="m2.29 35.7 1.98-1.43v.05h16.41l-1.9 1.38zm4.77-3.46 1.9-1.38h16.49l-2 1.45v-.07zm20.35-32.24-23.14 16.81-3.96 2.87v3.46 10.61 3.46h16.37l-12.41 9.04-3.96 2.87v3.46 10.55 3.46h27.1v-1.52h-25.03l1.9-1.38h23.13v-.56-.96-.56h-20.26l1.9-1.38h18.36v-1.52h-16.27l12.31-8.95 3.96-2.87v-3.46-10.53-.1-3.36-.1h-16.36l12.39-9.01 3.96-2.87v-3.46-10.54-3.46"/><path d="m48.67 68.54c.72.08 1.45.13 2.19.13.65 0 1.3-.03 1.94-.09v1.76c-.64.06-1.28.1-1.94.1-.74 0-1.47-.05-2.19-.12zm21.16-60.02h-4.98-12.06-13.79v1.73h13.79v51.79.59 3.6.5c-.64.06-1.28.09-1.94.09-.74 0-1.47-.04-2.19-.12v-.47-3.6-.59-17.48h-17.04v10.45c.03 8.37 6.66 15.33 15.44 16.91h.03c.2.04.41.07.61.1.15.02.29.04.43.06h.03.01c.87.11 1.77.17 2.67.17.65 0 1.3-.03 1.94-.09 8.7-.78 15.69-6.79 17.05-14.49z"/><path d="m260.66 6.41h-21.4v7.31h-20.53v5.43h39.31v16.57l-40.72 13.75v6.24l21.53-7.38-.06 20.66h21.4l-.07-24.35 2.22 1.09v23.26h1.79v-22.38l18.13 8.9-.07-7.04-18.85-8.59 16.84-5.77v-20.39h-19.52z"/><path d="m183.26 18.15h-31.46v5.36h31.46z"/><path d="m183.26 7.41h-31.46v5.37h31.46z"/><path d="m212.24 9.63-55.55 52.32-4.76.07v5.97h26.9l.81-.75 32.53-30.18z"/><path d="m212.19 40.05-30.12 27.94h2.63l27.49-25.5z"/><path d="m346.69 7.41h-61.65v5.5h39.04l-9.45 18.32h-19.93l18.18 36.76h22.61l-16.17-31.26h3.01l16.41 31.26h2.02l-16.42-31.26h9.74l12.61-24.69z"/></g></svg>
