<svg enable-background="new 0 0 196 74" viewBox="0 0 196 74" xmlns="http://www.w3.org/2000/svg"><g fill="#25283c"><path d="m38.47 63.19h6.11v.52h-2.77v10.02h-.58v-10.02h-2.76z"/><path d="m38.2 62.91v1.07h2.76v10.02h1.13s0-9.5 0-10.02h2.77v-1.07zm3.34.55v9.99c-.02 0-.02 0-.03 0 0-.52 0-9.95 0-9.99z"/><path d="m55.82 70.6c-.76.8-1.75 1.19-2.98 1.19s-2.22-.4-2.98-1.2c-.75-.8-1.13-1.85-1.13-3.16s.38-2.36 1.13-3.16 1.75-1.2 2.98-1.2 2.22.4 2.98 1.2c.75.8 1.13 1.85 1.13 3.16-.01 1.31-.38 2.37-1.13 3.17zm-5.53-.36c.64.7 1.49 1.06 2.55 1.06s1.91-.35 2.55-1.06c.65-.7.97-1.64.97-2.8s-.32-2.1-.97-2.81-1.5-1.06-2.55-1.06c-1.06 0-1.91.35-2.55 1.06-.65.71-.97 1.64-.97 2.81-.01 1.16.31 2.09.97 2.8z"/><path d="m49.66 64.08c-.8.85-1.2 1.98-1.2 3.35 0 1.38.41 2.5 1.2 3.35.8.85 1.87 1.28 3.18 1.28 1.3 0 2.37-.43 3.18-1.28.79-.85 1.2-1.98 1.2-3.36s-.41-2.5-1.21-3.35-1.87-1.28-3.18-1.28c-1.3.01-2.37.44-3.17 1.29zm.4 6.33c-.7-.74-1.06-1.74-1.06-2.97s.35-2.23 1.06-2.97c.71-.75 1.62-1.11 2.78-1.11s2.07.36 2.78 1.11c.7.74 1.06 1.74 1.06 2.97s-.35 2.23-1.05 2.98c-.71.75-1.62 1.11-2.78 1.11-1.18-.01-2.09-.37-2.79-1.12z"/><path d="m50.08 64.45c-.69.76-1.04 1.76-1.04 2.99s.35 2.23 1.05 2.98c.69.76 1.62 1.15 2.75 1.15s2.06-.38 2.76-1.15c.69-.75 1.04-1.76 1.04-2.98 0-1.23-.35-2.23-1.04-2.99-.7-.76-1.62-1.15-2.76-1.15s-2.06.38-2.76 1.15zm.41 5.6c-.6-.65-.9-1.53-.9-2.61 0-1.09.3-1.97.9-2.62s1.37-.97 2.35-.97 1.75.32 2.35.97.9 1.53.9 2.62-.3 1.96-.9 2.61-1.37.97-2.35.97c-.99 0-1.76-.32-2.35-.97zm-.41.38c0-.01 0-.01 0 0z"/><path d="m64.26 71.27c1.61 0 2.42-.94 2.42-2.83v-5.27h.57v5.26c0 1.1-.26 1.93-.77 2.5s-1.26.85-2.23.85-1.71-.28-2.23-.85c-.51-.57-.77-1.4-.77-2.5v-5.26h.58v5.27c.01 1.89.81 2.83 2.43 2.83z"/><path d="m66.41 62.9v5.54c0 1.74-.68 2.55-2.14 2.55-1.47 0-2.15-.81-2.15-2.55v-5.54h-1.13v5.53c0 1.16.28 2.06.84 2.68.57.63 1.38.94 2.43.94s1.86-.32 2.43-.94c.56-.62.84-1.52.84-2.68v-5.53zm-4.85.55v4.99c0 .62.09 1.11.24 1.52-.17-.43-.28-.92-.28-1.53 0 0 0-4.49 0-4.98zm.67 7.3c-.14-.16-.23-.39-.33-.6.13.28.29.52.48.7-.05-.04-.11-.06-.15-.1zm4.74-7.3v4.98c0 .58-.1 1.07-.25 1.49.14-.4.23-.87.23-1.48 0 0 0-4.5 0-4.99zm-.44 6.82c-.09.16-.14.35-.26.48-.03.03-.08.05-.11.08.14-.15.26-.35.37-.56zm-3.67.91c.1.05.19.12.3.16-.11-.04-.2-.11-.3-.16zm2.7.05c-.07.03-.12.08-.19.1.07-.02.13-.07.19-.1z"/><path d="m72.67 63.18v3.65h4.88v-3.65h.59v10.54h-.59v-6.41h-4.88v6.41h-.58v-10.54z"/><path d="m77.28 62.9v3.65c-.46 0-3.87 0-4.33 0 0-.47 0-3.65 0-3.65h-1.13v11.09h1.13s0-5.9 0-6.41h4.33v6.41h1.14v-11.09zm-4.88.55v9.99c-.02 0-.02 0-.03 0 0-.51 0-9.49 0-9.99zm5.47 0v9.99c-.02 0-.02 0-.04 0 0-.5 0-9.52 0-9.99z"/><path d="m89.66 70.6c-.76.8-1.75 1.19-2.98 1.19s-2.22-.4-2.98-1.2c-.75-.8-1.13-1.85-1.13-3.16s.38-2.36 1.13-3.16 1.75-1.2 2.98-1.2 2.22.4 2.98 1.2c.75.8 1.13 1.85 1.13 3.16-.01 1.31-.38 2.37-1.13 3.17zm-5.53-.36c.64.7 1.49 1.06 2.55 1.06s1.91-.35 2.55-1.06c.65-.7.97-1.64.97-2.8s-.32-2.1-.97-2.81-1.5-1.06-2.55-1.06c-1.06 0-1.91.35-2.55 1.06-.65.71-.97 1.64-.97 2.81-.01 1.16.32 2.09.97 2.8z"/><path d="m83.5 64.08c-.8.85-1.2 1.98-1.2 3.35 0 1.38.41 2.5 1.2 3.35.8.85 1.87 1.28 3.18 1.28 1.3 0 2.37-.43 3.18-1.28.79-.85 1.2-1.98 1.2-3.36s-.41-2.5-1.21-3.35-1.87-1.28-3.18-1.28c-1.3.01-2.37.44-3.17 1.29zm.4 6.33c-.7-.74-1.06-1.74-1.06-2.97s.35-2.23 1.06-2.97c.71-.75 1.62-1.11 2.78-1.11s2.07.36 2.78 1.11c.7.74 1.06 1.74 1.06 2.97s-.35 2.23-1.05 2.98c-.71.75-1.62 1.11-2.78 1.11-1.18-.01-2.08-.37-2.79-1.12z"/><path d="m83.92 64.45c-.69.76-1.04 1.76-1.04 2.99 0 1.23.35 2.23 1.05 2.98.69.76 1.62 1.15 2.75 1.15s2.06-.38 2.76-1.15c.69-.75 1.04-1.76 1.04-2.98 0-1.23-.35-2.23-1.04-2.99-.7-.76-1.62-1.15-2.76-1.15-1.13 0-2.06.38-2.76 1.15zm.41 5.6c-.6-.65-.9-1.53-.9-2.61 0-1.09.3-1.97.9-2.62s1.37-.97 2.35-.97 1.75.32 2.35.97.9 1.53.9 2.62-.3 1.96-.9 2.61-1.37.97-2.35.97c-.99 0-1.75-.32-2.35-.97zm-.4.38c0-.01 0-.01 0 0z"/><path d="m98.11 71.27c1.61 0 2.42-.94 2.42-2.83v-5.27h.57v5.26c0 1.1-.26 1.93-.77 2.5s-1.26.85-2.23.85-1.71-.28-2.23-.85c-.51-.57-.77-1.4-.77-2.5v-5.26h.58v5.27c0 1.89.81 2.83 2.43 2.83z"/><path d="m100.25 62.9v5.54c0 1.74-.68 2.55-2.14 2.55-1.47 0-2.15-.81-2.15-2.55v-5.54h-1.13v5.53c0 1.16.28 2.06.84 2.68.57.63 1.38.94 2.43.94s1.86-.32 2.43-.94c.56-.62.84-1.52.84-2.68v-5.53zm-4.85.55v4.99c0 .62.09 1.11.24 1.52-.17-.43-.28-.92-.28-1.53 0 0 0-4.49 0-4.98zm.67 7.3c-.14-.16-.23-.39-.33-.6.13.28.29.52.48.7-.04-.04-.11-.06-.15-.1zm4.75-7.3v4.98c0 .58-.1 1.07-.25 1.49.14-.4.23-.87.23-1.48 0 0 0-4.5 0-4.99zm-.45 6.82c-.09.16-.14.35-.26.48-.03.03-.08.05-.11.08.15-.15.26-.35.37-.56zm-3.67.91c.1.05.19.12.3.16-.11-.04-.2-.11-.3-.16zm2.71.05c-.07.03-.12.08-.19.1.06-.02.12-.07.19-.1z"/><path d="m105.87 68.56v-.49h3.3v.49z"/><path d="m105.6 67.8h3.85v1.04h-3.85z"/><path d="m118.18 63.19v5.31c0 2.2-1.01 3.29-3.03 3.29-.67 0-1.26-.13-1.77-.39l.15-.5c.54.26 1.08.39 1.62.39 1.61 0 2.42-.96 2.42-2.87v-5.24h.61z"/><path d="m117.3 62.91v5.51c0 1.77-.68 2.6-2.14 2.6l-1.76-.42-.13.23-.21.72.21.1c.55.27 1.19.41 1.89.41 2.16 0 3.31-1.23 3.31-3.57v-5.59h-1.17zm.61.55v5.04c0 1.16-.33 1.94-.92 2.43.5-.47.86-1.23.86-2.51 0 0 0-4.47 0-4.96zm-1.18 7.64c-.15.09-.28.19-.46.25.16-.06.31-.15.46-.25z"/><path d="m123.42 73.73v-10.54h.63v10.54z"/><path d="m123.14 62.91v11.09h1.18v-11.09zm.63.55v9.99c-.04 0-.04 0-.08 0 0-.51 0-9.48 0-9.99z"/><path d="m129.99 63.18v3.65h4.88v-3.65h.59v10.54h-.59v-6.41h-4.88v6.41h-.58v-10.54z"/><path d="m134.6 62.9v3.65c-.46 0-3.87 0-4.33 0 0-.47 0-3.65 0-3.65h-1.13v11.09h1.13s0-5.9 0-6.41h4.33v6.41h1.14v-11.09zm-4.89.55v9.99c-.02 0-.02 0-.03 0 0-.51 0-9.49 0-9.99zm5.48 0v9.99c-.02 0-.02 0-.04 0 0-.5 0-9.52 0-9.99z"/><path d="m140.99 63.7v3.13h4v.49h-4v3.86h4.22v.5h-4.81v-8.49h4.81v.51z"/><path d="m140.13 62.91v9.04h5.36v-1.05s-3.74 0-4.22 0c0-.44 0-2.88 0-3.31h4v-1.04s-3.52 0-4 0c0-.41 0-2.17 0-2.58h4.22v-1.06zm.59.55v7.95h-.03c0-.5 0-7.45 0-7.95z"/><path d="m150.05 73.73v-10.54h.66l4.88 7.61h.02v-7.61h.57v8.49h-.67l-4.86-7.61h-.02v9.65h-.58z"/><path d="m155.33 62.91v6.98c-.78-1.22-4.47-6.98-4.47-6.98h-1.08v11.09h1.12s0-7.54 0-9.02c.78 1.23 4.46 6.98 4.46 6.98h1.09v-9.04h-1.12zm-4.97.55c-.01.28-.01.61-.01.61s0 8.86 0 9.38c-.01 0-.01 0-.02 0 0-.51 0-9.48 0-9.99zm5.54 0v7.95c-.02 0-.02 0-.03 0 .01-.28.01-.61.01-.61s0-6.82 0-7.33c.01-.01.01-.01.02-.01z"/><path d="m21.71 0c-.24 0-.44.2-.44.44v4.13c0 .24-.2.44-.44.44h-20.2c-.24 0-.44.2-.44.44v3.03c0 .24.2.44.44.44h20.2c.24 0 .44.2.44.44v2.4c0 .24-.2.44-.44.44h-14.39c-.24-.01-.44.19-.44.43v21.62c0 .24.2.44.44.44h11.86c.24 0 .29.13.11.29l-16.4 11.9c-.2.12-.54.31-.75.42-.21.1-.3.37-.21.6l1.32 3.23c.09.22.32.33.5.23.19-.1.51-.29.71-.41l17.36-13.04c.18-.16.32-.1.32.14v19.29c0 .24.2.44.44.44h3.05c.24 0 .44-.2.44-.44v-19.3c0-.24.15-.3.32-.14l17.35 13.04c.2.13.52.32.71.41.19.1.41 0 .5-.23l1.31-3.23c.09-.22 0-.49-.21-.6-.21-.1-.54-.29-.75-.42l-16.36-11.88c-.18-.16-.13-.29.11-.29h11.85c.24 0 .44-.2.44-.44v-21.63c0-.24-.2-.44-.44-.44h-14.38c-.24 0-.44-.2-.44-.44v-2.4c0-.24.2-.44.44-.44h38.86c.24 0 .43.2.41.44 0 0-.97 16.75-2.69 21.57-1.81 5.06-9.79 13.67-9.79 13.67-.16.18-.45.45-.63.61l-.02.02c-.18.16-.22.45-.07.64l2.07 2.85c.14.2.39.24.54.1.16-.14.42-.4.59-.57 0 0 7.05-7.41 9.17-11.65 2.01-4.05 4.02-14.74 4.02-14.74.04-.24.28-.43.52-.43h16.62c.24 0 .44.2.44.44v32.62c0 .24.2.44.44.44h2.97c.24 0 .44-.2.44-.44v-36.95c0-.24-.2-.44-.44-.44h-20.07c-.24 0-.43-.2-.42-.44l.23-7.3c0-.24.21-.44.45-.44h51.89c.24 0 .44.2.44.44v2.1c0 .24-.2.44-.44.44h-14.68c-.24 0-.44.2-.44.44v11.02c0 .24.2.44.44.44h14.68c.24 0 .44.2.44.44v1.25c0 .24-.2.44-.44.44h-16.64c-.24 0-.44.2-.44.44v3.23c0 .24.2.44.44.44h16.64c.24 0 .44.2.44.44v2.57c0 .24-.2.44-.44.44h-18.85c-.24 0-.44.2-.44.44v3.3c0 .24.2.44.44.44h18.85c.24 0 .44.2.44.44v2.67c0 .24-.2.44-.44.44h-16.64c-.24 0-.44.2-.44.44v3.23c0 .24.2.44.44.44h16.64c.24 0 .44.2.44.44v11.85c0 .24.2.44.44.44h3.16c.24 0 .44-.2.44-.44v-11.84c0-.24.2-.44.44-.44h15.3c.24 0 .44-.2.44-.44v-6.78c0-.24.2-.44.44-.44h2.66c.24 0 .44-.2.44-.44v-3.3c0-.24-.2-.44-.44-.44h-2.66c-.24 0-.44-.2-.44-.44v-6.69c0-.24-.2-.44-.44-.44h-15.3c-.24 0-.44-.2-.44-.44v-1.25c0-.24.2-.44.44-.44h14.65c.24 0 .44-.2.44-.44v-11.02c0-.24-.2-.44-.44-.44h-14.65c-.24 0-.44-.2-.44-.44v-2.1c0-.24.2-.44.44-.44h42.06c.24 0 .42.2.4.44 0 0-.71 8.65-1.7 10.8-1.1 2.4-5.37 6.54-5.37 6.54-.17.17-.47.43-.66.58l-.11.09c-.19.15-.21.42-.06.61l2.12 2.47c.16.19.4.24.55.13.14-.11.4-.35.57-.51 0 0 4.95-4.87 6.31-7.89 1.24-2.76 2.13-12.82 2.13-12.82.02-.24.24-.44.48-.44h4.57c.24 0 .44.2.44.44v18.35c0 .24.2.44.44.44h2.92c.24 0 .44-.2.44-.44v-18.35c0-.24.2-.44.44-.44h12.95c.24 0 .44-.2.44-.44v-3.02c0-.24-.2-.44-.44-.44h-18.24c-.24 0-.44-.2-.44-.44v-4.12c0-.24-.2-.44-.44-.44h-3.05c-.24 0-.44.2-.44.44v4.11c0 .24-.2.44-.44.44h-45.88c-.24 0-.44-.2-.44-.44v-4.01c0-.24-.2-.44-.44-.44h-3.16c-.24 0-.44.2-.44.44v4.02c0 .24-.2.44-.44.44h-46.52c-.24 0-.44-.2-.44-.44v-4.13c0-.24-.2-.44-.44-.44h-3.05c-.24 0-.44.2-.44.44v4.12c0 .24-.2.44-.44.44h-44.2c-.24 0-.44-.2-.44-.44v-4.12c.01-.24-.19-.44-.43-.44zm160.47 13.51c-.18.16-.19.43-.03.6l.14.14c.17.17.44.46.6.64l9.36 11.69c.14.2.35.52.48.71.12.19.37.23.56.07l2.34-1.92c.19-.15.23-.45.11-.65l-.02-.03c-.13-.2-.35-.53-.49-.73l-9.6-12.04c-.16-.18-.39-.43-.52-.56s-.38-.1-.56.06zm-45.3 2.49c.24 0 .44.2.44.44v2.79c0 .24-.2.44-.44.44h-10.8c-.24 0-.44-.2-.44-.44v-2.79c0-.24.2-.44.44-.44zm-15.71 0c.24 0 .44.2.44.44v2.79c0 .24-.2.44-.44.44h-10.83c-.24 0-.44-.2-.44-.44v-2.79c0-.24.2-.44.44-.44zm-84.94.31c.24 0 .44.2.44.44v3.99c0 .24-.2.44-.44.44h-10.59c-.24 0-.44-.2-.44-.44v-3.99c0-.24.2-.44.44-.44zm-15.4 0c.24 0 .44.2.44.44v3.99c0 .24-.2.44-.44.44h-10.64c-.24 0-.44-.2-.44-.44v-3.99c0-.24.2-.44.44-.44zm15.4 8.86c.24 0 .44.2.44.44v4.53c0 .24-.2.44-.44.44h-10.59c-.24 0-.44-.2-.44-.44v-4.53c0-.24.2-.44.44-.44zm-15.4 0c.24 0 .44.2.44.44v4.53c0 .24-.2.44-.44.44h-10.64c-.24 0-.44-.2-.44-.44v-4.53c0-.24.2-.44.44-.44zm142.26 6.68c-1.18 1.1-1.35 1.14-2.03 1.71-1.74 1.46-7.06 5.34-7.06 5.34-.2.14-.5.39-.71.5s-.3.38-.2.61l1.39 3.02c.1.22.33.32.51.23s.49-.27.69-.4l7.11-5.01c.19-.15.47-.13.63.05s.43.47.6.64l6.64 5.8c.19.15.16.35-.06.44 0 0-5.24 2.17-7.77 2.96-1.48.47-1.97.67-8.3 2.27-.23.06-.61.14-.84.18s-.37.27-.33.5l.64 3.41c.04.24.24.41.43.37.19-.03.55-.11.78-.17 0 0 5.19-1.57 9.59-2.96s9.86-3.84 9.86-3.84c.22-.1.58-.09.8.01 0 0 5.27 2.23 9.55 3.83 2.84 1.07 3.99 1.65 8.49 2.95.23.07.58.15.78.18.2.04.39-.13.44-.37l.63-3.42c.04-.24-.1-.47-.32-.51s-.6-.13-.83-.19c0 0-4.61-1.26-7.33-2.18s-7.37-3-7.37-3c-.22-.1-.25-.3-.06-.46 0 0 2.35-1.56 5.12-4.38 2.77-2.83 4.05-4.64 4.05-4.64.16-.19.31-.37.34-.41s.07-.14.09-.22.04-.35.04-.59v-2.45c0-.24-.2-.44-.44-.44h-18.74c-.24 0-4.35-.03-5.44-.01-.02 0-.58-.08-1.37.65zm19.84 3.48c.24 0 .3.14.13.31l-7.61 6.48c-.19.14-.51.14-.71 0l-7.72-6.48c-.17-.17-.12-.31.13-.31zm-45.34-5.29c.24 0 .44.2.44.44v2.57c0 .24-.2.44-.44.44h-11.51c-.24 0-.44-.2-.44-.44v-2.57c0-.24.2-.44.44-.44zm0 7.63c.24 0 .44.2.44.44v2.67c0 .24-.2.44-.44.44h-11.51c-.24 0-.44-.2-.44-.44v-2.67c0-.24.2-.44.44-.44z"/><path d="m162.93 11.07c-.2-.13-.46-.07-.58.14l-.1.17c-.12.21-.33.55-.46.75l-8.75 12.16c-.15.19-.4.48-.55.65s-.12.42.08.56l2.48 1.74c.2.14.49.11.65-.07l.02-.02c.16-.18.42-.48.57-.67l9.02-12.48c.13-.2.31-.5.4-.65.09-.16 0-.39-.21-.53z"/></g></svg>