<svg enable-background="new 0 0 480 80" viewBox="0 0 480 80" xmlns="http://www.w3.org/2000/svg"><g fill="#d9c6aa"><path d="m13.09 34.98c-1.1 6.22-2.36 12.89-2.63 18.66-.79 14.84 2.87 20 6.24 23.02-9.05 0-16.47-6.4-16.69-21.15-.07-7.11 1.4-13.6 2.62-20.53l3.76-21.33-2.42-3.2h16.36l-3.47 3.2zm25.13 26.49 3.55-3.2 2.46-13.95c3.26-18.49 2.22-25.33-3-31.46 10.01 1.6 17.02 11.29 13.46 31.46l-2.46 13.95 2.67 3.2z"/><path d="m101.2 27.78c13.33-2.13 23.63 8.18 20.06 25.15-2.62 12.53-16.02 30.57-40.49 25.77 20.16-6.49 28.53-17.24 30.44-26.22 3.77-17.6-15.14-19.11-25.55-7.64.21-.27-2.05 2.22-2.05 2.22l-.28 4.89-10.64-10.3 4.68-.62 17.17-18.75s8.31-8.98 17.07-5.95zm26-11.37 2.81-15.91-3.55 3.2h-40.93l-2.43-3.2-2.8 15.91 3.55-3.2h40.93z"/><path d="m157.15 34.98c-1.1 6.22-2.36 12.89-2.63 18.66-.79 14.84 2.87 20 6.24 23.02-9.05 0-16.47-6.4-16.69-21.15-.07-7.11 1.4-13.6 2.62-20.53l3.76-21.33-2.42-3.2h16.36l-3.47 3.2zm25.14 26.49 3.55-3.2 2.46-13.95c3.26-18.49 2.22-25.33-3-31.46 10.01 1.6 17.02 11.29 13.46 31.46l-2.46 13.95 2.67 3.2z"/><path d="m243.83 27.78c13.33-2.13 23.63 8.18 20.06 25.15-2.62 12.53-16.02 30.57-40.49 25.77 20.16-6.49 28.53-17.24 30.44-26.22 3.77-17.6-15.14-19.11-25.55-7.64.21-.27-2.05 2.22-2.05 2.22l-.28 4.89-10.63-10.31 4.68-.62 17.17-18.75s8.31-8.98 17.07-5.95zm26-11.37 2.81-15.91-3.55 3.2h-40.93l-2.42-3.2-2.81 15.91 3.55-3.2h40.93z"/><path d="m310.61 22.1 9.9-.09c4.44.71 16.56-1.16 20.5 7.55 5.52 9.69-5.76 33.15-29.67 27.02 18.78-4.35 22.12-16.71 20.11-20.8-1.61-3.56-7.31-3.29-14.11-3.29l-8.57.09-7.26 41.15 2.42 3.2h-16.35l3.55-3.2 7.27-41.24-9.31.09-3.52 3.02 2.95-16.71 2.44 3.11h9.3l3.12-17.69-2.42-3.2h16.35l-3.55 3.2zm22.08-17.42-2.82 16c-8.73-4.62-6.39-16-6.39-16l-2.43-3.2h15.19z"/><path d="m407.1 52.93c-2.59 14.66-15.2 24.97-28.48 24.97h-16.6l4.72-26.75h14.45l3.45-3.11-2.68 15.2-2.36-3.11h-5.31l-1.41 8h7.47c7.89 0 15.28-7.11 16.71-15.2 1.54-8.71-3.24-14.57-10.88-14.57h-11.79l-5.76 6.31-.63 4.98-10.2-10.94 4.52-.18 16.57-17.69s7.9-8.09 16.42-5.07l-11.97 12.8h4.57c13.1.01 21.46 9.61 19.19 24.36zm2.07-39.54h-39.6l-3.55 3.2 2.8-15.91 2.42 3.2h39.6l3.55-3.2-2.81 15.91z"/><path d="m418.35 78.8s23.51-14.57 34.23-75.34h12.97c-13.59 77.08-47.2 75.34-47.2 75.34zm38.35-36.17s5.05 16.01 23.24 24.79l-8.96 11.38c-22.51-17.36-14.28-36.17-14.28-36.17z"/></g></svg>