<svg enable-background="new 0 0 210 80" viewBox="0 0 210 80" xmlns="http://www.w3.org/2000/svg"><g fill="#d9c6aa"><path d="m12.84 50.99c-3.34 14.76-1.17 21.8 4.86 29.01-10.17.17-19.33-9.99-15.33-29.01l-2.37-3.13h16.23zm34.43-13.03h-7.14c.13 1.13.17 2.26.15 3.3 0 0-.27 11.2-6.61 19.54l-3.77-22.84h-25.64l-3.47 3.13 2.73-15.46 2.37 3.13h22.48l-1.15-7.3h-20.13l-3.47 3.13 2.74-15.56 2.37 3.13h16.96l-1.01-5.3-3.41-1.39 15.33-5.47-2.04 3.3 1.52 8.86h15.74l3.47-3.13-2.74 15.55-2.37-3.13h-12.58l1.15 7.3h10.14l3.47-3.13-2.73 15.46z"/><path d="m98.96 47.16c-2.27 12.86-2 26.06 9.98 32.66-15.95-.17-25.03-6.69-20.13-34.48l6.55-37.18-2.36-3.12h16.31l-3.47 3.13zm10.44-25.62 5.7-7.47 3.06 7.47-5.7 7.47zm1.63 14.68 5.7-7.47 3.06 7.47-5.7 7.47z"/><path d="m201.52 37.52h-15.34l-1 5.65c8.81 1.56 14.21 8.69 10.78 20.76-1.26-7.12-5.42-11.12-12.41-11.55l-4.58 25.97h-15.82c-13.78-9.73-4.32-30.75 12.73-34.92l1.04-5.91h-18.5l-3.46 3.04 2.73-15.46 2.37 3.13h18.5l1.32-7.47h-18.5l-3.46 3.04 2.73-15.46 2.37 3.13h18.5l1.04-5.91-2.37-3.13h15.01l-3.39 3.13-1.04 5.91h15.34l3.47-3.13-2.73 15.46-2.39-3.04h-15.34l-1.32 7.47h15.34l3.47-3.13-2.74 15.55zm-27.43 16.16c-6.69 2.95-10.64 11.12-6.54 15.46l3.8.09z"/></g></svg>