<svg enable-background="new 0 0 384 80" viewBox="0 0 384 80" xmlns="http://www.w3.org/2000/svg"><g fill="#d9c6aa"><path d="m109.37 14h-18.97l.8-4.56h45.53l4.23-3.72 2.92 3.72-.8 4.56h-21.2c-1.18 6.7-7.27 40.69-12.44 65.46h-10.01c2.83-22.62 8.79-58.47 9.94-65.46zm28.79 27.94-7.43 13.22c-14.09-8.38-10.3-22.26-10.3-22.26s8.1 6.34 17.73 9.04z"/><path d="m159.07 63.61c2.47-18.1 12.81-28.14 21.7-30.37-8.85 8.84-10.52 26.51-11.45 30.37l2.34 3.09h-15.95zm16.01 13.3-3.43 3.09 2.93-16.64 2.34 3.09h8.65c4.77-9.78 6.72-30.37.94-44.87 14.92 9.01 17.99 29.77 4.67 55.33zm30.48-60.14h-25.64l-3.43 3.09 2.81-15.96 2.33 3.17h25.64l3.43-3.09-2.8 15.87zm-2.88 49.93 3.43-3.09c.52-3.86 5.08-21.53-.74-30.37 8.18 2.23 14.91 12.27 10.99 30.37l2.34 3.09z"/><path d="m261.19 38.05c-5.74 18.02-13.31 32.77-27.68 40.15 15.86-22.22 20.64-49.33 24.51-71.29l-2.34-3.09h15.55l-3.43 3.09c-1.23 6.95-2.47 13.98-4.03 21.02-.71 3.17-1.43 6.35-2.58 10.12zm32.65 5.75-5.52 31.31h-27.33l1.29-7.29c3.74-20.76 6.28-29.25 1.95-36.03 13.9 3 11.19 18.36 8.39 33.8h8.17l3.84-21.79-2.66-3.09h15.31z"/><path d="m329.5 51.09c-3.29 14.58-1.15 21.53 4.8 28.65-10.05.17-19.1-9.87-15.14-28.65l-2.34-3.09h16.03zm34.01-12.87h-7.05c.12 1.11.17 2.23.15 3.26 0 0-.27 11.07-6.53 19.3l-3.72-22.56h-25.32l-3.43 3.09 2.69-15.27 2.34 3.09h22.2l-1.13-7.21h-19.87l-3.43 3.09 2.71-15.36 2.34 3.09h16.75l-1-5.23-3.36-1.37 15.14-5.4-2.02 3.26 1.5 8.75h15.53l3.43-3.09-2.71 15.36-2.34-3.09h-12.42l1.13 7.21h10.02l3.43-3.09-2.69 15.27zm9.91-28.48 5.63-7.38 3.03 7.38-5.63 7.38zm1.61 14.5 5.63-7.38 3.03 7.38-5.63 7.38z"/><path d="m57.92 26.87c-.69 3.05.1 1.06-6.24 32.66 7.31-.63 11.42-1.17 11.42-1.17s-2.95 3.05-12.55 6.55c-.84 4.4-1.85 9.16-2.97 14.45h-11.34l2.33-10.95c-9.06 2.24-21.37 4.31-37.72 5.48l-.85-12.2c2.67 0 6.04-.09 8.51-.09.93-4.31.45-3.93 6.84-34.73h-10.79l.84-4.4h58.87l4.8-3.59 3.42 3.59-.84 4.4zm-17.92 33.56c.69-4.13.64-3.82 1.3-7.24h-19.22c-1.08 6.19-1.04 5.89-1.37 8.13 7.25-.26 13.67-.53 19.29-.89zm-17.28-11.64h19.31l1.46-8.68h-19.31c-.84 4.94-.78 5.09-1.46 8.68zm2.19-13.08h19.31c1.29-7.27 1.21-7.14 1.43-8.84h-19.31z"/><path d="m8.84 6.55h14.69c.55-4.11.96-6.55.96-6.55h11.92s-.47 2.25-1.48 6.55h12.12l1.69-6.55h9.86c-.29 2.35-.54 4.5-.86 6.55h6.88l4.93-3.91 3.29 3.91-1.01 4.79h-14.69c-.7 4.79-1.19 7.63-1.19 7.63h-11.92s.54-2.54 1.81-7.63h-12.12c-.58 2.25-1.21 4.79-2.02 7.63h-9.86l.99-7.63h-15z"/></g></svg>