<svg enable-background="new 0 0 236 80" viewBox="0 0 236 80" xmlns="http://www.w3.org/2000/svg"><g fill="#d9c6aa"><path d="m46.4 22.13h-14.61c-4.4 21.69-9.76 44.53-31.75 56.27 7.63-9.87 14.68-21.6 21.37-56.27h-10.03l-3.55 3.2 2.79-15.82 2.42 3.2h10.21c.27-1.51 1.76-9.51 1.76-9.51l-2.43-3.2h16.1l-3.55 3.2s-.56 3.64-1.59 9.51h14.53l3.55-3.2-2.79 15.82zm5.53 54.85c-14.85.89-23.94-5.42-23.02-19.64 4.34 5.51 7.75 8.8 24.93 8.8l3.45-3.11-2.99 16.97zm6.02-36.98h-20.34l-3.55 3.2 2.88-16.36 2.41 3.29h20.34l3.55-3.2-2.87 16.27z"/><path d="m86.27 63.02c2.56-18.76 13.27-29.16 22.48-31.47-9.17 9.16-10.9 27.47-11.86 31.47l2.43 3.2h-16.52zm16.58 13.78-3.56 3.2 3.04-17.24 2.42 3.2h8.97c4.94-10.13 6.96-31.47.97-46.49 15.45 9.33 18.63 30.84 4.83 57.33zm31.56-62.31h-26.56l-3.55 3.2 2.91-16.53 2.41 3.29h26.56l3.55-3.2-2.9 16.44zm-2.97 51.73 3.55-3.2c.54-4 5.26-22.31-.76-31.47 8.47 2.31 15.44 12.71 11.39 31.47l2.42 3.2zm10.21-55.11 5.83-7.64 3.13 7.64-5.83 7.64zm1.67 15.02 5.83-7.64 3.14 7.64-5.83 7.64z"/><path d="m198.68 36.53c-5.95 18.67-13.79 33.96-28.66 41.6 16.43-23.02 21.38-51.11 25.39-73.87l-2.42-3.2h16.1l-3.55 3.2c-1.27 7.2-2.55 14.49-4.17 21.78-.76 3.29-1.5 6.58-2.69 10.49zm33.81 5.96-5.72 32.44h-28.31l1.33-7.56c3.87-21.51 6.5-30.31 2.01-37.33 14.39 3.11 11.59 19.02 8.69 35.02h8.47l3.98-22.58-2.76-3.2h15.85z"/></g></svg>