<svg enable-background="new 0 0 266 19" viewBox="0 0 266 19" xmlns="http://www.w3.org/2000/svg"><g fill="#9b7855"><path d="m17.67 1.36c-.41 0-.74.2-1.06.63-.82 1.13-1.83 2.33-2.56 3.08-.4.44-.49.53-.54.84-.05.28.03.57.21.79s.45.35.74.35c.61 0 1.03-.38 2.15-1.68.58-.67 1.94-2.28 2.04-2.89.05-.27-.03-.55-.2-.76-.19-.23-.47-.36-.78-.36z"/><path d="m15.97 7.6h-4.95l1.06-6c.04-.26-.02-.5-.17-.68-.17-.2-.43-.31-.75-.31-.59 0-1.1.39-1.19.93l-1.07 6.06h-6.29c-.49 0-.92.38-1.01.92-.05.3.01.57.17.76.14.17.34.26.57.26h12.71c.19 0 .24.04.25.05.02.03.03.09.01.18l-.35 1.98h-12.71c-.49 0-.92.38-1.01.91-.05.28.01.53.16.7.14.17.35.26.59.26h12.64l-.37 2.06c-.04.21-.18.32-.42.32h-12.79c-.52 0-.94.37-1.03.92-.05.3.01.57.17.76.14.17.35.26.59.26h13.42c1.19 0 1.93-.62 2.13-1.79l1.18-6.71c.11-.6.03-1.06-.23-1.37s-.7-.47-1.31-.47z"/><path d="m4.6 6.18c.14.35.14.36.2.46.2.26.49.4.81.4.61 0 1.21-.49 1.31-1.07.07-.37-.16-1.13-1.51-3.78-.24-.47-.47-.73-.96-.73-.56 0-1.15.48-1.24 1.01-.05.25-.01.47.13.76.49 1.09.92 2.08 1.26 2.95z"/><path d="m41.62 2.56h-2.62l.24-1.34c.04-.24-.01-.47-.16-.64-.15-.18-.39-.28-.67-.28-.55 0-1.03.37-1.12.86l-.25 1.4h-2.55c-.96 0-1.51.46-1.68 1.41-.22-.43-.73-1.08-1.74-2.26l-.44-.53c-.42-.52-.61-.64-1.01-.64-.41 0-.72.19-1.08.64-1.17 1.49-2.27 2.58-4.04 4.02-.4.32-.51.45-.57.78-.04.25.02.51.18.69.26.31.66.36 1.14.11-.06.15-.1.31-.14.49l-1.63 9.25c-.01 0-.01 0-.02 0l-.09.01c-.43.08-.57.12-.71.19-.33.16-.54.42-.6.74-.05.3.01.58.18.78.16.19.39.29.67.29.51 0 3.43-.83 5.78-1.6l.19.7c.12.53.28.79.82.79.55 0 1.03-.37 1.12-.86.06-.36-.16-1.22-.66-2.57-.58-1.54-.7-1.83-1.3-1.83-.5 0-.96.37-1.04.84-.04.22-.02.33.09.6.03.08.07.2.13.35l.07.17c.02.08.05.15.07.23-.72.21-1.67.46-2.76.73l.56-3.16h3.61c.99 0 1.58-.49 1.75-1.45l.73-4.16c.08-.48.02-.86-.2-1.12s-.58-.39-1.07-.39h-1.03l.2-1.13c.04-.22-.01-.42-.14-.58-.15-.17-.37-.27-.64-.27-.51 0-.93.32-1.01.78l-.21 1.2h-1.14c-.11 0-.22.01-.32.02.08-.07.16-.15.25-.23 1.07-.99 2.01-1.99 2.75-2.89.07.09.09.12.15.21.51.7.77 1.05 1.33 1.93.31.49.48.66.85.66.28 0 .57-.14.78-.35l-.13.74c-.04.23.01.43.14.59.18.21.52.31.87.27-.1.18-.16.38-.2.61l-1.68 9.51c-.08.48-.02.86.2 1.12s.57.39 1.05.39h5.41c.95 0 1.54-.5 1.71-1.45l.5-2.83c.08-.47.02-.84-.19-1.09s-.56-.38-1.04-.38h-4.95l.24-1.34h4.57c.94 0 1.52-.49 1.68-1.41l.43-2.45c.04-.25.04-.47 0-.67.07.01.15.02.22.02.55 0 1.01-.35 1.09-.82l.34-1.9c.08-.48.02-.86-.19-1.11-.24-.26-.59-.39-1.07-.39zm-14.72 5.11c.03-.16.11-.23.29-.23h2.86c.11 0 .13.02.14.02 0 0 .02.03 0 .14l-.17.95h-3.27zm2.84 2.45-.17.94c-.02.12-.09.26-.29.26h-3.02l.21-1.2zm8.6 4.21c.07 0 .12.01.14.04.02.02.02.07.01.12l-.34 1.9c-.03.18-.13.26-.31.26h-4.11c-.11 0-.13-.02-.13-.02s-.02-.03 0-.16l.38-2.15h4.36zm.63-4.96c-.03.17-.12.25-.29.25h-3.87l.31-1.76c.03-.19.08-.23.27-.23h3.71c.07 0 .12.01.14.04.02.02.02.06.01.12zm1.63-3.48c-.01.06-.01.12-.01.17-.18-.07-.39-.1-.63-.1h-5.02c-.21 0-.4.02-.57.07.01-.03.01-.05.02-.08l.25-1.43c.03-.18.09-.23.27-.23h5.79c.09 0 .13.02.15.03.01.01.02.06.01.13z"/><path d="m59.05 8.24c-.21-.41-.34-.56-.7-.56-.45 0-.92.38-1 .82-.05.31.19.82 1.19 2.49.97 1.57 1.13 1.8 1.56 1.8.42 0 .91-.42.98-.84.04-.2-.01-.39-.15-.58-.3-.41-1.5-2.4-1.88-3.13z"/><path d="m61.72 6.61v-.01c-.21-.39-.33-.56-.7-.56-.45 0-.92.38-1 .82-.05.28.12.74 1.19 2.49.91 1.52 1.13 1.82 1.56 1.82.42 0 .91-.43.98-.86.04-.24-.02-.42-.19-.63-.45-.65-1.57-2.47-1.84-3.07z"/><path d="m63.84 2.39h-.13c-1.38.14-7.99.28-12.62.28l-1.97-.02c-.49 0-.57 0-.73.09-.36.16-.66.54-.72.9-.05.28.02.56.18.76.15.18.37.28.61.28 2.9 0 6.57-.04 9.56-.12-4.37 2.76-7.36 5.69-7.69 7.54-.3 1.71.74 3.26 2.92 4.36 1.29.66 3.34 1.28 4.21 1.28 1.05 0 1.7-.42 1.83-1.18.05-.29-.02-.57-.2-.78-.17-.2-.41-.31-.69-.31-.12 0-.22.02-.38.07-.17.05-.21.06-.28.06-.1 0-.22-.01-.42-.07-3.6-1.01-5.03-2.03-4.79-3.42.29-1.66 4.72-5.3 9.31-7.64.44 0 1.7-.06 1.83-.08.42-.05.88-.53.97-1.01.04-.24-.04-.5-.21-.7-.16-.18-.37-.29-.59-.29z"/><path d="m87.35 4.41h-.17c-.19.03-1.32.11-3.1.19l-.57.03c.14-.9.18-1.12.42-2.49l.03-.19c.04-.25-.02-.48-.17-.67-.17-.2-.43-.31-.73-.31-.57 0-1.04.39-1.14.96-.11.6-.18 1.04-.44 2.77-2.34.09-5.75.14-7.95.15l.06-.29c.23-1.05.35-1.66.41-1.95l.03-.17c.04-.1.06-.19.07-.23.05-.27-.01-.52-.16-.7-.16-.19-.41-.3-.71-.3-.57 0-1.03.38-1.15.94-.39 1.65-2.23 11.11-2.72 13.88-.16.91-.19 1.06-.14 1.25.1.39.46.63.92.63.87 0 1.09-.47 1.29-1.6.04-.21.12-.72.21-1.34l.28-1.74c.24-1.35.24-1.37 1.24-6.41 2.02 0 4.59-.06 8.06-.18l-.24 1.6c-.14.92-.2 1.33-.25 1.78-.26-.08-.53-.12-.86-.12-2.36 0-5.08 2.3-5.49 4.64-.18 1-.03 1.8.45 2.36.5.6 1.34.9 2.48.9 1.94 0 3.55-1.01 4.54-2.85.63.86 1.2 1.55 1.75 2.09.28.28.45.36.77.36.6 0 1.11-.45 1.22-1.09.06-.33-.01-.54-.25-.77-1.19-1.17-2.29-2.59-2.89-3.72l.63-4.3c.03-.16.09-.51.15-.96 1.03-.03 3.67-.13 3.96-.17.41-.05.8-.48.89-.99.05-.26-.03-.54-.2-.74-.14-.16-.33-.25-.53-.25zm-6.76 8.54c-.49 1.85-1.56 2.87-3.01 2.87-.46 0-.78-.1-.95-.31-.17-.2-.22-.54-.14-.99.23-1.33 1.74-2.64 3.03-2.64.4 0 .61.15 1.1 1.01z"/><path d="m102.49 1.57c-.4 0-2.14.04-2.76.08-1 .04-1.58.06-1.68.06l-.14.01c-.23.01-.34.02-.43.06-.32.12-.63.53-.7.9-.05.28.02.56.18.76.08.09.17.16.28.2l-2.62 13.35-.02.03c-.02.03-.02.06-.02.1l.01.11c.12.43.43.67.88.67.51 0 .96-.25 1.16-.63 1.17.12 2.51.2 3.63.2 3.55 0 6.02-1.51 6.45-3.94.18-1.04.02-1.91-.5-2.57-.48-.62-1.27-1.06-2.34-1.3 2.04-.48 3.34-1.83 3.7-3.89.2-1.13 0-2.05-.58-2.74-.78-.97-2.31-1.46-4.5-1.46zm2.06 11.83c-.25 1.41-1.56 2.09-4 2.09-.99 0-2.37-.06-3.49-.15l.94-4.82c2.48 0 3.31.07 4.35.34 1.73.45 2.43 1.26 2.2 2.54zm.89-7.68c-.24 1.33-.97 2.07-2.47 2.48-.95.25-2.26.37-4.61.41l.98-5.03c.95-.04 2.18-.07 2.81-.07 1.65 0 2.62.24 3.05.75.29.33.36.8.24 1.46z"/><path d="m128.11 8.84-6.53.04c-.45 0-.94.47-1.03 1.01-.05.3.02.61.2.83.14.17.33.26.54.26l2.7-.04-.04.21c-1.44 3.13-3.11 4.59-5.25 4.59-1.28 0-2.26-.4-2.93-1.2-.88-1.05-1.15-2.74-.78-4.87.63-3.58 3.62-6.39 6.8-6.39 1.24 0 2.28.56 2.72 1.47.15.32.43.49.82.49.63 0 1.17-.46 1.28-1.11.07-.37-.05-.62-.29-.98-.85-1.23-2.42-1.96-4.21-1.96-4.38 0-8.6 3.74-9.41 8.33-.49 2.78-.09 5.02 1.14 6.5 1.01 1.21 2.57 1.84 4.5 1.84 1.94 0 3.46-.76 4.97-2.52l-.22 1.58c-.04.3.02.56.18.74.16.19.42.29.75.29.65 0 1.19-.46 1.28-1.09l.83-5.89 1.68-.04c.46 0 .93-.46 1.03-1.01.05-.3-.03-.61-.21-.83-.13-.16-.32-.25-.52-.25z"/><path d="m149.83 1.17c-.63 0-1.11.44-1.25 1.15-2.34 3.02-4.78 5.96-7.1 8.53-.93-2.01-.94-2.02-1.01-2.14-3.41-6.87-3.41-6.87-3.51-7.04-.12-.23-.37-.37-.7-.37-.65 0-1.22.47-1.33 1.09-.03.16-.01.31.05.45 0 0 0 .01.01.01l.17.32-.39 2.12c-.59 3.24-1.8 9.27-2.17 10.76l-.12.6c-.07.37-.01.68.17.9.16.19.41.29.71.29.62 0 1.14-.42 1.23-.97.04-.12.11-.48.24-1.07l.18-.86c.33-1.63.51-2.58 1.31-6.77l.37-2c1.26 2.53 2.04 4.09 3.17 6.49l-.43.47c-.11.14-.23.31-.27.52-.05.29.02.56.2.78.19.22.47.35.79.35.36 0 .62-.13.9-.44 3.57-4.1 4.79-5.57 6.97-8.32-.64 3.86-1.52 10.17-1.53 10.97 0 .21.08.41.24.57.18.18.43.28.7.28.66 0 1.15-.46 1.28-1.2.05-.26.14-1.14.2-1.92.17-1.98.84-6.54 1.6-10.84l.18-.9c.16-.9.16-.92.11-1.12-.09-.41-.47-.69-.97-.69z"/><path d="m173.5 3.08h-.17c-1.65.14-4.38.26-7.19.3.47-.76.58-1.01.68-1.54.05-.26-.01-.49-.15-.66-.16-.19-.43-.3-.77-.3-.54 0-1.03.37-1.14.86-.05.27-.23.62-.88 1.65-1.1.02-2 .02-2.47.02-1.15 0-1.86-.02-2.36-.07-.11-.02-.22-.02-.3-.02-.5 0-.96.42-1.06.95-.06.31 0 .59.14.78.12.15.29.23.49.24.65.04 1.85.06 4.24.06-.55.78-1.13 1.55-1.61 2.15-.36.44-.53.71-.59 1.04-.05.27.02.54.2.75.17.2.41.31.67.31.23 0 .44-.06.65-.2l.35.31c.16.15.23.21.49.43l.31.28c-3.56 2.43-4.72 3.56-4.94 4.78-.17.98.4 1.74 1.57 2.09.71.23 1.99.33 4.27.33 2.94 0 5.21-.16 5.92-.41.62-.21 1.11-.73 1.21-1.25.05-.27-.03-.54-.2-.74-.18-.21-.44-.33-.72-.33-.23 0-.45.08-.71.26-.3.21-.46.28-.78.33-.82.13-2.22.21-3.83.21-2.35 0-3.99-.08-4.32-.47-.04-.05-.09-.13-.06-.3.03-.19.2-.42.46-.63.93-.85 2.13-1.78 3.39-2.65.53.57.92.99 1.21 1.34.31.35.48.46.84.46.58 0 1.11-.45 1.21-1.03.09-.5-.15-.81-1.38-2.02.96-.6 2.2-1.32 2.82-1.65.8-.41 1.29-.96 1.4-1.6.04-.26-.01-.49-.16-.67-.17-.2-.44-.31-.76-.31-.4 0-.71.18-.91.53-.18.31-.28.41-.5.52-.46.27-2.11 1.3-3.17 1.98l-.28-.24c-.82-.67-1.18-.96-1.48-1.19.59-.79 1.26-1.73 1.76-2.46 2.65-.04 7.36-.17 8.49-.25.41-.02.78-.41.87-.91.05-.28-.03-.58-.21-.79-.15-.18-.34-.27-.54-.27z"/><path d="m183.08 4.36c.18.27.43.41.75.41.56 0 1.13-.48 1.23-1.03.08-.47-.25-1.03-1.27-2.12-.57-.63-.82-.84-1.24-.84-.52 0-1.07.48-1.17 1.01-.05.32.01.51.26.78.44.49.81.94 1.44 1.79z"/><path d="m181.58 8.83c.25.37.42.52.83.52.55 0 1.13-.48 1.22-1.01.08-.48-.2-.92-1.05-1.9-.72-.86-1.05-1.11-1.46-1.11-.52 0-1.07.46-1.16.97-.05.3.01.51.25.8.75.87 1.01 1.21 1.37 1.73z"/><path d="m197.77 2.66h-4.78l.24-1.38c.04-.24-.02-.47-.16-.65-.17-.2-.43-.31-.74-.31-.59 0-1.07.37-1.16.9l-.25 1.44h-4.52c-.47.02-.83.37-.92.88-.05.28.01.55.16.73.13.15.31.23.51.23h3.22c-.6.9-1.41 1.97-2.35 3.09h-.76c-.65 0-.69 0-.8.02-.46.07-.78.41-.87.91-.05.3 0 .54.15.72.16.2.44.3.8.3 1.63 0 7.44-.38 9.65-.6.1.16.16.27.22.37s.11.19.18.3c.18.33.45.5.83.5.51 0 1.02-.43 1.11-.91.05-.26-.01-.5-.2-.82-.41-.81-1.55-2.36-2.35-3.29-.2-.23-.44-.35-.73-.35-.48 0-.98.41-1.06.86-.05.29.02.52.23.77l.19.26c.14.19.27.36.47.66l-1.64.09c-.32.02-.75.04-1.72.07-.18.01-.48.02-.87.04l-.56.02c.68-.81 1.6-2.04 2.27-3.01h5.98c.45 0 .86-.39.95-.9.05-.28-.01-.53-.16-.7-.15-.16-.34-.24-.56-.24z"/><path d="m183.79 10.95c-.18-.22-.47-.34-.78-.34-.45 0-.76.22-1.07.76-1.03 1.83-2.23 3.64-3.38 5.11-.47.56-.5.61-.55.89-.05.26.03.53.2.74.19.22.47.35.77.35.31 0 .63-.14.91-.42.03-.04.11-.14.2-.26.08-.11.18-.23.29-.36 1.21-1.56 3.48-5.15 3.59-5.77.05-.26-.02-.5-.18-.7z"/><path d="m186.88 9.81c-.56 0-1.05.37-1.14.86l-.16.93c-.44 2.48-1.17 3.77-2.78 4.94-.75.52-.91.66-.98 1.07-.05.27.03.55.21.76s.43.33.69.33c.65 0 1.81-.86 2.55-1.7 1.11-1.26 1.91-3.1 2.3-5.34l.16-.93c.04-.23-.02-.45-.16-.62-.16-.19-.42-.3-.69-.3z"/><path d="m196.18 13.21c-.58 0-.98.33-1.11.91-.44 2.27-.56 2.34-1.14 2.34-.29 0-.36-.04-.38-.06-.01-.01-.03-.06 0-.25l.98-5.53c.04-.22-.02-.43-.16-.6-.16-.2-.43-.31-.72-.31-.55 0-1.03.36-1.12.84l-1.07 6.09c-.11.64-.06 1.03.16 1.3.32.38.95.46 1.79.46 1.32 0 2.03-.21 2.46-.73.38-.43.79-1.67 1.08-3.33.07-.38.02-.68-.15-.88-.09-.11-.28-.25-.62-.25z"/><path d="m190.14 10.11c-.58 0-1.01.33-1.1.84l-1.14 6.47c-.05.3.04.5.14.61.15.18.41.28.74.28.6 0 1.02-.31 1.11-.82l1.14-6.47c.04-.24-.01-.46-.14-.62-.1-.13-.32-.29-.75-.29z"/><path d="m219.54 6.35c-.07 0-.18 0-.24.02-.68.02-1.34.05-1.98.08-.42.02-.83.03-1.23.05.32-1.92.64-4.06.66-4.29.03-.29-.03-.52-.17-.68-.15-.17-.39-.25-.71-.25-.65 0-1.07.34-1.18.95-.04.23-.17 1.06-.31 2.21-.08.55-.1.66-.35 2.12l-4.45.09c.38-2.16.67-3.99.68-4.3.02-.26-.03-.47-.17-.62s-.35-.23-.64-.23c-.72 0-1.14.32-1.25.95-.04.21-.11.61-.17 1.08-.03.3-.17 1.08-.36 2.16l-.17.99-3.23.02c-.5.07-.89.46-.98.99-.05.27 0 .55.12.72.2.3.45.31 1.51.31.46 0 .48 0 2.23-.03l-.53 2.96c-.24 1.32-.36 1.95-.53 2.85-.07.27-.11.49-.13.62-.19 1.1-.13 1.9.79 2.22.7.24 2.49.3 3.87.3 2.6 0 3.7-.1 4.54-.39.88-.33 1.51-.93 1.62-1.53.05-.31-.03-.64-.24-.88-.17-.2-.39-.31-.63-.31-.25 0-.49.12-.89.35-.53.33-.65.38-.99.45-.37.09-2.16.18-3.41.18-1.43 0-2.25-.05-2.45-.28-.05-.06-.09-.15-.04-.43l1.08-6.12.7-.02c.78-.02 1.2-.03 1.68-.04l1.49-.04.6-.03-.05.3c-.26 1.56-.31 1.62-.81 2.17-.26.23-.36.41-.41.68-.05.3.03.6.21.82.17.21.43.33.7.33.83 0 1.9-1.25 2.12-2.47l.33-1.89.59-.03c2.01-.07 2.9-.13 3.12-.16.52-.09.81-.4.91-.97.07-.38-.04-.6-.15-.73-.11-.11-.31-.25-.7-.25z"/><path d="m242.04 3.59c-.04 0-.21 0-.32.02-1.45.06-3.6.13-5.43.15l.36-2.04c.03-.18-.02-.37-.15-.53-.17-.2-.44-.32-.73-.32-.57 0-1.11.37-1.19.8l-.37 2.11-1.26.03c-2.84.04-3.6.04-3.91.04-.35-.02-.64-.02-.7-.02-.18 0-.25 0-.37.03-.35.12-.7.53-.76.92-.06.32 0 .57.15.75.18.22.48.32.93.32.08 0 .47-.02.81-.04.29-.02 1.63-.04 3.64-.04.15 0 .6 0 1.13-.01l-.32 1.83-1.19.03c-2.77.06-2.77.06-3.79.06l-.85-.02c-.25 0-.35.02-.5.08-.33.16-.59.51-.66.88-.05.29.01.56.17.75.15.17.36.27.61.27 2.33 0 3.96-.02 5.89-.07l-.2 1.48c-.18-.02-.34-.03-.49-.03-1.2 0-2.79.54-3.95 1.35-1.08.75-1.76 1.7-1.93 2.65-.13.73.05 1.4.51 1.95.63.75 1.75 1.18 3.07 1.18 1.1 0 2.11-.32 2.92-.93.78-.59 1.25-1.25 1.69-2.39 1.26 1.33 3.19 2.84 3.84 2.84.63 0 1.15-.49 1.27-1.18.08-.43-.07-.7-.5-.9-.98-.48-2.79-1.85-3.73-2.83-.41-.44-.53-.56-.77-.8.07-.6.22-1.53.35-2.35l.01-.07c1.24 0 3.02-.04 4.23-.1.84-.04 1.26-.06 1.38-.06l.15-.01c.22-.01.29-.02.39-.04.35-.14.67-.53.74-.92.05-.28-.01-.53-.16-.72-.17-.21-.45-.32-.8-.32-.22 0-.83.03-1.6.07l-.87.04c-.17.02-1.16.05-3.13.07l.32-1.83c1.91-.01 5.42-.12 6.1-.17.43-.02.84-.45.94-.97.05-.27-.01-.51-.16-.69-.2-.19-.48-.3-.81-.3zm-8.83 10.02c-.29 1.63-1.27 2.56-2.69 2.56-.69 0-1.27-.2-1.56-.55-.15-.18-.2-.37-.17-.58.17-.97 2-2.07 3.43-2.07.36 0 .7.08 1.03.24z"/><path d="m265.82 3.85c-.15-.18-.38-.28-.66-.28-.04 0-.14 0-.21.02-1.09.06-2.45.13-4.34.18.18-1.11.25-1.51.32-1.9.07-.37.02-.64-.13-.82s-.41-.27-.79-.27c-.85 0-1.06.44-1.25 1.5-.07.38-.12.78-.22 1.54l-3.13.04c-1.73.02-2.6.03-3.65.03-1.64 0-1.64 0-1.75.04-.41.09-.74.48-.83.97-.06.31.01.58.18.75.19.2.47.23 1.26.23 1.52 0 5.68-.1 7.63-.15-.02.14-.04.32-.08.57l-.1.78c-1.6.16-3.11.49-4.06.89-1.43.62-2.48 1.76-2.68 2.9-.22 1.23.5 2.42 1.74 2.91.71.29 1.8.52 3.02.64-.72.68-1.76 1.34-2.91 1.85-.72.33-.94.5-1.03 1.01-.06.34.01.65.19.87.16.2.41.3.69.3.84 0 3.24-1.57 4.41-2.74 1.28-1.3 1.68-2.19 2.13-4.74.14-.8.26-1.66.4-2.84l.1-.8c.02-.17.04-.31.06-.44.03-.19.05-.33.05-.39l.13-.81c.9-.02 1.49-.03 2.47-.06l.53-.01c.67-.02 1.1-.04 1.3-.06.4 0 .48 0 .63-.07.38-.12.65-.46.73-.93.06-.27 0-.53-.15-.71zm-8.24 6.87c-.12.66-.25 1.28-.41 1.86-1.09-.05-2.1-.21-2.86-.46-.66-.24-.91-.63-.79-1.27.09-.54.55-1.01 1.29-1.32.65-.28 1.65-.48 3.06-.61-.2 1.33-.21 1.35-.29 1.8z"/></g></svg>