<svg enable-background="new 0 0 260 28" viewBox="0 0 260 28" xmlns="http://www.w3.org/2000/svg"><g fill="#d9c6aa"><path d="m.5 27.25v-7.23c3.78-1.63 6.69-3.26 8.89-4.96 1.92-1.51 2.57-2.46 2.57-3.77 0-1.43-.77-2.34-1.98-2.34-1.27 0-2.14.95-2.45 2.66-.09.48-.12.95-.12 2.03h-7.35c-.03-.77-.06-1.45-.06-1.84 0-3.93 1.15-7.23 3.19-9.13 1.8-1.67 4.37-2.46 8.15-2.46 3.66 0 6.23.83 7.87 2.58 1.58 1.71 2.39 3.89 2.39 6.43 0 3.26-1.21 5.56-3.81 7.27-1.42.91-2.38 1.43-5.7 2.94h9.57v7.82z"/><path d="m54.43 3.1c2.23 2.26 3.35 5.84 3.35 10.92 0 4.77-1.27 8.94-3.41 11.2-1.86 1.95-4.37 2.78-8.43 2.78-4.12 0-6.6-.91-8.49-3.02-2.01-2.3-3.22-6.51-3.22-11.2 0-4.89 1.39-9.06 3.72-11.12 1.76-1.59 5.14-2.66 8.3-2.66 3.29 0 6.2 1.11 8.18 3.1zm-11.59 11.48c0 3.42 1.02 5.04 3.16 5.04s3.16-1.63 3.16-5-1.05-5.05-3.16-5.05c-2.1 0-3.16 1.67-3.16 5.01z"/><path d="m74.22 27.25v-14.38l-4.24 1.83v-9.3l4.8-4.65h9.64v26.49h-10.2z"/><path d="m98.54 19.98c2.88.71 5.76 1.11 8.24 1.11 2.51 0 3.69-.75 3.69-2.34 0-.12 0-.32-.03-.52-1.39.52-2.26.64-4.62.64-5.95 0-8.3-2.46-8.3-8.7 0-7.11 3.25-9.97 11.28-9.97 4.09 0 6.57.79 8.21 2.58 1.95 2.14 3.1 6.08 3.1 10.76 0 4.45-.99 8.34-2.7 10.64-1.89 2.54-4.68 3.61-9.45 3.61-3.29 0-5.55-.28-8.8-1.07zm12.24-9.3c0-2.58-.62-3.57-2.29-3.57-1.49 0-2.35 1.11-2.35 3.14 0 1.99.81 2.98 2.42 2.98.81 0 1.39-.04 2.23-.2v-2.35z"/><path d="m141.2 23.91c0 2.34-1.49 3.69-4.09 3.69-2.51 0-4-1.39-4-3.73 0-2.38 1.27-3.5 4.03-3.5 2.79 0 4.06 1.12 4.06 3.54z"/><path d="m155.38 12.63c-1.02-1.03-1.61-2.86-1.61-4.89 0-5.12 3.72-7.55 11.62-7.55s11.62 2.42 11.62 7.55c0 2.03-.59 3.85-1.61 4.89-.68.71-1.33 1.03-2.85 1.43 1.49.36 2.2.75 3.04 1.71 1.05 1.15 1.61 2.7 1.61 4.53 0 2.46-.99 4.65-2.6 5.72-1.95 1.31-4.34 1.79-9.2 1.79s-7.25-.48-9.2-1.79c-1.58-1.07-2.6-3.3-2.6-5.72 0-1.79.56-3.38 1.61-4.53.84-.95 1.55-1.35 3.04-1.71-1.54-.4-2.19-.72-2.87-1.43zm7.38-2.74c0 1.83.99 2.9 2.76 2.9 1.74 0 2.73-1.07 2.73-2.9 0-1.75-1.02-2.82-2.7-2.82-1.77 0-2.79 1.03-2.79 2.82zm.06 9.21c0 1.83.9 2.78 2.66 2.78 1.74 0 2.66-.95 2.66-2.74s-.93-2.74-2.6-2.74c-1.79 0-2.72.92-2.72 2.7z"/><path d="m198.29 23.91c0 2.34-1.49 3.69-4.09 3.69-2.51 0-4-1.39-4-3.73 0-2.38 1.27-3.5 4.03-3.5 2.79 0 4.06 1.12 4.06 3.54z"/><path d="m215.14 27.25v-14.38l-4.24 1.83v-9.3l4.8-4.65h9.64v26.49h-10.2z"/><path d="m237.78 27.25v-7.23c3.78-1.63 6.69-3.26 8.89-4.96 1.92-1.51 2.57-2.46 2.57-3.77 0-1.43-.77-2.34-1.98-2.34-1.27 0-2.14.95-2.45 2.66-.09.48-.12.95-.12 2.03h-7.34c-.03-.75-.06-1.43-.06-1.83 0-3.93 1.15-7.23 3.19-9.13 1.8-1.67 4.37-2.46 8.15-2.46 3.66 0 6.23.83 7.87 2.58 1.58 1.71 2.39 3.89 2.39 6.43 0 3.26-1.21 5.56-3.81 7.27-1.42.91-2.38 1.43-5.7 2.94h9.57v7.82h-21.17z"/></g></svg>