<svg enable-background="new 0 0 500 230" viewBox="0 0 500 230" width="500" height="230" xmlns="http://www.w3.org/2000/svg"><path clip-rule="evenodd" d="m500 84.1v-84.1h-500v84.1c7.17 3.09 12.54 15.75 12.54 30.9s-5.37 27.81-12.54 30.9v84.1h500v-84.1c-7.17-3.09-12.54-15.75-12.54-30.9 0-15.16 5.37-27.81 12.54-30.9z" fill="#25283c" fill-rule="evenodd"/><path d="m434.25 215.25v8c0 .55.45 1 1 1s1-.45 1-1v-8c0-.55-.45-1-1-1s-1 .45-1 1zm0-21v8c0 .55.45 1 1 1s1-.45 1-1v-8c0-.55-.45-1-1-1s-1 .45-1 1zm0-21v8c0 .55.45 1 1 1s1-.45 1-1v-8c0-.55-.45-1-1-1s-1 .45-1 1zm0-21v8c0 .55.45 1 1 1s1-.45 1-1v-8c0-.55-.45-1-1-1s-1 .45-1 1zm0-21v8c0 .55.45 1 1 1s1-.45 1-1v-8c0-.55-.45-1-1-1s-1 .45-1 1zm0-21v8c0 .55.45 1 1 1s1-.45 1-1v-8c0-.55-.45-1-1-1s-1 .45-1 1zm0-21v8c0 .55.45 1 1 1s1-.45 1-1v-8c0-.55-.45-1-1-1s-1 .45-1 1zm0-21v8c0 .55.45 1 1 1s1-.45 1-1v-8c0-.55-.45-1-1-1s-1 .45-1 1zm0-21v8c0 .55.45 1 1 1s1-.45 1-1v-8c0-.55-.45-1-1-1s-1 .45-1 1zm0-21v8c0 .55.45 1 1 1s1-.45 1-1v-8c0-.55-.45-1-1-1s-1 .45-1 1zm0-21v8c0 .55.45 1 1 1s1-.45 1-1v-8c0-.55-.45-1-1-1s-1 .45-1 1z" fill="#d9c6aa" opacity=".4"/></svg>
